<svg preserveAspectRatio="none" width="100%" height="100%" overflow="visible" style="display: block;" viewBox="0 0 10 14" fill="none" xmlns="http://www.w3.org/2000/svg">
<path id="Vector" d="M9.82835 0.862577C9.53406 0.91572 9.32494 0.710355 9.08338 0.609023C8.98738 0.568941 8.90897 0.496883 8.79359 0.53021C8.50787 0.612626 8.22529 0.712156 7.93461 0.769803C7.49024 0.857623 7.13601 1.00895 6.84577 1.41697C6.50461 1.89661 5.97912 2.21321 5.45138 2.49379C5.27652 2.58701 5.27607 2.79508 5.43561 2.92434C5.67987 3.12204 5.69925 3.14231 5.49735 3.33281C5.28778 3.53052 5.32474 3.76336 5.32023 3.9989C5.31528 4.24255 5.39054 4.50511 5.05524 4.62986C4.93626 4.67399 4.92003 4.84783 5.08092 4.90143C5.3315 4.98474 5.32339 5.17299 5.32023 5.3716C5.31888 5.46168 5.32339 5.55175 5.31933 5.64137C5.31302 5.78999 5.3617 5.95212 5.28418 6.08318C5.19224 6.239 5.00431 6.13857 4.87046 6.19171C4.69154 6.26287 4.51983 6.33493 4.38373 6.49526C4.23095 6.6754 4.27602 6.83798 4.31478 7.03479C4.35443 7.23745 4.34587 7.44732 4.40536 7.65224C4.45358 7.81752 4.42158 7.99046 4.2296 8.06432C3.95649 8.1697 3.78343 8.4764 3.43866 8.44397C3.34672 8.43542 3.28588 8.52819 3.25794 8.62007C3.21062 8.77679 3.14842 8.92811 3.15609 9.0997C3.16735 9.35281 3.1962 9.61582 2.89109 9.75138C2.80816 9.78831 2.796 9.9 2.8005 9.99232C2.80907 10.1743 2.76715 10.3459 2.72163 10.521C2.64457 10.8178 2.65403 10.8201 2.3327 10.7557C2.34487 10.6066 2.34081 10.4539 2.37101 10.3085C2.4981 9.69508 2.63556 9.08349 2.76851 8.47145C2.79915 8.32958 2.82214 8.18727 2.73876 7.96569C2.07491 9.29426 1.61207 10.6264 1.08613 11.9316C0.90631 11.9505 0.903606 12.0739 0.922985 12.2095C0.8991 12.5499 0.68593 12.8125 0.551178 13.1075C0.40606 13.1075 0.274012 13.089 0.277167 12.8972C0.280322 12.7062 0.210916 12.5765 0 12.563C0.164948 11.7893 0.334853 11.0164 0.493491 10.2414C0.727392 9.10105 0.939661 7.95578 1.18798 6.81862C1.31147 6.25341 1.41873 5.67695 1.75809 5.1802C1.97847 4.85729 2.2304 4.56005 2.49539 4.27857C3.54322 3.16483 4.6636 2.129 5.8651 1.18143C6.36085 0.790519 6.89535 0.461305 7.45554 0.175325C7.86025 -0.0313916 8.26811 -0.0759774 8.6985 0.154158C9.09284 0.364927 9.4935 0.559484 9.8279 0.862577H9.82835ZM5.21838 2.27221C5.35043 2.29653 5.38919 2.23618 5.39955 2.15827C5.40902 2.08576 5.40316 2.0056 5.31753 1.97677C5.23415 1.9484 5.17331 1.98533 5.15664 2.0718C5.13906 2.16142 5.14086 2.24924 5.21838 2.27221Z" fill="var(--fill-0, #2C1644)"/>
</svg>
