<svg preserveAspectRatio="none" width="100%" height="100%" overflow="visible" style="display: block;" viewBox="0 0 3 4" fill="none" xmlns="http://www.w3.org/2000/svg">
<path id="Vector" d="M0.259139 0.566106C0.172609 0.458019 0.0865298 0.349932 0 0.242295C0.00360541 0.0540437 0.110416 -0.0117077 0.284377 0.00180321L0.282575 0C0.29925 0.13691 0.233 0.344529 0.450676 0.344979C0.642664 0.344979 0.913522 0.502605 1.01087 0.169787C1.10055 0.217075 1.15869 0.290034 1.18843 0.385961C1.20285 0.399472 1.21683 0.413433 1.23035 0.428295C1.80316 1.20292 2.23716 2.04465 2.47061 2.98365C2.48863 3.05571 2.50621 3.12822 2.52153 3.20072C2.55038 3.33628 2.50891 3.42681 2.36785 3.47544C2.21688 3.52769 2.15018 3.45743 2.09339 3.33268C1.95188 3.02058 1.81352 2.70713 1.65714 2.40268C1.30065 1.70868 0.859441 1.07637 0.258689 0.566106H0.259139Z" fill="var(--fill-0, #D8C09F)"/>
</svg>
