<svg preserveAspectRatio="none" width="100%" height="100%" overflow="visible" style="display: block;" viewBox="0 0 15 4" fill="none" xmlns="http://www.w3.org/2000/svg">
<path id="Vector" d="M9.23105 2.15859C8.70286 2.10274 8.20576 2.29189 7.69965 2.38061C7.29539 2.45177 6.87401 2.45087 6.48508 2.6058C6.09029 2.65398 5.69414 2.69227 5.3016 2.75532C5.14657 2.78009 4.969 2.74901 4.84056 2.88097C4.66209 2.87872 4.48588 2.89043 4.30876 2.9251C3.6972 3.0449 3.08338 3.15389 2.47 3.26693C2.4326 3.16109 2.38348 3.07327 2.24512 3.11335C1.86835 3.22279 1.49609 3.37186 1.09138 3.25387C1.07877 3.25026 1.06119 3.25612 1.04767 3.26197C0.804306 3.37231 0.546518 3.31196 0.295041 3.32998C0.0485209 3.34754 -0.0240363 3.22234 0.00660967 3.00167C0.151727 2.97599 0.262141 2.84539 0.421681 2.8625C0.581671 2.86746 0.741211 2.87691 0.901201 2.87601C1.24867 2.87376 1.24867 2.87196 1.25453 2.52608L1.28968 2.50537H1.33069C1.43886 2.52383 1.54522 2.53644 1.60425 2.41214L1.60786 2.41124C1.71422 2.43556 1.81562 2.44231 1.87827 2.32702L1.88007 2.32612C1.95713 2.34594 2.02068 2.32972 2.0644 2.25857L2.10135 2.23695H2.14417C2.45108 2.34323 2.75483 2.29325 3.06265 2.21668C2.99009 2.11625 2.81928 2.18606 2.77331 2.04735C4.00996 1.67445 5.29394 1.5506 6.56034 1.33442C6.96235 1.34433 7.34001 1.19076 7.73571 1.15968C7.87632 1.18761 8.00746 1.13356 8.11968 1.07276C8.32429 0.961974 8.24542 1.26957 8.40406 1.2376C9.3293 1.05025 10.2658 0.914237 11.1708 0.635012C11.2577 0.61925 11.3461 0.609792 11.4308 0.587274C12.1726 0.392718 12.914 0.196358 13.6553 0C13.7459 0.144116 13.7716 0.322911 13.896 0.448562C13.7919 0.456668 13.6846 0.451262 13.5841 0.475132C12.8288 0.655276 12.0703 0.825515 11.3217 1.03088C10.8751 1.15338 10.4177 1.25156 9.99675 1.46052C11.3285 1.19661 12.6427 0.865597 13.9537 0.521069C14.0289 0.616096 14.1042 0.711574 14.1795 0.8066C14.0353 0.844881 13.9298 0.95477 13.7784 0.9926C12.5413 1.3038 11.306 1.61995 10.0625 1.90548C9.78448 1.96943 9.45278 1.89873 9.23015 2.15724L9.23105 2.15859Z" fill="var(--fill-0, #EEDDBB)"/>
</svg>
