<svg preserveAspectRatio="none" width="100%" height="100%" overflow="visible" style="display: block;" viewBox="0 0 10 5" fill="none" xmlns="http://www.w3.org/2000/svg">
<path id="Vector" d="M7.68583 0C7.72549 0.0108087 7.77957 0.00315188 7.78408 0.0612486C7.78498 0.0707062 7.74262 0.0891725 7.71873 0.0936761C7.56055 0.124301 7.33746 0.13691 7.37351 0.343627C7.40236 0.50981 7.63265 0.504857 7.78769 0.538183C7.92649 0.567907 8.06755 0.52152 8.17527 0.451264C8.48668 0.248601 8.82379 0.259409 9.16811 0.284629C8.56375 0.53413 7.92469 0.673743 7.30141 0.864696C5.6614 1.3664 4.01868 1.85865 2.37822 2.3581C2.23536 2.40178 2.09609 2.45627 1.94467 2.46033C1.91447 2.40493 1.86985 2.35584 1.80721 2.39322C1.75268 2.4261 1.76034 2.49636 1.76485 2.55625C1.70491 2.58418 1.64452 2.6121 1.58458 2.63958C1.44351 2.46889 1.41467 2.57472 1.39935 2.71433L1.40115 2.71118C1.17882 2.7325 1.05924 2.85379 1.04241 3.07507L1.04602 3.07417C0.765697 3.18451 0.72739 3.28179 0.868902 3.52093C0.86079 3.61776 0.872057 3.72089 0.784626 3.79295C0.59399 3.7862 0.492139 3.86996 0.504758 4.06902C0.504758 4.06902 0.502054 4.06542 0.501603 4.06542C0.338007 4.02894 0.155033 4.0992 0 4.00057C0.030646 3.83754 0.1663 3.86771 0.245619 3.81772C0.423186 3.70648 0.456985 3.58443 0.312318 3.425C0.307361 3.39483 0.301952 3.3642 0.296994 3.33358C0.353779 3.053 0.452929 2.78729 0.630045 2.56256C0.785528 2.36575 0.963997 2.18696 1.13255 2.00051C2.71578 1.16148 4.43916 0.748953 6.1657 0.344077C6.52895 0.258959 6.89309 0.17609 7.24913 0.0662019C7.39605 0.0207153 7.53711 0.00135197 7.68583 0.000901604V0Z" fill="var(--fill-0, #0B152C)"/>
</svg>
