<svg preserveAspectRatio="none" width="100%" height="100%" overflow="visible" style="display: block;" viewBox="0 0 3 3" fill="none" xmlns="http://www.w3.org/2000/svg">
<path id="Vector" d="M0.290236 2.37385C0.138808 1.79919 0.170355 1.20516 0.108162 0.621036C0.0865296 0.415671 0.080671 0.210306 0 0.0166504C0.0865298 0.0130475 0.17351 0.00944508 0.26004 0.00584218C0.355583 -0.0144241 0.43355 0.0202532 0.509715 0.0756478C1.14877 0.544475 1.78963 1.0106 2.42824 1.48033C2.47511 1.51456 2.50711 1.5686 2.54632 1.61364C2.52559 1.63435 2.50486 1.65507 2.48368 1.67488C1.88202 1.23803 1.28127 0.79983 0.677816 0.365681C0.561992 0.282364 0.454732 0.159866 0.283925 0.222466C0.216775 0.353522 0.263194 0.48818 0.260941 0.619686C0.250124 1.2002 0.415522 1.76991 0.365047 2.35268C0.344316 2.37385 0.319529 2.3806 0.290685 2.37385H0.290236Z" fill="var(--fill-0, #887994)"/>
</svg>
