<svg preserveAspectRatio="none" width="100%" height="100%" overflow="visible" style="display: block;" viewBox="0 0 13 15" fill="none" xmlns="http://www.w3.org/2000/svg">
<path id="Vector" d="M10.4417 2.58327C9.62599 3.14532 8.81027 3.70692 7.995 4.26942C7.84763 4.3712 7.71242 4.48469 7.6322 4.65088C7.20226 4.70942 6.95799 5.01207 6.7322 5.35119C7.22119 5.25526 7.67051 5.06566 8.10136 4.82652C8.70481 4.53604 9.30827 4.2451 9.91127 3.95417C9.97752 3.92219 10.0397 3.8767 10.1096 3.85644C10.179 3.83617 10.2619 3.83167 10.3056 3.91093C10.3408 3.97488 10.2943 4.02803 10.2538 4.06901C10.0546 4.27167 9.86801 4.49055 9.64763 4.66709C9.08834 5.1143 8.49705 5.51692 7.86205 5.85154C7.24237 6.17851 6.61998 6.50052 6.00301 6.83198C5.68573 7.00222 5.34908 7.12382 5.01557 7.25352C4.91778 7.2918 4.86956 7.34629 4.84883 7.43952C4.7668 7.47735 4.71002 7.5413 4.66225 7.61561C3.94522 8.08804 3.335 8.67531 2.82394 9.36212C2.0312 10.4281 1.33851 11.5563 0.760291 12.7533C0.584978 13.1159 0.415975 13.4793 0.321783 13.8747C0.296095 13.9833 0.28663 14.1166 0.170807 14.1891C0.061743 14.1328 0.110866 13.9756 0 13.9202C0.0802204 13.6032 0.041913 13.2834 0.0423637 12.9619C0.0428144 12.566 0.123035 12.1697 0.178919 11.7747C0.253731 11.2478 0.320431 10.7195 0.448423 10.2011C0.475464 10.0908 0.523235 10.0097 0.625539 9.96155C0.806711 9.94939 0.857636 9.83635 0.903154 9.67287C1.02123 9.24773 1.18708 8.84015 1.51427 8.52219C1.87571 8.44113 2.00506 8.0993 2.1993 7.85836C2.74552 7.18056 3.38142 6.60815 4.02949 6.03169C4.84747 5.3039 5.74928 4.69411 6.62179 4.04514C7.17927 3.63036 7.78949 3.27772 8.34787 2.85934C9.24923 2.18469 10.0343 1.3853 10.7455 0.513851C10.7549 0.502141 10.7626 0.48908 10.7707 0.476921C11.1678 -0.111252 11.179 -0.127015 11.7383 0.274258C11.9911 0.455754 12.3314 0.50169 12.5144 0.784517C12.152 1.08536 11.7843 1.3808 11.4282 1.6893C11.0929 1.97978 10.7703 2.28468 10.4422 2.58327H10.4417Z" fill="var(--fill-0, #1D1B2D)"/>
</svg>
