<svg preserveAspectRatio="none" width="100%" height="100%" overflow="visible" style="display: block;" viewBox="0 0 6 2" fill="none" xmlns="http://www.w3.org/2000/svg">
<path id="Vector" d="M5.4761 0.276523C4.9105 0.467026 4.32822 0.589975 3.74144 0.690406C3.20965 0.781379 2.73599 1.04484 2.22086 1.1849C1.96353 1.25471 1.70484 1.27092 1.4439 1.30335C1.02882 1.35469 0.580852 1.23625 0.195524 1.49565C0.131528 1.53889 0.0486044 1.53483 0.0107476 1.44386C-0.0153916 1.38126 0.00714263 1.32902 0.0675332 1.29524C0.131529 1.25966 0.195075 1.22363 0.259071 1.18806C1.00269 1.1142 1.72196 0.91919 2.44214 0.735893C3.36513 0.500804 4.30299 0.322009 5.20299 0C5.29492 0.0914235 5.42427 0.145918 5.47565 0.276974L5.4761 0.276523Z" fill="var(--fill-0, #EEDDBB)"/>
</svg>
