<svg preserveAspectRatio="none" width="100%" height="100%" overflow="visible" style="display: block;" viewBox="0 0 5 5" fill="none" xmlns="http://www.w3.org/2000/svg">
<path id="Vector" d="M0.681322 3.65239C0.497896 3.65239 0.443816 3.80641 0.352328 3.9208C0.280671 4.01043 0.17341 4.03655 0.0679516 3.98971C-0.0528296 3.93612 0.0215321 3.84154 0.0346017 3.75957C0.119329 3.24481 0.245067 2.74356 0.430746 2.25311C0.625438 1.7388 0.664196 1.1808 0.844016 0.657928C0.898548 0.4994 0.963445 0.355284 1.05268 0.221527C1.23565 -0.0513927 1.27351 -0.0261726 1.60566 0.055343C2.16044 0.192253 2.58318 0.571911 3.08162 0.792138C3.46425 0.961024 3.82299 1.25736 4.28493 1.22539C4.28538 1.88156 4.28944 2.53729 4.28493 3.19347C4.28268 3.54025 4.21733 3.6024 3.90005 3.55691C3.12083 3.44567 2.34116 3.33218 1.61693 2.99711C1.47361 2.93091 1.32714 2.94397 1.17932 2.93316C0.98643 2.9192 0.877366 2.97639 0.84672 3.19167C0.824186 3.34974 0.739008 3.49881 0.681322 3.65149V3.65239ZM1.57321 0.534529C1.58943 0.488142 1.58673 0.444006 1.54076 0.418786C1.48488 0.388161 1.42359 0.384558 1.38618 0.444457C1.35914 0.487691 1.38302 0.536332 1.42133 0.561552C1.47541 0.597131 1.5313 0.591275 1.57366 0.534529H1.57321ZM1.45063 2.53414C1.43485 2.46163 1.37987 2.45262 1.32128 2.46073C1.27937 2.46658 1.2316 2.48325 1.23295 2.53549C1.2343 2.59989 1.28072 2.64178 1.34021 2.64132C1.40015 2.64132 1.43666 2.59404 1.45063 2.53414Z" fill="var(--fill-0, #1D1B2D)"/>
</svg>
