<svg preserveAspectRatio="none" width="100%" height="100%" overflow="visible" style="display: block;" viewBox="0 0 1 1" fill="none" xmlns="http://www.w3.org/2000/svg">
<path id="Vector" d="M0.50747 0.00716354C0.736865 -0.0401245 0.820691 0.156236 0.92029 0.316114C0.983835 0.418797 0.941922 0.518777 0.849083 0.589034C0.731907 0.677755 0.581832 0.715584 0.481782 0.83493C0.422744 0.905186 0.34703 0.861051 0.279428 0.829525C0.106369 0.749361 -0.0360453 0.482297 0.00812097 0.317915C0.0585967 0.129213 0.255092 0.000860775 0.507921 0.00671548L0.50747 0.00716354ZM0.487641 0.563813C0.552989 0.554806 0.593099 0.520576 0.586339 0.451671C0.58048 0.390422 0.54713 0.331876 0.486289 0.329174C0.401111 0.32512 0.363254 0.390422 0.369564 0.469236C0.374972 0.534538 0.424095 0.562462 0.48719 0.563813H0.487641Z" fill="var(--fill-0, #33264F)"/>
</svg>
