<svg preserveAspectRatio="none" width="100%" height="100%" overflow="visible" style="display: block;" viewBox="0 0 7 2" fill="none" xmlns="http://www.w3.org/2000/svg">
<path id="Vector" d="M0.315922 1.75596C0.237053 1.69562 0.216774 1.78344 0.173058 1.81226C0.103203 1.8019 0.0414622 1.77668 0 1.71543C0.640411 1.29659 1.34797 1.01692 2.0695 0.787686C3.45353 0.348132 4.88127 0.120697 6.32659 0C6.501 0.0711572 6.70876 -0.0644004 6.86966 0.0887228C5.60326 0.304897 4.31973 0.428747 3.08262 0.801647C2.85864 0.81831 2.64907 0.880459 2.45393 0.991699H2.41112L2.37416 1.01332C2.2998 1.0007 2.234 1.01106 2.18983 1.08087L2.18803 1.08177C2.08888 1.08042 1.98838 1.07547 1.91763 1.16599L1.91402 1.16689C1.81172 1.16599 1.71076 1.16824 1.64001 1.26057H1.599L1.56384 1.28038C1.25829 1.32407 0.987881 1.45377 0.730995 1.61725C0.571456 1.60014 0.461039 1.73074 0.315922 1.75641V1.75596Z" fill="var(--fill-0, #171619)"/>
</svg>
