<svg preserveAspectRatio="none" width="100%" height="100%" overflow="visible" style="display: block;" viewBox="0 0 5 5" fill="none" xmlns="http://www.w3.org/2000/svg">
<path id="Vector" d="M0.0896848 0.000450802C0.137006 0.0351287 0.184327 0.0990805 0.244267 0.071158C0.403356 -0.00360213 0.529094 -0.0508913 0.518729 0.210769C0.516025 0.281926 0.561993 0.339123 0.658438 0.349031C1.31507 0.418837 1.92213 0.682299 2.55624 0.841727C2.78788 0.899824 3.01863 0.961973 3.25028 1.01827C3.40621 1.0561 3.54817 1.11059 3.69059 0.937204C3.7983 0.806148 3.98398 0.949813 4.02544 1.02367C4.09079 1.13987 4.17867 1.29885 4.12684 1.43936C4.06149 1.6168 3.83075 1.59923 3.70816 1.72128C3.54862 1.56951 3.49545 1.75776 3.43686 1.82532C2.84196 2.51212 2.25699 3.20748 1.66705 3.89924C1.51337 4.07983 1.38268 4.28294 1.17446 4.4113C1.17627 4.37887 1.17762 4.34644 1.17942 4.31402C1.17942 4.14874 1.35158 4.12937 1.42684 4.02354C1.9023 3.35745 2.45754 2.75667 2.98528 2.13337C3.12003 1.97394 3.27687 1.83072 3.39359 1.66003C3.57522 1.39387 3.55178 1.31866 3.24352 1.21463C2.41022 0.9336 1.56926 0.676895 0.71252 0.476484C0.445269 0.413884 0.364147 0.480087 0.261392 0.791738C0.235704 0.73274 0.209565 0.673743 0.183876 0.614745C0.11312 0.442707 0.111317 0.246797 0 0.08872C0.0297446 0.0589961 0.0594898 0.0297239 0.0892344 0L0.0896848 0.000450802Z" fill="var(--fill-0, #CCD1D7)"/>
</svg>
