<svg preserveAspectRatio="none" width="100%" height="100%" overflow="visible" style="display: block;" viewBox="0 0 7 12" fill="none" xmlns="http://www.w3.org/2000/svg">
<path id="Vector" d="M2.96724 8.72847C1.84145 9.54903 0.930633 10.5592 0.26904 11.7891C-0.0108297 11.8175 0.00223975 11.6265 0.00269043 11.4387C0.00449313 10.5398 0.014409 9.6409 0.000888715 8.74198C-0.00992751 8.00519 0.0779536 7.28416 0.266336 6.57348C0.38216 6.50098 0.391625 6.36767 0.417313 6.25913C0.511504 5.86371 0.680958 5.50027 0.85582 5.13773C1.43404 3.94067 2.12673 2.81251 2.91947 1.7465C3.43054 1.0597 4.04075 0.47243 4.75778 0C4.774 0.0986293 4.78347 0.209869 4.93084 0.166184C5.10074 0.115743 5.1102 0.247699 5.14986 0.34858C5.76819 1.09888 6.30269 1.90818 6.83494 2.71929C6.84215 2.74316 6.84982 2.76702 6.85748 2.79044C6.65242 3.01652 6.42032 3.22234 6.30134 3.51508L6.30314 3.51328C6.12648 3.58083 6.03589 3.74341 5.91241 3.86906C5.69608 4.08929 5.69924 4.09244 5.40089 3.97805C5.35537 4.12532 5.38196 4.27078 5.40134 4.41625C5.31481 4.46039 5.24631 4.36581 5.16293 4.38563C5.039 3.94382 5.26388 3.55516 5.44776 3.21333C5.64741 2.84269 5.66273 2.48555 5.67941 2.09914C5.69428 1.74605 5.42793 1.48124 5.46218 1.06646C5.24315 1.25021 5.19223 1.43215 5.12823 1.60959C4.70234 2.78729 4.28367 3.96679 3.93935 5.17151C3.85462 5.46785 3.68517 5.74347 3.62613 6.04296C3.44856 6.94954 3.16554 7.82865 2.96634 8.72892L2.96724 8.72847Z" fill="var(--fill-0, #33264F)"/>
</svg>
