<svg preserveAspectRatio="none" width="100%" height="100%" overflow="visible" style="display: block;" viewBox="0 0 5 6" fill="none" xmlns="http://www.w3.org/2000/svg">
<path id="Vector" d="M4.31703 0.781377C3.88618 0.841275 3.54367 1.09348 3.19845 1.32271C2.55218 1.75236 1.92664 2.21218 1.28488 2.64858C1.10821 2.76883 1.01763 2.9206 0.990137 3.12371C0.921184 3.63983 0.836455 4.15279 0.746771 4.66575C0.696746 4.95083 0.583627 5.29266 0.900002 5.53315C0.818429 5.65475 0.653029 5.68447 0.605258 5.58809C0.462393 5.29941 0.224887 5.37507 0 5.37237C0.0563345 5.0409 0.152779 4.71034 0.157737 4.37842C0.163595 3.99111 0.274461 3.58984 0.0869802 3.21243C0.231197 2.93456 0.283926 2.62831 0.329444 2.32657C0.367301 2.07617 0.483125 1.92395 0.704407 1.81766C1.31823 1.52267 1.88878 1.14797 2.48187 0.814704C2.98708 0.530975 3.48328 0.239593 4.02454 0.0315259C4.06375 0.0162136 4.10836 0.0144116 4.18273 0C4.22824 0.266614 4.27241 0.52377 4.31658 0.780926L4.31703 0.781377Z" fill="var(--fill-0, #1D1B2D)"/>
</svg>
