<svg preserveAspectRatio="none" width="100%" height="100%" overflow="visible" style="display: block;" viewBox="0 0 4 5" fill="none" xmlns="http://www.w3.org/2000/svg">
<path id="Vector" d="M0 4.57928C0.158187 4.01093 0.47411 3.50742 0.804005 3.04445C1.35653 2.26937 1.85228 1.45467 2.4332 0.699411C2.63375 0.438651 2.86359 0.209869 3.1331 0C3.29038 0.126552 3.25343 0.27472 3.2025 0.409829C3.08308 0.728235 2.96229 1.04574 2.70811 1.29299C2.57516 1.42179 2.64321 1.50061 2.80411 1.52493C2.58688 1.94827 2.14882 2.16219 1.86084 2.52023C1.35022 3.15479 0.678266 3.65649 0.305106 4.40454C0.278516 4.45768 0.258687 4.51443 0.235252 4.56937C0.156834 4.57253 0.0784177 4.57613 0 4.57928Z" fill="var(--fill-0, #0B152C)"/>
</svg>
