<svg preserveAspectRatio="none" width="100%" height="100%" overflow="visible" style="display: block;" viewBox="0 0 4 3" fill="none" xmlns="http://www.w3.org/2000/svg">
<path id="Vector" d="M0.0982471 0C0.726039 0.274721 1.35473 0.548091 1.98207 0.824613C2.62339 1.10789 3.26966 1.38081 3.87807 1.73344C3.99164 1.89287 3.9673 2.07527 3.9628 2.25406H3.92584H3.88889C3.88843 2.22299 3.87717 2.19641 3.85508 2.17435C3.84923 2.07977 3.92629 1.98069 3.84111 1.89017C3.27687 1.52222 2.64186 1.3002 2.03435 1.02142C1.49264 0.772371 0.939209 0.548089 0.389835 0.316152C0.251928 0.258056 0.114472 0.20176 0 0.10223C0.00135203 0.0689035 0.00315501 0.0360289 0.00450704 0.00270206C0.0360544 0.0022517 0.0671509 0.00134922 0.0986982 0.000898855L0.0982471 0Z" fill="var(--fill-0, #CCD1D7)"/>
</svg>
