<svg preserveAspectRatio="none" width="100%" height="100%" overflow="visible" style="display: block;" viewBox="0 0 17 7" fill="none" xmlns="http://www.w3.org/2000/svg">
<path id="Vector" d="M0.0865291 5.94478C0.405157 5.46064 0.79995 5.04676 1.2362 4.6662C2.57471 3.49841 4.13045 2.72604 5.80876 2.19777C7.53711 1.65373 9.31773 1.32947 11.1029 1.03493C12.7406 0.764714 14.3757 0.487292 15.9882 0C16.0851 0.148169 15.9882 0.354884 16.122 0.488642C15.9675 0.540884 15.8138 0.594927 15.6587 0.645818C14.8142 0.924142 13.9592 1.16238 13.0795 1.3029C12.6847 1.39207 12.2899 1.48124 11.8951 1.57041C11.8086 1.57176 11.7221 1.57267 11.636 1.57402C11.5364 1.56411 11.4364 1.5524 11.357 1.63527C10.1893 1.75461 9.0311 1.93431 7.87827 2.15048C7.97156 2.1802 8.06169 2.18966 8.14958 2.17885C8.94772 2.08157 9.74497 1.97889 10.5427 1.88116C10.9997 1.82532 11.4598 1.79334 11.9042 1.66003C12.2237 1.65463 12.5324 1.5524 12.8551 1.5578C12.9673 1.5596 13.0759 1.4907 13.1606 1.40423C13.3076 1.38171 13.4545 1.36009 13.6014 1.33622C14.5163 1.1876 15.3974 0.903427 16.2897 0.664284C16.4289 0.979538 16.6854 1.23129 16.785 1.56861C16.6327 1.53664 16.4925 1.58843 16.3492 1.62851C15.6497 1.82487 14.9494 2.01852 14.2495 2.21308C14.2049 2.21713 14.1593 2.21623 14.1161 2.22614C13.1422 2.45537 12.1777 2.74811 11.1565 2.66569C11.0087 2.65353 10.8554 2.65444 10.7144 2.72244C10.2299 2.74451 9.74948 2.79675 9.27627 2.90484C7.83095 3.02553 6.40321 3.25297 5.01918 3.69252C4.29765 3.92175 3.59008 4.20143 2.94967 4.62026C2.28853 4.94092 1.69815 5.36156 1.18032 5.88263C1.04061 5.91911 0.971656 6.04026 0.880169 6.13393C0.644015 6.21905 0.562441 6.47486 0.363693 6.60141C0.237053 6.60817 0.127089 6.5942 0.0964426 6.43793C0.0712047 6.30822 0.0342508 6.18122 0.00225283 6.05287L0 6.05692C0.0585879 6.04206 0.088781 6.00513 0.0878797 5.94388L0.0865291 5.94478ZM13.7889 1.53844C14.6249 1.39612 15.4668 1.27723 16.2325 0.872802C15.4158 1.08627 14.5879 1.25921 13.7889 1.53844Z" fill="var(--fill-0, #EEDDBB)"/>
</svg>
