<svg preserveAspectRatio="none" width="100%" height="100%" overflow="visible" style="display: block;" viewBox="0 0 10 3" fill="none" xmlns="http://www.w3.org/2000/svg">
<path id="Vector" d="M9.29024 2.54338C7.75569 2.12769 6.17967 2.03447 4.60276 1.95205C4.57617 1.9507 4.54867 1.97232 4.52163 1.98313C4.46891 1.97817 4.41618 1.97322 4.36345 1.96826C4.21517 1.86513 4.05203 1.89485 3.88979 1.91422C2.55804 1.78496 1.25874 1.52556 0 0.958551C0.100951 0.679777 0.203255 0.405958 0.298799 0.129435C0.352429 -0.0259398 0.445719 -0.0155814 0.577767 0.0281037C1.90276 0.466306 3.26605 0.60907 4.65639 0.575743C5.26976 0.560881 5.88448 0.518548 6.4983 0.568088C6.64252 0.677526 6.77952 0.810383 6.83045 0.976567C6.89264 1.17833 7.02559 1.30263 7.17612 1.41657C7.1635 1.45485 7.16305 1.49313 7.14457 1.50574C7.04001 1.57735 6.82594 1.52511 6.82459 1.69264C6.82324 1.89801 7.03461 1.78226 7.14367 1.83135C7.48123 1.98403 7.81833 2.11868 8.20862 2.02231C8.30596 1.99844 8.44883 2.06509 8.53986 2.13174C8.69625 2.24614 8.8612 2.27811 9.04372 2.2673C9.24382 2.25559 9.30917 2.36143 9.28979 2.54383L9.29024 2.54338Z" fill="var(--fill-0, #EEDDBB)"/>
</svg>
