<svg preserveAspectRatio="none" width="100%" height="100%" overflow="visible" style="display: block;" viewBox="0 0 3 5" fill="none" xmlns="http://www.w3.org/2000/svg">
<path id="Vector" d="M2.33016 0C2.32385 0.0441355 2.32835 0.093676 2.30942 0.131506C1.77357 1.20247 1.28369 2.29595 0.684737 3.33493C0.542774 3.58128 0.421993 3.84024 0.285888 4.09019C0.216034 4.21809 0.181782 4.37797 0.0154827 4.43021C-0.0588789 4.11901 0.152488 3.88843 0.270114 3.64568C0.377375 3.42456 0.491398 3.19892 0.637417 2.9895C0.810026 2.74226 0.967762 2.4815 1.05564 2.1703C1.14533 1.85234 1.35219 1.56186 1.53471 1.27678C1.72129 0.985393 1.88173 0.685902 1.97502 0.353985C2.0282 0.165734 2.126 0.0324261 2.32971 0H2.33016Z" fill="var(--fill-0, #2C1644)"/>
</svg>
