<svg preserveAspectRatio="none" width="100%" height="100%" overflow="visible" style="display: block;" viewBox="0 0 5 4" fill="none" xmlns="http://www.w3.org/2000/svg">
<path id="Vector" d="M0.59113 3.25522C0.384269 3.20613 0.230587 3.37411 0.0142621 3.39978C-0.0312562 3.22865 0.0399505 3.08678 0.118368 2.95483C0.605549 2.13742 0.944459 1.24345 1.4384 0.429197C1.52989 0.278325 1.46184 0.0202663 1.7399 0C1.79579 0.0815156 1.89178 0.0846686 1.9711 0.121598C2.24196 0.246799 2.27936 0.436403 2.02743 0.562054C1.79984 0.675545 1.67726 0.873253 1.50149 1.02548C1.34195 1.16329 1.25092 1.32136 1.34827 1.53619C1.38162 1.61005 1.34601 1.6794 1.3397 1.75191C1.31537 2.02753 1.38612 2.08968 1.6723 2.02573C1.89629 1.97574 2.11171 1.96673 2.33119 2.04194C2.51912 2.10635 2.71697 2.05816 2.90851 2.07752C3.14782 2.10139 3.4047 1.9235 3.62778 2.13742C4.00635 2.05771 4.32273 1.89558 4.50886 1.52943C4.59899 1.35199 4.63144 1.1142 4.89328 1.07817C4.8374 1.35379 4.7734 1.62806 4.72879 1.90593C4.68958 2.15003 4.57195 2.24461 4.31506 2.26983C3.48627 2.35224 2.67145 2.51482 1.87736 2.77423C1.538 2.88502 1.24236 3.09399 0.893983 3.18406C0.793482 3.20973 0.696586 3.24666 0.592029 3.25522H0.59113Z" fill="var(--fill-0, #33264F)"/>
</svg>
