<svg preserveAspectRatio="none" width="100%" height="100%" overflow="visible" style="display: block;" viewBox="0 0 12 9" fill="none" xmlns="http://www.w3.org/2000/svg">
<path id="Vector" d="M8.93762 0.00276536C8.8209 0.150034 8.68299 0.241459 8.53381 0.280641C7.97543 0.427909 7.41794 0.568871 6.87127 0.76613C6.49946 0.900338 6.09881 0.974647 5.71393 1.08904C5.51068 1.14939 5.35655 1.20388 5.35069 1.46014C5.34393 1.75648 4.89821 1.89519 5.03972 2.25278C5.1596 2.55587 5.04783 2.84275 4.99375 3.13233C4.94418 3.3967 4.89641 3.65746 4.90317 3.92992C4.90767 4.11592 4.92886 4.31544 5.03161 4.44379C5.27047 4.74328 5.30833 5.08916 5.36511 5.43954C5.37908 5.52601 5.41243 5.61428 5.45705 5.68949C5.57648 5.8917 5.76847 5.93899 5.94017 5.7566C6.2277 5.4517 6.51253 5.46251 6.86992 5.61383C7.1917 5.74984 7.54413 5.7039 7.88439 5.63319C8.14623 5.5787 8.39951 5.47557 8.67578 5.49629C8.73256 5.50034 8.80197 5.48908 8.84839 5.4589C9.27924 5.17698 9.79841 5.22967 10.2631 5.0788C10.4226 5.02701 10.5677 5.05718 10.6678 5.18959C10.8359 5.41207 11.0689 5.42468 11.3131 5.41702C11.0806 5.7012 10.7358 5.82415 10.428 5.98043C9.75515 6.3227 9.05525 6.61273 8.36481 6.92123C8.31298 6.94465 8.24944 6.9424 8.1913 6.95231C8.03897 6.96672 7.83527 6.85908 7.78885 7.12254C7.74423 7.18875 7.67753 7.20496 7.60317 7.20361C7.42515 7.05229 7.32916 7.15317 7.25299 7.31665L7.2575 7.31035C7.22775 7.30855 7.19756 7.30269 7.16827 7.30629C6.48189 7.38555 5.86085 7.67919 5.21909 7.90392C5.1934 7.91293 5.1898 7.98363 5.17583 8.02597L5.14653 8.03813L5.11544 8.03137C4.98474 8.02912 4.84864 8.0021 4.7256 8.03093C4.5566 8.07011 4.33306 8.04263 4.27763 8.28853C4.22174 8.29799 4.16631 8.3079 4.11043 8.31736C4.0586 8.22683 3.97838 8.19261 3.88284 8.22728C3.48714 8.37095 3.0608 8.3696 2.66196 8.48984C2.45374 8.55289 2.26356 8.57316 2.05039 8.5002C1.88319 8.443 1.67993 8.41869 1.54022 8.56415C1.33156 8.78168 1.08414 8.76772 0.832659 8.71547C0.705118 8.6889 0.603718 8.66638 0.516286 8.78798C0.371619 8.98839 0.187742 8.93255 0.00476728 8.87851C-0.0339909 8.6826 0.178278 8.54974 0.11248 8.39346C-0.0213713 8.07506 0.0687651 7.76881 0.141775 7.47203C0.267063 6.96131 0.163857 6.42763 0.335114 5.92368C0.625349 5.07069 0.603718 4.16592 0.753343 3.28906C0.76506 3.22106 0.750186 3.13008 0.711878 3.07514C0.58614 2.89499 0.641124 2.70674 0.660503 2.51849L0.667713 2.52614C0.84573 2.532 1.03727 2.57118 1.11974 2.34195V2.346C1.24638 2.33924 1.3924 2.4023 1.47983 2.24918L1.47713 2.25278C1.58123 2.25998 1.6903 2.28295 1.75024 2.16L1.74798 2.16406C1.8566 2.16856 1.97422 2.19423 2.01749 2.04741C2.0558 2.02579 2.0923 1.99607 2.13331 1.98346C4.19696 1.35926 6.2597 0.733255 8.3265 0.120312C8.52165 0.0622153 8.72355 -0.0156995 8.93807 0.00276536H8.93762Z" fill="var(--fill-0, #1D1B2D)"/>
</svg>
