<svg preserveAspectRatio="none" width="100%" height="100%" overflow="visible" style="display: block;" viewBox="0 0 45 47" fill="none" xmlns="http://www.w3.org/2000/svg">
<path id="Vector" d="M43.3502 44.1095C43.2898 44.2144 43.2163 44.3148 43.2307 44.4464C43.1027 44.6414 43.1127 44.8692 43.078 45.0863C42.9892 45.3818 42.7765 45.5907 42.5651 45.7952C42.3848 45.9695 42.2059 46.1496 41.9837 46.2748C41.9567 45.6299 42.3199 45.0832 42.4357 44.4738C42.616 44.4567 42.616 44.3293 42.607 44.1955C42.7007 43.8685 42.7945 43.542 42.8878 43.2151C42.9621 43.2047 43.0635 43.1934 43.0789 43.1236C43.1627 42.7507 43.4394 42.4418 43.4344 42.0414C43.4691 42.0139 43.5038 41.986 43.539 41.9586C43.6562 41.868 43.722 41.7523 43.6494 41.6118C43.571 41.4587 43.443 41.4312 43.274 41.4816C43.1199 41.528 42.9509 41.5194 42.8003 41.5897C42.7967 41.4208 42.7372 41.3267 42.5421 41.3172C42.2289 41.3015 41.9328 41.3686 41.638 41.451C41.5092 41.487 41.387 41.5402 41.2694 41.4307C41.4181 41.3289 41.5988 41.3362 41.7615 41.2835C41.9968 41.2078 41.9977 41.183 41.8007 40.961C41.7494 40.8299 41.62 40.7755 41.5281 40.684C41.5173 40.6016 41.4627 40.5521 41.3974 40.5106C41.3221 40.4156 41.2469 40.3201 41.1716 40.2251C41.1779 40.1801 41.1626 40.1531 41.1135 40.1522C40.9891 40.0265 40.9634 39.8477 40.8728 39.7036C40.8575 39.6338 40.8169 39.5996 40.7435 39.6122C40.6439 39.2748 40.3874 39.0235 40.2486 38.7083C40.1927 38.6497 40.1368 38.5907 40.0814 38.5322C39.948 38.3984 40.0445 38.1917 39.9476 38.0436C38.335 38.5304 36.6995 38.8083 35.0622 39.0785C33.2771 39.373 31.4965 39.6973 29.7681 40.2413C28.0898 40.7696 26.5345 41.542 25.1956 42.7098C24.7593 43.0903 24.3645 43.5037 24.0459 43.9883C23.9896 44.005 23.9603 44.0428 23.958 44.1014L23.9603 44.0973C23.9323 44.0924 23.9057 44.0969 23.881 44.1099C23.7723 44.1248 23.7737 44.2027 23.7814 44.2838C23.6903 44.431 23.5988 44.5783 23.5078 44.7256C23.378 44.7265 23.2261 44.8017 23.15 44.6202C23.9057 42.9048 25.1316 41.6059 26.7265 40.6521C28.3589 39.6757 30.1724 39.3041 32.0409 39.1713C33.5232 39.0659 34.9955 38.9078 36.4318 38.5182C36.9704 38.3723 37.5225 38.244 38.0187 37.9629C37.8623 37.5959 37.7172 37.255 37.5617 36.8897C37.1516 37.0825 36.732 37.1807 36.3129 37.2811C35.0131 37.5936 33.6935 37.5729 32.3735 37.5018C31.3514 37.4464 30.3324 37.4387 29.326 37.6378C27.608 37.9783 26.0248 38.6106 24.7404 39.8527C23.1387 41.4024 22.2198 43.2542 22.2324 45.5187C22.2342 45.8186 22.2234 46.1181 22.2189 46.418C22.1688 46.4266 22.1188 46.4347 22.0688 46.4433C22.0332 46.1127 22.0557 45.7772 21.9832 45.4498C22.0188 45.0273 21.9669 44.6121 21.8858 44.1987C21.9065 44.1153 21.9034 44.0356 21.8493 43.9636C21.7889 43.47 21.6411 42.9975 21.4437 42.5472C20.0872 39.4514 17.667 37.8751 14.3361 37.6157C13.9548 37.5049 13.5668 37.5247 13.1778 37.5527C12.9922 37.5247 12.8065 37.5274 12.6208 37.5527C12.0065 37.5031 11.3923 37.5455 10.7789 37.5603C9.38856 37.5936 8.02481 37.4509 6.70027 37.0127C6.56822 36.969 6.47493 36.9582 6.4213 37.114C6.32576 37.3901 6.22346 37.6643 6.12251 37.9431C7.38124 38.5101 8.68054 38.7695 10.0123 38.8988C10.1637 38.9727 10.321 38.9961 10.486 38.9528C10.5387 38.9578 10.5914 38.9627 10.6441 38.9677C10.9641 39.1424 11.3292 39.0073 11.7483 39.1258C11.5081 39.187 11.3472 39.2285 11.1863 39.2694C11.0669 39.2604 10.9465 39.2591 10.828 39.2415C9.18755 38.9965 7.53447 38.8303 5.91249 38.4664C5.4537 38.3633 4.99446 38.2602 4.53568 38.157C4.43292 38.0724 4.31439 38.044 4.1526 38.0494C4.16973 38.3246 3.90969 38.516 3.96241 38.8006C3.89932 38.8529 3.82766 38.8988 3.8227 38.9929C3.72265 39.1208 3.59061 39.2307 3.5888 39.4131C3.50678 39.5343 3.42476 39.6549 3.34274 39.7761C3.22691 39.9157 3.09847 40.0481 3.08405 40.2436L3.05701 40.2598L3.05836 40.2913C2.99842 40.3593 2.93803 40.4273 2.87809 40.4958C2.80328 40.5363 2.73748 40.5854 2.719 40.6759C2.57839 40.8281 2.43778 40.9804 2.28094 41.1497C2.50898 41.256 2.73658 41.2659 2.91279 41.3988C2.76587 41.4028 2.6185 41.4073 2.47158 41.4109C2.24624 41.4166 2.11765 41.5387 2.0858 41.7771C1.85235 41.7924 1.65721 41.6631 1.44313 41.6064C1.2561 41.5568 1.07493 41.487 0.875734 41.4924C0.684647 41.4978 0.603074 41.6095 0.608032 41.7775C0.612088 41.9113 0.723856 41.9793 0.841482 42.0198C1.13622 42.122 1.43187 42.2207 1.72751 42.3206C1.51299 42.4418 1.26602 42.1815 1.05781 42.3769C1.06547 42.6625 1.17453 42.9156 1.27774 43.1786C1.56482 43.9082 1.84018 44.6436 2.07588 45.3903C2.18585 45.7393 2.38279 46.0726 2.3562 46.4599C1.97043 46.2154 1.67433 45.8717 1.3512 45.5578C1.2196 45.4299 1.36246 45.2331 1.22726 45.1111C1.09747 44.3982 0.830215 43.7334 0.516094 43.0849C0.379088 42.8021 0.243435 42.5184 0.104627 42.2364C-0.0206614 41.9811 -0.017056 41.7086 0.0307157 41.4433C0.129864 40.8894 0.64003 40.5624 1.2232 40.7381C1.59141 40.8493 1.76176 40.7192 1.96367 40.4516C2.70863 39.4644 3.19041 38.3831 3.39591 37.1518C3.6839 35.4256 4.0494 33.7124 4.38199 31.9938C4.39056 31.9497 4.40588 31.9069 4.41399 31.8628C4.51675 31.2985 4.50638 31.3174 3.99576 31.0377C2.93758 30.4581 3.04889 30.3451 3.56582 29.5578C4.50368 28.1306 5.38655 26.6706 6.23157 25.1871C6.23878 25.174 6.24689 25.1614 6.2532 25.1479C6.88505 23.8243 7.89096 22.8781 9.19161 22.2241C9.56567 22.0359 9.92216 21.8111 10.3012 21.6342C10.463 21.5585 10.5017 21.477 10.4544 21.3257C10.2795 20.7641 10.4138 20.2254 10.5923 19.6967C10.9091 18.7581 11.3756 17.8835 11.7929 16.9887C12.7912 14.8476 13.5109 12.6184 13.9827 10.3048C14.2608 8.9407 14.5001 7.56709 14.8832 6.22546C15.0337 5.69764 15.2757 5.22386 15.657 4.82439C17.0568 3.35756 18.5278 1.97134 20.2039 0.817064C20.5378 0.586929 20.8898 0.391471 21.2576 0.221235C21.9624 -0.105278 22.6488 -0.062944 23.3275 0.299147C23.8057 0.554052 24.2483 0.861199 24.671 1.19672C25.7657 2.06502 26.777 3.02294 27.7329 4.04211C28.2989 4.64559 28.6942 5.33555 28.9191 6.12999C29.4851 8.13185 30.0426 10.136 30.628 12.132C31.1959 14.0699 31.7768 16.0051 32.7178 17.8065C32.981 18.3105 33.2906 18.7879 33.5299 19.3062C33.8224 19.9399 33.9572 20.5857 33.7778 21.2676C33.7336 21.436 33.7719 21.5189 33.8999 21.5959C34.0144 21.6648 34.1257 21.7404 34.2447 21.8008C34.8729 22.1187 35.4863 22.4619 36.083 22.8366C36.599 23.1604 37.0384 23.5599 37.367 24.0751C38.5176 25.8815 39.674 27.6843 40.8129 29.4984C41.3054 30.2834 41.2532 30.4243 40.4442 30.8873C39.8583 31.2224 39.8516 31.2237 39.9751 31.8709C40.3054 33.6048 40.643 35.3369 40.9765 37.0703C41.0612 37.5112 41.168 37.9494 41.2203 38.3939C41.3082 39.1438 41.6962 39.736 42.1496 40.3012C42.2528 40.4296 42.3681 40.5489 42.4664 40.6804C42.5565 40.8011 42.6449 40.87 42.8066 40.8016C42.9008 40.7619 43.0162 40.7764 43.1149 40.7439C43.7391 40.5404 44.466 41.1677 44.2227 42.0243C44.174 42.195 44.073 42.3504 44.0063 42.5166C43.8518 42.9016 43.5877 43.2394 43.5129 43.6587C43.4619 43.7078 43.4299 43.7645 43.4426 43.8384C43.4353 43.8676 43.4286 43.8965 43.4214 43.9257C43.365 43.9744 43.3353 44.0325 43.3511 44.1086L43.3502 44.1095ZM26.7581 27.2785V27.2776C26.9532 27.1452 27.1889 27.0624 27.3002 26.8295C27.3313 26.8007 27.3624 26.7719 27.3935 26.7435C27.7189 26.6053 27.9965 26.4048 28.2088 26.1193H28.2101C28.4625 26.0279 28.6586 25.8595 28.8325 25.6617C29.3729 25.278 29.9029 24.8813 30.3671 24.4048C30.3968 24.3751 30.4266 24.3458 30.4568 24.3161C30.7006 24.1102 31.0084 23.9765 31.1756 23.6838C31.2608 23.6513 31.3225 23.5941 31.3599 23.5108C31.5767 23.3663 31.7579 23.1861 31.9016 22.9681L31.9007 22.969C32.6322 22.3106 33.0671 21.4995 33.1374 20.5128C33.1559 20.2493 33.1338 19.975 32.9175 19.7701C32.9111 19.6949 32.9048 19.6201 32.8985 19.5449C32.8634 19.2553 32.7363 19.0085 32.5475 18.791C32.5515 18.7703 32.5475 18.7509 32.5357 18.7334C32.4303 18.4578 32.3419 18.1727 32.0995 17.9759C32.09 17.9295 32.0801 17.8831 32.0706 17.8367C32.0576 17.6935 32.0003 17.5723 31.8899 17.4787C31.871 17.2913 31.7394 17.1643 31.6434 17.0179C31.6303 16.922 31.6326 16.8207 31.5438 16.7536C31.5109 16.6644 31.4775 16.5748 31.4446 16.4856C31.4383 16.4374 31.4158 16.4018 31.3676 16.3861L31.3734 16.3807C31.282 15.8137 31.0535 15.2935 30.8205 14.7747C30.7619 14.5945 30.7028 14.4144 30.6442 14.2347C30.5045 13.6519 30.3153 13.0845 30.1052 12.5238C30.094 12.4657 30.0823 12.408 30.071 12.3499C30.0723 12.3351 30.0778 12.3189 30.0741 12.3054C29.6 10.5755 29.1246 8.84567 28.6523 7.11538C28.6266 7.02215 28.5847 6.95145 28.5004 6.90551C28.3967 5.93678 27.965 5.12118 27.3246 4.4051C26.7783 3.79441 26.1925 3.2211 25.5795 2.67976C25.1591 2.30821 24.7638 1.89793 24.2586 1.62997C24.1946 1.52593 24.1072 1.45658 23.9833 1.43811C23.9517 1.41379 23.9202 1.38947 23.8891 1.3656C23.5542 1.06251 23.154 0.867955 22.7597 0.657185C22.3297 0.42705 21.9219 0.471186 21.5167 0.678352C20.9565 0.964783 20.4216 1.294 19.9263 1.68446C18.7248 2.63202 17.6039 3.66831 16.5566 4.7816C16.2916 5.06308 16.0401 5.36032 15.8193 5.68323C15.4794 6.18043 15.3726 6.75689 15.2491 7.32164C15.0004 8.45881 14.7881 9.60408 14.5547 10.7444C14.396 11.5195 14.2261 12.2923 14.0612 13.066C13.9638 13.3921 13.7759 13.6934 13.7899 14.0505C13.6127 14.1329 13.6091 14.3185 13.5555 14.4671C13.1418 15.6205 12.6393 16.7365 12.1336 17.8511C11.838 18.5032 11.5311 19.15 11.3449 19.8458C11.2003 20.3853 11.1142 20.9109 11.3215 21.4689C11.4518 21.8188 11.651 22.135 11.7591 22.4916C11.8163 22.6799 11.9344 22.8276 12.0489 22.9866C12.2787 23.3064 12.5983 23.5428 12.825 23.8553C13.227 24.4097 13.7615 24.8245 14.2942 25.2213C15.0801 25.8063 15.9279 26.308 16.7458 26.8503C16.8707 26.9331 17.0009 26.9214 17.1343 26.9223C17.2159 26.9565 17.2749 27.0151 17.3169 27.0916C17.4863 27.4988 17.7919 27.7352 18.2236 27.814C18.4449 27.9194 18.6256 28.0797 18.7793 28.2639C19.4932 29.1205 20.2805 29.9249 20.7375 30.9675C20.765 31.0589 20.7929 31.1508 20.8204 31.2422C20.6568 31.2597 20.5194 31.2057 20.4319 31.0674C20.1665 30.6464 19.8055 30.3077 19.4819 29.9361C18.9136 29.2827 18.2682 28.7206 17.5904 28.1896C16.4497 27.2966 15.2153 26.5345 14.0571 25.6653C13.437 25.2001 12.8975 24.6331 12.2314 24.2264C12.1827 24.1967 12.1517 24.1386 12.1133 24.0922C11.6875 23.5752 11.1994 23.1086 10.8605 22.5209C10.7564 22.3408 10.5991 22.311 10.3976 22.4119C9.75631 22.7335 9.10283 23.0451 8.52641 23.4653C8.17444 23.722 7.80849 23.9923 7.54394 24.3706C7.09822 25.0078 6.68089 25.6653 6.3154 26.3454C5.6493 27.5857 4.87143 28.7517 4.0886 29.9163C3.97143 30.0906 4.03678 30.1519 4.17964 30.2167C4.50593 30.3649 4.82231 30.5563 5.1504 30.6725C6.03282 30.9855 6.79852 31.5196 7.64264 31.902C8.20824 32.1582 8.76302 32.4523 9.30789 32.7608C9.54765 32.8968 9.79146 33.0499 10.0677 33.1342C10.7811 33.3512 11.3607 33.793 11.9092 34.2799C11.9826 34.3452 11.9993 34.4348 11.9948 34.5262C11.9669 35.1257 12.039 35.7192 12.0813 36.3151C12.1147 36.7816 12.2044 36.9032 12.7186 36.9992C13.4473 37.0271 14.1747 37.0055 14.9062 37.0753C15.735 37.1545 16.5119 37.3878 17.27 37.6824C17.9302 37.9391 18.5805 38.2408 19.1511 38.6808C19.2205 38.7344 19.3147 38.8258 19.4287 38.7317C19.3818 38.334 19.335 37.9391 19.2886 37.5437C19.2949 37.1545 19.1389 36.7929 19.0952 36.4119C19.0794 36.2741 18.9483 36.2903 18.8487 36.275C18.8473 36.2191 18.8455 36.1628 18.8442 36.107C19.0335 36.0759 19.056 35.9386 18.9902 35.808C18.9199 35.6692 18.8613 35.4972 18.6666 35.4666C18.6657 35.3495 18.6648 35.2324 18.6639 35.1148C18.8451 35.0203 18.8352 34.8735 18.8149 34.6933C18.7676 34.2781 18.5657 33.8935 18.5724 33.471C18.5792 33.0351 18.4886 32.6131 18.4192 32.187C18.3471 31.7452 18.4489 31.2899 18.3146 30.8517C18.2989 30.8008 18.3444 30.7378 18.4183 30.7301C18.4877 30.7229 18.5328 30.7585 18.5517 30.8202C18.5648 30.8621 18.5643 30.9089 18.5679 30.9535C18.6409 31.8146 18.8253 32.6586 18.9551 33.5111C19.0078 33.8579 19.0357 34.2231 19.2958 34.51C19.3909 34.6149 19.4012 34.7541 19.2962 34.8802C19.1655 35.0374 19.2088 35.2076 19.2421 35.3905C19.33 35.8728 19.4265 36.3569 19.4607 36.8447C19.4968 37.3518 19.6906 37.8341 19.6689 38.348C19.6653 38.4286 19.728 38.5164 19.7717 38.5943C20.0277 39.0501 20.2895 39.5032 20.5441 39.9598C20.6081 40.0742 20.6861 40.1503 20.8231 40.1494C20.8177 40.2819 20.8182 40.4102 20.9975 40.4242C21.1949 40.8187 21.4942 41.1574 21.6375 41.5816C21.6551 41.8099 21.8344 41.9698 21.8935 42.1833C21.9264 42.3022 22.0309 42.2986 22.1486 42.2797C22.501 42.2229 22.5699 41.9608 22.6186 41.6757C23.2802 40.4462 24.191 39.4361 25.3173 38.6155C25.6958 38.4219 26.0748 38.2296 26.4507 38.0309C26.4805 38.0152 26.485 37.9521 26.5007 37.9111C26.6053 37.9026 26.7026 37.8661 26.8027 37.84C27.1511 37.7504 27.4467 37.541 27.7861 37.4302C28.5806 37.1708 29.3954 37.0077 30.2238 36.9258C30.4807 36.9001 30.5983 36.8055 30.6375 36.5619C30.6821 36.2844 30.7466 36.0102 30.802 35.7341C30.8092 35.6472 30.8164 35.5603 30.8236 35.4733C30.9638 35.2243 31.0034 34.9518 31.0079 34.6717C31.0918 34.5947 31.0773 34.4915 31.081 34.3938C31.1616 34.3524 31.1733 34.2835 31.1562 34.2033C31.1544 33.8628 31.3793 33.5692 31.3586 33.2251C31.4703 33.0918 31.5136 32.9346 31.5208 32.7649C31.5244 32.709 31.5276 32.6532 31.5312 32.5973C31.6524 32.3429 31.7444 32.0808 31.7277 31.7925C31.8304 31.6795 31.7975 31.4876 31.9526 31.4043C32.0891 31.4304 32.1549 31.4786 32.1089 31.6466C31.9381 32.2749 31.7836 32.9076 31.6267 33.5395C31.5339 33.9128 31.446 34.2871 31.3613 34.6622C31.3451 34.7338 31.3428 34.823 31.4032 34.8726C31.473 34.9297 31.5429 34.8784 31.5965 34.8244C31.7232 34.6969 31.8539 34.5861 32.0386 34.5393C32.1648 34.5073 32.2924 34.4447 32.3474 34.3037C32.707 34.1898 32.9729 33.9061 33.3195 33.7669C33.447 33.7156 33.5444 33.6223 33.6115 33.5003C34.3772 33.0666 35.1524 32.6482 35.9063 32.1951C37.2034 31.4165 38.5405 30.718 39.9286 30.1163C40.3311 29.942 40.3721 29.8461 40.149 29.4921C39.0665 27.7735 37.9975 26.045 36.8235 24.3868C36.3647 23.7387 35.7184 23.3077 34.959 23.0568C34.7765 22.7736 34.4358 22.7281 34.183 22.5466C33.6237 22.1453 33.6124 22.1611 33.2154 22.7493C33.2068 22.7619 33.1991 22.7745 33.1901 22.7862C32.479 23.6576 31.6939 24.457 30.7925 25.1317C30.2337 25.5501 29.6239 25.9027 29.0664 26.3175C28.1944 26.9664 27.2921 27.5762 26.4741 28.304C25.8261 28.8805 25.1902 29.4529 24.6439 30.1307C24.4497 30.3721 24.3204 30.7139 23.9589 30.7945C24.0581 30.3356 24.3758 29.9902 24.5881 29.5898C24.8909 29.0196 25.4439 28.6472 25.7765 28.1005H25.7778C26.0298 28.0338 26.1744 27.8438 26.306 27.6397C26.3876 27.6028 26.4539 27.5492 26.494 27.4677C26.6206 27.46 26.713 27.4037 26.7567 27.2799L26.7581 27.2785ZM33.1581 35.7427C33.2271 35.7089 33.2929 35.6629 33.3105 35.5882C33.3753 35.313 33.3298 35.0293 33.3839 34.7478C33.4132 34.5951 33.2266 34.5397 33.0878 34.6154C32.8796 34.7289 32.6881 34.8712 32.4844 34.9937C32.3546 35.0716 32.2176 35.1446 32.1784 35.3013C32.0999 35.6148 31.8989 35.8543 31.7178 36.107C31.5632 36.2457 31.4063 36.3817 31.2554 36.5245C31.1819 36.5943 31.0805 36.6677 31.1373 36.7879C31.1882 36.8956 31.3013 36.9041 31.409 36.9046C31.7822 36.9068 32.1554 36.9086 32.5285 36.9131C33.1604 36.9203 33.0473 36.8816 33.0747 36.3759C33.1892 36.3515 33.2942 36.3232 33.1541 36.1903C33.1554 36.0412 33.1572 35.8917 33.1586 35.7427H33.1581ZM35.0501 34.4861C34.7481 35.2288 34.5435 36.0048 34.2767 36.7596C34.2668 36.787 34.2609 36.8172 34.2596 36.846C34.256 36.9122 34.2866 36.9685 34.3502 36.9793C34.512 37.0068 34.6792 37.0262 34.8333 36.9559C34.9613 36.8974 34.9581 36.7654 34.9631 36.6456C35.1875 36.6483 35.425 36.5727 35.5683 36.8614C35.6161 36.9573 35.7811 36.9276 35.8631 36.806C36.4647 36.6826 37.0443 36.4889 37.6122 36.257C37.9384 36.1237 38.0281 36.1741 38.1201 36.5083C38.2111 36.8388 38.2837 37.1739 38.4423 37.4842C38.5293 37.6549 38.6433 37.7351 38.829 37.7224C38.9385 37.8481 38.9836 37.7742 39.016 37.6621C39.4036 37.5936 39.7912 37.5252 40.1788 37.4567C40.1905 37.5635 40.1594 37.69 40.3072 37.7445C40.3987 37.6409 40.3491 37.5288 40.3442 37.4221C40.3027 37.2802 40.2617 37.1379 40.2202 36.996C40.254 36.9271 40.2428 36.8681 40.1806 36.8208C40.1752 36.76 40.1697 36.6997 40.1643 36.6389C40.0981 36.3718 40.1229 36.0863 39.9962 35.8318C40.0025 35.7314 40.0143 35.6287 39.9151 35.5598C39.9309 35.4008 39.8529 35.2608 39.825 35.1103C39.8024 34.6469 39.7128 34.197 39.5514 33.7611C39.5438 33.7021 39.5361 33.6431 39.5284 33.5841C39.5469 33.4818 39.5586 33.3819 39.4536 33.3138L39.4396 33.1333C39.395 32.7721 39.372 32.4077 39.2797 32.0537C39.2355 31.7966 39.1918 31.5399 39.1458 31.2728C39.0714 31.2872 39.0273 31.289 38.9876 31.3043C38.4464 31.5124 37.9497 31.8038 37.445 32.0875C36.8519 32.4203 36.2813 32.7955 35.6675 33.0905C35.4467 33.1968 35.3304 33.349 35.2925 33.5994C35.247 33.9011 35.1943 34.2074 35.0501 34.4852V34.4861ZM9.56387 34.6631C9.51069 34.4618 9.4476 34.2623 9.40658 34.0583C9.34755 33.7638 9.19071 33.5737 8.88921 33.5179C8.73463 33.489 8.61114 33.4116 8.51154 33.2936C8.42005 33.185 8.29792 33.1351 8.16362 33.1035C7.88645 33.0387 7.6503 32.8752 7.39927 32.7676C6.98465 32.5897 6.61464 32.3956 6.31585 32.0546C6.16532 31.883 5.917 31.8596 5.72321 31.7493C5.36807 31.5471 5.2527 31.598 5.14724 32.0119C4.93723 32.8333 4.76327 33.6624 4.61139 34.4965C4.52621 34.9644 4.39957 35.4247 4.31304 35.8922C4.23733 36.3007 4.15395 36.7096 4.15936 37.1302C4.16161 37.3189 4.19992 37.4306 4.41625 37.4698C4.67899 37.5171 4.93452 37.6103 5.19006 37.6918C5.43928 37.7715 5.62857 37.6905 5.78134 37.4932C5.87418 37.3734 5.9517 37.2469 5.95981 37.0897C6.01705 36.9366 6.10268 36.7875 6.12521 36.6299C6.15586 36.4146 6.26492 36.3574 6.45781 36.3714C6.60563 36.3822 6.75255 36.3691 6.89542 36.4353C7.6192 36.7704 8.39932 36.8839 9.17854 36.9951C9.49582 37.0406 9.56117 36.9784 9.56342 36.6317C9.56793 35.9755 9.56342 35.3198 9.56342 34.6636L9.56387 34.6631ZM10.8713 37.0037C11.2877 37.0037 11.3463 36.933 11.2174 36.5281C11.1137 36.2025 10.9894 35.8836 10.8686 35.5639C10.8429 35.4959 10.8032 35.4265 10.7528 35.3752C10.6459 35.2666 10.5031 35.2635 10.3782 35.3207C10.2507 35.3788 10.3147 35.4927 10.3381 35.594C10.4193 35.9417 10.3498 36.302 10.4517 36.6551C10.5495 36.9938 10.5157 37.0037 10.8717 37.0041L10.8713 37.0037Z" fill="var(--fill-0, #171619)"/>
</svg>
