<svg preserveAspectRatio="none" width="100%" height="100%" overflow="visible" style="display: block;" viewBox="0 0 5 4" fill="none" xmlns="http://www.w3.org/2000/svg">
<path id="Vector" d="M1.93475 0.262668C2.0677 0.362648 2.2011 0.463078 2.33405 0.563059C3.04252 1.28724 3.61848 2.10105 4.01598 3.0369C4.05699 3.13328 4.11107 3.22515 4.14307 3.32423C4.21833 3.55797 4.10296 3.62507 3.88979 3.5949L3.89294 3.6012C3.88618 3.52689 3.88438 3.45033 3.79965 3.41475L3.80867 3.41611C3.80867 3.21479 3.70095 3.07158 3.55629 2.94818C3.42604 2.56132 3.16465 2.27398 2.85368 2.02403C2.5319 1.63717 2.14927 1.32687 1.69544 1.10665C1.1677 0.709877 0.561993 0.444164 0 0.105492C0.22669 -0.0332196 0.440762 -0.0453795 0.663847 0.130712C0.791839 0.231593 0.944618 0.309954 1.12128 0.215828C1.26189 0.141068 1.38538 0.234296 1.50796 0.274829C1.65669 0.323918 1.79504 0.348687 1.9352 0.262668H1.93475Z" fill="var(--fill-0, #D8C09F)"/>
</svg>
