<svg preserveAspectRatio="none" width="100%" height="100%" overflow="visible" style="display: block;" viewBox="0 0 3 5" fill="none" xmlns="http://www.w3.org/2000/svg">
<path id="Vector" d="M1.49805 0.443731C1.58548 0.446433 1.67426 0.441481 1.76079 0.453641C1.98703 0.485166 2.16595 0.420314 2.2687 0.208643C2.36154 0.0176898 2.51928 -0.0169877 2.70721 0.00643117C2.37416 0.553621 1.82163 0.925618 1.51878 1.49578C1.30606 1.8957 0.988784 2.24113 0.889185 2.7005C0.561994 3.01845 0.396145 3.42558 0.277617 3.85117C0.232098 4.01465 0.181172 4.12769 0 4.13985C0.00721082 3.99078 -0.013972 3.83361 0.0256875 3.694C0.201001 3.07835 0.315021 2.43974 0.582723 1.85742C0.799047 1.38589 0.928843 0.869323 1.26279 0.454539C1.34121 0.451387 1.41918 0.447785 1.4976 0.444633L1.49805 0.443731Z" fill="var(--fill-0, #33264F)"/>
</svg>
