<svg preserveAspectRatio="none" width="100%" height="100%" overflow="visible" style="display: block;" viewBox="0 0 3 8" fill="none" xmlns="http://www.w3.org/2000/svg">
<path id="Vector" d="M2.35433 3.602C2.34712 3.63577 2.33946 3.6691 2.33225 3.70288C2.05418 3.72269 2.12223 3.98075 2.03075 4.13207C1.53726 4.94633 1.1979 5.8403 0.710714 6.65771C0.632297 6.78966 0.56109 6.93107 0.606608 7.10266C0.822933 7.07744 0.976165 6.90901 1.18348 6.9581C1.16725 6.99908 1.16274 7.06213 1.13345 7.07789C0.757585 7.2765 0.378568 7.46881 0 7.66246C0.199199 6.76219 0.482221 5.88263 0.659788 4.9765C0.718376 4.67701 0.888281 4.40139 0.973008 4.10505C1.31778 2.90033 1.736 1.72038 2.16189 0.543137C2.22589 0.366144 2.27682 0.184198 2.49584 0C2.46159 0.414784 2.72794 0.679596 2.71307 1.03268C2.69684 1.41909 2.68107 1.77623 2.48142 2.14688C2.29755 2.4887 2.07266 2.87737 2.1966 3.31917C2.08348 3.50607 2.32098 3.49751 2.35433 3.6029V3.602Z" fill="var(--fill-0, #1D1B2D)"/>
</svg>
