<svg preserveAspectRatio="none" width="100%" height="100%" overflow="visible" style="display: block;" viewBox="0 0 9 4" fill="none" xmlns="http://www.w3.org/2000/svg">
<path id="Vector" d="M0.000451116 0.186294C0.0653485 0.104778 0.15954 0.0908151 0.243816 0.119638C0.767952 0.299333 1.32634 0.290778 1.85724 0.420032C2.09925 0.479029 2.26916 0.365536 2.54272 0.310591C2.31963 0.15972 2.09339 0.193049 1.97622 0.0232629C2.14116 -0.0190712 2.30746 0.000292881 2.46295 0.0498327C3.58558 0.408771 4.74968 0.622244 5.86195 1.01676C6.55148 1.26131 7.24327 1.50135 7.88773 1.85308C8.22574 2.03728 8.55338 2.23994 8.72058 2.61554C8.72915 2.63491 8.77421 2.63761 8.80216 2.64842C8.82739 2.73174 8.85308 2.81506 8.87832 2.89837C8.8008 3.01637 8.7314 3.1159 8.57547 2.97268C8.35689 2.77227 8.11307 2.61059 7.79264 2.64077C7.04362 2.38091 6.29955 2.10664 5.54512 1.86479C3.99074 1.36624 2.4341 0.873995 0.854032 0.460112C0.565149 0.384451 0.284377 0.278167 0 0.185843L0.000451116 0.186294ZM3.02314 0.402467C2.89785 0.402467 2.8289 0.30564 2.7302 0.374996C2.71127 0.388056 2.70992 0.46822 2.72929 0.486685C2.8316 0.583512 2.90461 0.495242 3.02314 0.402467Z" fill="var(--fill-0, #0B152C)"/>
</svg>
