<svg preserveAspectRatio="none" width="100%" height="100%" overflow="visible" style="display: block;" viewBox="0 0 18 12" fill="none" xmlns="http://www.w3.org/2000/svg">
<path id="Vector" d="M1.2984 4.15847C1.32544 3.77161 1.12849 3.43789 1.01808 3.08886C0.782374 2.34171 0.50656 1.60627 0.21993 0.877129C0.116275 0.614118 0.0076615 0.361015 0 0.0754851C0.208212 -0.119972 0.455183 0.140337 0.669705 0.0191898C0.745419 0.00973223 0.811668 0.0254956 0.856736 0.0930499C0.903155 0.184023 0.985178 0.184924 1.07036 0.177267L1.0965 0.16826L1.12128 0.18042C1.5323 0.506032 2.01542 0.605112 2.52334 0.62808L2.54948 0.613218C2.71938 0.723106 2.87351 0.909557 3.10336 0.72671C3.20205 0.719954 3.29129 0.746075 3.37061 0.805072C3.40621 0.85191 3.4346 0.931625 3.47787 0.940632C3.96865 1.04376 4.42609 1.30272 4.94843 1.25859L4.9669 1.24282L4.98899 1.25318C5.22829 1.56033 5.57396 1.518 5.90251 1.53151L5.8998 1.52745C6.28288 1.81658 6.72364 1.9008 7.19099 1.88729L7.21803 1.87828L7.24417 1.88999C7.45779 2.16111 7.75388 2.18228 8.0644 2.15841L8.0626 2.15436C8.45378 2.42863 8.90762 2.47817 9.36415 2.5187C9.40877 2.52095 9.45338 2.5232 9.49755 2.52546C9.55794 2.69614 9.72109 2.7101 9.85944 2.75109C10.8261 3.04022 11.8005 3.30728 12.7604 3.61713C13.3247 3.79908 13.9079 3.90717 14.4649 4.12559C14.843 4.27376 15.2387 4.4404 15.6691 4.40797C15.7133 4.40797 15.7574 4.40707 15.8012 4.40662C15.8543 4.70746 16.0918 4.56109 16.2559 4.59352L16.2572 4.59217C16.2956 4.7016 16.378 4.75159 16.4866 4.78267C16.6295 4.82365 16.7697 4.87635 16.908 4.93174C17.1658 5.03532 16.8544 5.17854 16.9306 5.29608C16.9549 5.33391 16.9909 5.36769 17.0027 5.40912C17.1144 5.80905 17.2812 6.20491 17.3177 6.61249C17.3884 7.40017 17.5611 8.16714 17.699 8.94132C17.8112 9.57002 17.7823 10.2167 17.9599 10.836C17.9757 10.8914 17.9644 10.9553 17.9617 11.0148C17.9491 11.3215 17.9324 11.3381 17.6232 11.3449C17.5484 11.3467 17.4718 11.3521 17.3993 11.339C16.8292 11.2359 16.2631 11.1094 15.6898 11.0296C15.2297 10.9652 14.7939 10.8103 14.3423 10.7229C13.728 10.6041 13.1309 10.4302 12.5297 10.2609C12.061 10.1289 11.6211 9.86455 11.1074 9.91635L11.115 9.92085C11.0695 9.82042 10.9803 9.82222 10.8906 9.82493L10.8735 9.84249C10.8735 9.84249 10.8523 9.83078 10.8518 9.83033C10.8397 9.77268 10.8424 9.70107 10.7815 9.67405C10.4431 9.52318 10.1051 9.36871 9.72154 9.37636L9.70036 9.38807L9.68098 9.37321C9.64582 9.34394 9.61022 9.31466 9.57507 9.28539L9.58048 9.2944C9.45113 9.08633 9.24652 9.09174 9.03966 9.10254L9.04192 9.10705C9.01217 8.83728 8.80757 8.93861 8.65659 8.92645C8.20005 8.82017 7.80616 8.57067 7.39424 8.36575C5.82679 7.58437 4.36795 6.62915 2.97176 5.57576C2.94923 5.55864 2.93661 5.52847 2.91948 5.50415C2.91858 5.3749 2.85639 5.315 2.72524 5.33346L2.73651 5.33526C2.71127 5.24384 2.63961 5.23033 2.55984 5.22988C2.52919 5.20601 2.49855 5.18214 2.4679 5.15827C2.47827 4.96732 2.34892 4.95516 2.20921 4.95651C2.02263 4.85743 1.88157 4.70611 1.74412 4.55029C1.7315 4.44895 1.66119 4.42238 1.57376 4.41743C1.45613 4.35843 1.36149 4.27466 1.29795 4.15847H1.2984Z" fill="var(--fill-0, #1D1B2D)"/>
</svg>
