<svg preserveAspectRatio="none" width="100%" height="100%" overflow="visible" style="display: block;" viewBox="0 0 10 15" fill="none" xmlns="http://www.w3.org/2000/svg">
<path id="Vector" d="M0.00135197 2.4349C0.218127 2.44301 0.332148 2.3624 0.325388 2.12235C0.31367 1.70397 0.32043 1.28468 0.323585 0.865843C0.324487 0.746948 0.323586 0.624898 0.349274 0.510056C0.455183 0.0389771 0.774261 -0.115045 1.21998 0.0867172C1.58863 0.253802 1.91087 0.47808 2.22093 0.749198C2.75363 1.21442 3.29129 1.68055 3.89655 2.05975C4.27376 2.29619 4.62529 2.57722 4.97862 2.84383C5.70511 3.39192 6.47802 3.87246 7.19865 4.42596C7.46996 4.63447 7.72459 4.86506 7.98328 5.08979C8.07386 5.1686 8.16535 5.26138 8.15183 5.39288C8.11082 5.78515 8.27802 6.15805 8.24782 6.54851C8.22439 6.8489 8.32129 7.13758 8.35013 7.43347C8.43666 8.3324 8.44252 9.24798 8.75889 10.1122C8.80892 10.2487 8.73275 10.4212 8.88102 10.5275C8.88193 10.6446 8.88283 10.7616 8.88373 10.8792C8.94277 11.0927 9.00226 11.3061 9.0613 11.5196C9.06265 11.5755 9.06445 11.6318 9.0658 11.6876C9.09329 12.0853 9.29024 12.4424 9.34162 12.8347C9.35288 12.9211 9.4304 12.9428 9.50521 12.9563C9.55163 13.3517 9.5985 13.7467 9.64537 14.1443C9.53135 14.2389 9.43716 14.147 9.36775 14.0934C8.7972 13.6534 8.14687 13.3512 7.48663 13.095C6.7286 12.8004 5.95163 12.5676 5.12284 12.4879C4.39139 12.4176 3.664 12.4397 2.93525 12.4118C2.95058 12.2397 2.87126 12.0884 2.81898 11.9353C2.668 11.493 2.63015 11.0314 2.58012 10.5743C2.54542 10.2581 2.62654 10.2176 2.91002 10.3356C3.29625 10.4968 3.67571 10.6788 4.07141 10.8125C4.33596 10.9022 4.62258 10.9287 4.90155 10.9706C5.00025 10.9855 5.1296 10.9967 5.1625 10.8607C5.19179 10.74 5.10661 10.6657 5.00431 10.6193C4.80376 10.5284 4.69019 10.4234 4.9313 10.2469L4.96825 10.2478H5.00521C5.31167 10.4261 5.35854 10.423 5.62309 10.2046C5.65824 10.187 5.66906 10.1919 5.65328 10.2181C5.65283 10.219 5.633 10.2082 5.62219 10.2032C5.61858 10.1586 5.61452 10.114 5.61092 10.0694C5.76415 9.88389 5.95298 9.74338 6.17246 9.647C6.52489 9.49253 6.87867 9.33986 7.23425 9.19349C7.37802 9.13449 7.51187 9.05658 7.68628 9.17097C7.79715 9.24348 8.07702 9.01875 8.05629 8.89895C8.03195 8.76024 7.87872 8.71926 7.81472 8.59361C7.76335 8.49273 7.634 8.61387 7.54207 8.649L7.45193 8.61928C7.41317 8.57424 7.38072 8.52065 7.33385 8.48597C6.69524 8.01624 6.05483 7.54967 5.41533 7.08129C5.33916 7.02545 5.26119 6.99122 5.16565 7.01148C5.26976 6.88583 5.29545 6.76874 5.15619 6.64309C5.09805 6.5904 5.04487 6.5341 4.97051 6.57238C4.85604 6.63183 4.733 6.70299 4.71137 6.84305C4.69109 6.97455 4.79024 7.01599 4.90516 7.02229C4.98583 7.21595 4.99124 7.42177 5.01332 7.62668C5.07551 8.2108 5.04442 8.80483 5.1954 9.37949C5.11608 9.50559 5.08543 9.67042 4.91958 9.72807C4.31117 9.37589 3.6649 9.10252 3.02359 8.81924C2.3967 8.54227 1.768 8.26935 1.13976 7.99417C1.20015 7.82439 1.34752 7.63298 1.0316 7.55552C1.10506 7.39744 1.28037 7.30377 1.31147 7.11822C1.51968 6.98987 1.65038 6.7863 1.80406 6.60571C2.39354 5.9144 2.97897 5.21859 3.57386 4.53179C3.63245 4.46424 3.68563 4.27553 3.84517 4.42776C3.96775 4.30571 4.1985 4.32327 4.26385 4.14583C4.31567 4.00532 4.22779 3.84634 4.16244 3.73015C4.12098 3.65629 3.9353 3.51262 3.82759 3.64368C3.68518 3.81707 3.54367 3.76257 3.38728 3.72474C3.15518 3.66845 2.92444 3.60675 2.69324 3.5482C2.05914 3.38877 1.45208 3.12531 0.795443 3.0555C0.699449 3.04515 0.653029 2.9884 0.655733 2.91724C0.666099 2.65558 0.54036 2.70287 0.381272 2.77763C0.321332 2.80555 0.274011 2.7416 0.22669 2.70692C0.150976 2.6164 0.0757136 2.52588 0 2.43535L0.00135197 2.4349ZM5.86961 11.6016C5.84166 11.6664 5.89214 11.6795 5.92864 11.6935C5.99084 11.7178 6.05213 11.6912 6.07286 11.6376C6.09359 11.584 6.06971 11.5246 5.99354 11.5174C5.92774 11.5115 5.88628 11.5426 5.86961 11.6011V11.6016Z" fill="var(--fill-0, #1D1B2D)"/>
</svg>
