<svg preserveAspectRatio="none" width="100%" height="100%" overflow="visible" style="display: block;" viewBox="0 0 19 18" fill="none" xmlns="http://www.w3.org/2000/svg">
<path id="Vector" fill-rule="evenodd" clip-rule="evenodd" d="M16.0221 10.3972L9.80331 17.3845C9.61356 17.5977 9.34174 17.7196 9.05632 17.7196C8.7709 17.7196 8.49909 17.5977 8.30933 17.3845L2.09121 10.398C-0.610596 7.56064 -0.500356 3.99496 1.31559 1.82761C2.21912 0.749241 3.53667 0.0406652 5.06022 0.00169712C6.3625 -0.0316116 7.73229 0.424944 9.05519 1.42189C10.3736 0.425125 11.7402 -0.031633 13.0405 0.00169819C14.562 0.0407008 15.878 0.749833 16.781 1.82761C18.5955 3.99321 18.714 7.5583 16.0221 10.3972ZM12.9892 2.00104C12.0857 1.97788 10.9535 2.34509 9.72979 3.45998C9.34868 3.8072 8.76606 3.80776 8.38428 3.46128C7.15512 2.34578 6.01837 1.97784 5.11135 2.00104C4.20317 2.02427 3.41129 2.44052 2.84861 3.11208C1.73499 4.44119 1.48326 6.86805 3.54948 9.02913C3.5577 9.03773 3.56577 9.04648 3.57368 9.05536L9.05632 15.2155L14.539 9.05536C14.5464 9.04703 14.5539 9.03883 14.5616 9.03075C16.6173 6.87107 16.3633 4.44316 15.248 3.11207C14.6848 2.43992 13.894 2.02424 12.9892 2.00104Z" fill="var(--fill-0, #101828)"/>
</svg>
