<svg preserveAspectRatio="none" width="100%" height="100%" overflow="visible" style="display: block;" viewBox="0 0 18 18" fill="none" xmlns="http://www.w3.org/2000/svg">
<path id="Vector" d="M16.795 17.7949C16.6584 17.7958 16.58 17.7201 16.516 17.6053C16.2614 17.1486 15.9996 16.6955 15.7436 16.2398C15.6999 16.1618 15.6372 16.0745 15.6408 15.9934C15.6624 15.4791 15.4687 14.9972 15.4326 14.4901C15.3979 14.0024 15.3019 13.5182 15.214 13.0359C15.1807 12.853 15.1374 12.6828 15.2681 12.5256C15.3727 12.4 15.3627 12.2604 15.2677 12.1554C15.0072 11.8685 14.9792 11.5033 14.9269 11.1565C14.7976 10.304 14.6128 9.45956 14.5398 8.59892C14.5362 8.55433 14.5367 8.50794 14.5236 8.46561C14.5042 8.40436 14.4596 8.36833 14.3902 8.37554C14.3163 8.38319 14.2708 8.4467 14.2865 8.49714C14.4208 8.93534 14.3194 9.3902 14.3911 9.83246C14.4605 10.2581 14.5511 10.6805 14.5443 11.1164C14.5376 11.5389 14.7395 11.923 14.7868 12.3387C14.8071 12.5189 14.817 12.6657 14.6358 12.7603C14.4875 12.654 14.5637 12.4815 14.5137 12.345C14.1968 11.4808 14.1914 10.5652 14.1049 9.66627C14.0765 9.37039 13.9792 9.08171 14.0026 8.78131C14.0333 8.39085 13.8661 8.0175 13.9066 7.62568C13.9201 7.49418 13.8286 7.4014 13.7381 7.32259C13.4794 7.09786 13.2247 6.86727 12.9534 6.65876C12.2328 6.10526 11.4599 5.62473 10.7334 5.07663C10.3796 4.80957 10.0285 4.529 9.65133 4.29256C9.04652 3.91335 8.50841 3.44722 7.97571 2.982C7.6652 2.71088 7.34341 2.4866 6.97476 2.31952C6.52904 2.11776 6.20996 2.27178 6.10405 2.74286C6.07837 2.8577 6.07927 2.97975 6.07837 3.09864C6.07521 3.51748 6.06845 3.93677 6.08017 4.35515C6.08693 4.5952 5.97291 4.67626 5.75613 4.6677C5.66825 4.58169 5.53305 4.53395 5.52448 4.38308C5.61642 4.25787 5.53981 4.17501 5.43435 4.14664C5.32889 4.11826 5.21397 4.15159 5.12519 4.23266C5.19143 4.30246 5.15493 4.43712 5.27616 4.47315C5.48212 4.65825 5.68763 4.8429 5.89359 5.02799C6.00491 5.18562 6.00671 5.38198 6.07746 5.55402C5.89088 6.24487 5.70476 6.93573 5.51818 7.62659C5.46229 7.60857 5.37441 7.55858 5.35593 7.5775C5.17972 7.75719 4.98998 7.93193 4.85433 8.14045C4.72994 8.3323 4.83901 8.6336 5.05804 8.69439C5.20856 8.73628 5.29058 8.89165 5.45328 8.884C5.5371 9.02 5.61462 9.16052 5.70656 9.29112C5.83771 9.47712 5.84672 9.73563 6.05403 9.87569C6.01572 10.0793 5.96885 10.3094 6.13876 10.4526C6.3366 10.6192 6.52949 10.4495 6.71157 10.3526C6.73726 10.3387 6.7688 10.3355 6.79765 10.3274C6.91212 10.4269 7.05002 10.4828 7.18793 10.5413C7.73731 10.7737 8.29074 10.998 8.83245 11.2466C9.43951 11.5254 10.0745 11.7478 10.6392 12.1153C10.5572 12.1289 10.4414 12.1162 10.4396 12.2297C10.4382 12.3513 10.5455 12.3869 10.6527 12.4C10.6748 12.422 10.6861 12.4486 10.6865 12.4797C10.4454 12.6562 10.559 12.7607 10.7595 12.8521C10.8614 12.8985 10.9466 12.9728 10.9177 13.0935C10.8848 13.2295 10.7555 13.2183 10.6568 13.2034C10.3778 13.1615 10.0912 13.1345 9.82664 13.0453C9.43095 12.9116 9.05193 12.7292 8.66525 12.5684C8.38222 12.4504 8.3011 12.4909 8.33535 12.8071C8.38538 13.2642 8.42323 13.7258 8.57421 14.1681C8.62649 14.3217 8.70626 14.473 8.69049 14.6446C8.17626 14.5487 8.08658 14.4271 8.05323 13.9605C8.01087 13.3646 7.93876 12.7711 7.9667 12.1716C7.97076 12.0802 7.95453 11.9906 7.88107 11.9253C7.3326 11.4385 6.75258 10.9966 6.03961 10.7796C5.76289 10.6954 5.51953 10.5422 5.27977 10.4062C4.7349 10.0977 4.18012 9.80364 3.61452 9.54738C2.76995 9.16502 2.0047 8.63089 1.12228 8.31789C0.794638 8.2017 0.477812 8.01029 0.151523 7.86212C0.00865828 7.79727 -0.05669 7.73602 0.0604859 7.56173C0.843311 6.3971 1.62118 5.23111 2.28728 3.99081C2.65278 3.31077 3.0701 2.65278 3.51582 2.01597C3.78037 1.63767 4.14632 1.36745 4.4983 1.11075C5.07471 0.690557 5.72819 0.378906 6.3695 0.0573472C6.57095 -0.0435339 6.72824 -0.0138094 6.83235 0.166335C7.17126 0.754058 7.65934 1.22063 8.08523 1.73765C8.12308 1.78359 8.15463 1.84213 8.20331 1.87186C8.8694 2.27899 9.40841 2.84554 10.029 3.31076C11.1872 4.17996 12.4221 4.94153 13.5623 5.83505C14.2401 6.36602 14.8859 6.92807 15.4538 7.58155C15.7774 7.95355 16.1379 8.29177 16.4038 8.71286C16.4912 8.85112 16.6282 8.90516 16.7923 8.88805C17.033 9.18889 17.1614 9.55098 17.3209 9.89371C17.3867 10.0347 17.4697 10.0617 17.5981 10.0527C17.6535 10.1594 17.6824 10.2702 17.6968 10.3923C17.7563 10.8922 17.7788 11.3957 17.8532 11.8947C17.8906 12.146 17.9604 12.427 17.782 12.6702C17.7333 12.631 17.7144 12.5788 17.6954 12.5193C17.5134 11.951 17.3173 11.3948 16.9667 10.8944C16.4056 10.0932 15.7467 9.38435 15.0383 8.71691C15.0049 8.68539 14.9621 8.68133 14.9202 8.71601C14.8859 8.81734 14.908 8.91957 14.9287 9.02271C15.041 9.57665 15.1626 10.1292 15.2627 10.6854C15.4989 12.0046 15.8085 13.3084 16.1203 14.6094C16.2975 15.3476 16.4687 16.0889 16.658 16.8252C16.7391 17.14 16.8306 17.4607 16.7959 17.7953L16.795 17.7949ZM2.65278 6.37052C2.39995 6.36467 2.20345 6.49302 2.15298 6.68173C2.10881 6.84611 2.25122 7.11317 2.42428 7.19334C2.49188 7.22441 2.5676 7.269 2.62664 7.19874C2.72669 7.07939 2.87676 7.04156 2.99394 6.95284C3.08678 6.88259 3.12869 6.78261 3.06514 6.67992C2.96555 6.51959 2.88172 6.32369 2.65233 6.37098L2.65278 6.37052Z" fill="var(--fill-0, #0B152C)"/>
</svg>
