<svg preserveAspectRatio="none" width="100%" height="100%" overflow="visible" style="display: block;" viewBox="0 0 7 5" fill="none" xmlns="http://www.w3.org/2000/svg">
<path id="Vector" d="M0.734101 4.31107C0.475863 4.32683 0.30731 4.12191 0.0873801 4.0404C-0.0473721 3.99086 0.00580838 3.83458 0.0373557 3.71974C0.145067 3.33333 0.257284 2.94827 0.437104 2.58663C0.523183 2.41369 0.604306 2.23625 0.629995 2.04079C0.721031 1.89352 0.812519 1.74625 0.903556 1.59899C0.981973 1.56701 0.988732 1.4936 1.00315 1.42514C1.02839 1.41208 1.05453 1.40758 1.08247 1.41254C1.11402 1.54089 1.15098 1.66789 1.17667 1.79759C1.20731 1.95387 1.31728 1.96783 1.44392 1.96108C1.40696 2.11915 1.18613 2.18986 1.22038 2.44431C1.53811 2.10924 1.82023 1.81201 2.1019 1.51477C2.15824 1.42605 2.35248 1.41749 2.26099 1.2423C2.31012 1.3031 2.36375 1.28283 2.41242 1.24545C2.98027 0.811301 3.59409 0.447859 4.20296 0.0772107C4.24667 0.0483876 4.26695 -0.0394335 4.34582 0.0204647C4.31518 0.241142 4.38773 0.366345 4.63425 0.34878C4.88573 0.330766 5.14352 0.391114 5.38688 0.280775C5.39995 0.274921 5.41753 0.268616 5.4306 0.272669C5.83531 0.391114 6.20756 0.241594 6.58433 0.132156C6.72269 0.0920741 6.77136 0.179894 6.80922 0.285729C6.71953 0.371297 6.60416 0.401924 6.48924 0.428495C5.45629 0.666737 4.48553 1.06666 3.55038 1.55665C3.44086 1.61385 3.29079 1.63546 3.25203 1.78949L3.25473 1.78679C3.0019 1.7359 2.84732 1.9282 2.67111 2.04169C2.40746 2.21148 2.12083 2.37091 1.99284 2.68841L1.9969 2.68436C1.82023 2.69156 1.73956 2.79425 1.72153 2.95998L1.72559 2.95503C1.39209 3.08068 1.23074 3.33603 1.18342 3.67696L1.18433 3.67561C0.903555 3.7954 0.878316 4.09579 0.733199 4.31197L0.734101 4.31107Z" fill="var(--fill-0, #D8C09F)"/>
</svg>
