<svg preserveAspectRatio="none" width="100%" height="100%" overflow="visible" style="display: block;" viewBox="0 0 6 7" fill="none" xmlns="http://www.w3.org/2000/svg">
<path id="Vector" d="M0 6.68338C0.0775163 5.80922 0.116275 4.93281 0.242915 4.06181C0.298348 3.68216 0.363245 3.2962 0.363696 2.90708C0.363696 2.65353 0.369105 2.40448 0.431749 2.15138C0.513772 1.81946 0.455633 1.76992 0.0811212 1.71183C0.101402 1.69066 0.118076 1.66004 0.142864 1.65013C0.778768 1.39522 1.21187 0.959719 1.38989 0.284626C1.42864 0.137358 1.52193 0.0144116 1.69905 0C1.68012 0.188251 1.62469 0.376502 1.75088 0.556647C1.78918 0.611591 1.80406 0.702564 1.79234 0.770569C1.64272 1.64742 1.66435 2.55175 1.37411 3.40519C1.20285 3.90869 1.30606 4.44282 1.18077 4.95353C1.10776 5.25032 1.01763 5.55657 1.15148 5.87497C1.21728 6.0317 1.00501 6.16411 1.04377 6.36001C1.22674 6.41406 1.41062 6.4699 1.55528 6.26949C1.64272 6.14789 1.74412 6.17086 1.87166 6.19698C2.12314 6.24922 2.37101 6.26274 2.57922 6.04566C2.71893 5.90019 2.92218 5.92451 3.08939 5.98171C3.30255 6.05422 3.49274 6.03395 3.70095 5.97135C4.0998 5.8511 4.52659 5.85246 4.92184 5.70879C5.01738 5.67411 5.0976 5.70834 5.14943 5.79886C4.25574 6.097 3.3305 6.25778 2.40436 6.4082C1.60801 6.5379 0.813471 6.69824 0 6.68338Z" fill="var(--fill-0, #0B152C)"/>
</svg>
