<svg preserveAspectRatio="none" width="100%" height="100%" overflow="visible" style="display: block;" viewBox="0 0 6 2" fill="none" xmlns="http://www.w3.org/2000/svg">
<path id="Vector" d="M4.97006 1.18535C5.28869 1.17635 5.61317 1.13446 5.96605 1.39522C5.61948 1.429 5.37026 1.56006 5.06785 1.4871C4.84973 1.4344 4.6005 1.3673 4.39725 1.56231C4.267 1.53889 4.13495 1.52267 4.00651 1.4907C3.50581 1.3673 3.00601 1.23895 2.50621 1.1124C2.10646 0.990347 1.71212 0.843077 1.30516 0.753004C0.870706 0.656627 0.461492 0.439554 0 0.467476C0.0148723 0.272019 0.143315 0.139612 0.258688 0C0.406961 0.00810652 0.549825 0.0292726 0.696295 0.0693548C1.88833 0.393616 3.06505 0.773272 4.26971 1.04979C4.5009 1.10294 4.72669 1.19031 4.96961 1.18445L4.97006 1.18535Z" fill="var(--fill-0, #D8C09F)"/>
</svg>
