<svg preserveAspectRatio="none" width="100%" height="100%" overflow="visible" style="display: block;" viewBox="0 0 2 6" fill="none" xmlns="http://www.w3.org/2000/svg">
<path id="Vector" d="M0.849968 2.9161C0.847714 2.96428 0.845463 3.01247 0.84366 3.06066C0.779664 3.12822 0.779214 3.19217 0.854927 3.25162C0.864391 3.33944 0.873855 3.42726 0.882869 3.51508C0.909008 3.63577 0.934696 3.75647 0.960835 3.87717C1.06089 4.46399 1.22719 5.04181 1.22719 5.66331C0.771553 4.94993 -0.097803 0.90748 0.00900726 0C0.175757 0.588623 0.336648 1.15653 0.49799 1.72444C0.496638 2.10049 0.633195 2.44952 0.720176 2.80801C0.730992 2.85214 0.805351 2.88097 0.850419 2.91655L0.849968 2.9161Z" fill="var(--fill-0, #1D1B2D)"/>
</svg>
