<svg preserveAspectRatio="none" width="100%" height="100%" overflow="visible" style="display: block;" viewBox="0 0 20 25" fill="none" xmlns="http://www.w3.org/2000/svg">
<path id="Vector" d="M17.4016 22.4857C17.3642 22.5685 17.3025 22.6262 17.2173 22.6586C16.7991 22.7037 16.576 22.8996 16.4985 23.2909C16.4687 23.3207 16.439 23.3499 16.4088 23.3796C16.1546 23.3733 15.9455 23.39 15.7328 23.6143C15.53 23.8273 15.2573 24.0025 14.9982 24.1736C14.8296 24.2849 14.7422 24.266 14.6142 24.1538C14.4461 24.0066 14.3623 23.8395 14.5209 23.6494C14.6836 23.454 14.6777 23.1162 15.018 23.0662C15.0915 23.0554 15.1122 22.9617 15.1446 22.8928C15.3885 22.3821 15.681 21.8953 16.0167 21.4444C16.1943 21.2058 16.2506 20.9319 16.3863 20.686C16.4259 20.614 16.3781 20.5428 16.3083 20.4978C16.5273 19.6421 16.3592 18.8436 15.9676 18.0708C15.5349 17.2169 15.1081 16.3603 14.7147 15.4871C14.2356 14.4237 13.7602 13.3604 13.4249 12.2404C13.3866 11.9323 13.378 11.6121 13.0828 11.4095C13.0751 11.359 13.0675 11.309 13.0598 11.2586C13.0918 11.0019 13.0954 10.7555 12.9219 10.5322C12.8615 10.4543 12.834 10.339 12.8219 10.2372C12.7588 9.71251 12.4397 9.30088 12.2134 8.84871C12.199 8.81944 12.1346 8.81539 12.0936 8.79962C12.0417 8.71721 11.9962 8.63254 11.9904 8.53256C12.1305 8.40105 12.0309 8.37133 11.9128 8.34971C11.9016 8.32674 11.8962 8.30287 11.8966 8.2772C11.8957 8.15876 11.9133 8.03671 11.8899 7.92322C11.8601 7.7782 11.8092 7.62868 11.6082 7.6449C11.4937 7.55933 11.4487 7.43818 11.4329 7.30172C11.4635 7.21075 11.5875 7.09951 11.4667 7.0288C11.2535 6.9036 11.1868 6.69193 11.0931 6.49827C10.9416 6.18482 10.6978 6.00378 10.367 5.92541C10.2291 5.82408 10.102 5.71284 10.0141 5.56287C9.94474 5.21474 9.80954 5.08864 9.44945 5.03505C9.38275 5.02424 9.32552 4.99902 9.29352 4.93462C9.26062 4.90489 9.22772 4.87517 9.19527 4.84544C9.16823 4.84229 9.14254 4.83373 9.11866 4.82022C9.14615 4.59009 8.96317 4.56532 8.81355 4.51578C8.57829 4.43787 8.35025 4.32257 8.09697 4.49281C7.71119 4.75267 7.43177 5.11071 7.15911 5.47415C7.11405 5.5345 7.13703 5.64619 7.12892 5.73401L7.12486 5.73716C6.76973 5.8466 6.6147 6.06367 6.59892 6.47215C6.59622 6.49917 6.58856 6.52485 6.57594 6.54916C6.45516 6.56223 6.40919 6.63293 6.42136 6.74867C6.42091 6.7739 6.41415 6.79731 6.40108 6.81938C6.08786 6.90225 6.07479 6.92251 6.04955 7.35666L6.04685 7.35892C5.85801 7.37333 5.73768 7.49447 5.68676 7.65435C5.58265 7.97997 5.3181 8.22271 5.25411 8.57219C5.21985 8.75864 5.09502 8.92392 4.94314 9.05543C4.82641 9.15631 4.73853 9.28872 4.71825 9.43509C4.66913 9.79718 4.55285 10.1237 4.31985 10.4097C4.22747 10.5227 4.21259 10.6542 4.32391 10.7745C4.32571 10.9501 4.22431 11.0848 4.14454 11.2284C3.94039 11.2609 3.84259 11.3937 3.78986 11.5824C3.69612 11.9148 3.53613 12.2143 3.34955 12.5052C3.16702 12.7903 2.96016 13.0808 2.87048 13.3987C2.7826 13.7099 2.62441 13.9707 2.45225 14.2179C2.30623 14.4274 2.19221 14.6525 2.08495 14.8741C1.96732 15.1173 1.75551 15.3479 1.83032 15.6591C1.83122 15.6839 1.82626 15.7077 1.81455 15.7298C1.46076 15.8955 1.42516 15.9559 1.44454 16.3549C1.45085 16.5103 1.33773 16.6053 1.26021 16.7179C1.13763 16.7328 1.09662 16.8071 1.11149 16.9219C1.11149 16.9462 1.10518 16.9683 1.09121 16.9886C0.774385 17.0777 0.599973 17.32 0.484149 17.5988C0.388155 17.8289 0.240784 17.9244 0.00102436 17.8947C-0.00979187 17.6965 0.0672732 17.5164 0.127213 17.3353C0.206081 17.0975 0.328666 16.8791 0.409337 16.6382C0.64459 15.9374 0.923107 15.2506 1.1845 14.5589C1.42967 14.5782 1.5874 14.5372 1.66402 14.2359C1.73973 13.9387 1.78029 13.619 1.91865 13.3451C2.20123 12.7862 2.34679 12.2008 2.35355 11.5806C2.35536 11.4234 2.45631 11.205 2.1868 11.1411C2.26973 10.8389 2.3522 10.5362 2.43513 10.234C2.75646 10.2984 2.74699 10.2962 2.82451 9.99939C2.87003 9.8242 2.91194 9.65261 2.90338 9.47066C2.89887 9.37834 2.91104 9.2662 2.99397 9.22972C3.29952 9.09416 3.27023 8.8316 3.25896 8.57805C3.2513 8.40646 3.31349 8.25514 3.36082 8.09841C3.38831 8.00654 3.4496 7.91376 3.54154 7.92232C3.88675 7.95474 4.05936 7.64805 4.33247 7.54266C4.52401 7.4688 4.55646 7.29587 4.50824 7.13058C4.44875 6.92567 4.45686 6.71535 4.41765 6.51314C4.37934 6.31633 4.33383 6.15375 4.4866 5.9736C4.62271 5.81327 4.79397 5.74121 4.97333 5.67006C5.10719 5.61691 5.29467 5.71735 5.38706 5.56152C5.46457 5.43046 5.4159 5.26788 5.42221 5.11971C5.42626 5.03009 5.42176 4.94002 5.42311 4.84995C5.42626 4.65134 5.43393 4.46309 5.1838 4.37977C5.02336 4.32618 5.03913 4.15234 5.15811 4.1082C5.49342 3.98345 5.41815 3.72089 5.42311 3.47724C5.42807 3.2417 5.39111 3.00887 5.60023 2.81116C5.80213 2.62066 5.78275 2.60039 5.53848 2.40268C5.37849 2.27343 5.37894 2.06536 5.55426 1.97213C6.082 1.69156 6.60749 1.37495 6.94865 0.895318C7.23889 0.487289 7.59357 0.336418 8.03748 0.248147C8.32817 0.190501 8.61074 0.0909707 8.89647 0.0085544C9.01139 -0.0247724 9.09026 0.0472856 9.18626 0.0873678C9.42782 0.188699 9.63693 0.393614 9.93122 0.340922C9.96277 0.365241 9.99432 0.389561 10.0254 0.41388C10.0169 0.621497 10.1561 0.617444 10.3008 0.605735C10.806 0.87325 11.2012 1.28398 11.6217 1.65553C12.2346 2.19686 12.8205 2.76972 13.3667 3.38087C14.0071 4.09739 14.4389 4.91255 14.5425 5.88173C14.5142 6.10421 14.4808 6.33254 14.5443 6.54736C14.735 7.19003 15.0757 7.78946 15.091 8.48302C15.0928 8.56859 15.1424 8.65281 15.1694 8.73792C15.3975 9.4513 15.6571 10.1548 15.7869 10.897C15.8202 11.0884 15.877 11.2802 16.1132 11.3266C16.1244 11.3847 16.1361 11.4424 16.1474 11.5004C16.0433 11.7207 16.0149 11.9323 16.1799 12.144C16.2718 12.262 16.2822 12.4201 16.3322 12.5556C16.4174 12.7858 16.4002 13.0857 16.6864 13.2109C16.745 13.3911 16.804 13.5712 16.8626 13.7514C16.7603 13.8198 16.814 13.8995 16.8351 13.9869C16.9406 14.4201 17.206 14.8021 17.2398 15.2592C17.2462 15.3465 17.3372 15.3587 17.4156 15.3573L17.4097 15.3628C17.4156 15.4114 17.4426 15.4434 17.4868 15.4623C17.5197 15.5515 17.5531 15.6411 17.586 15.7302C17.4332 15.8888 17.4832 15.9703 17.6856 15.9946C17.7816 16.141 17.9132 16.268 17.9321 16.4553C17.8284 16.699 17.8334 16.7093 18.1128 16.8134C18.1223 16.8598 18.1322 16.9061 18.1416 16.953C18.1741 17.2705 18.2327 17.5731 18.5779 17.7105C18.5901 17.7281 18.5937 17.7474 18.5896 17.7686C18.5243 18.105 18.6928 18.3324 18.9411 18.5225C18.9475 18.5977 18.9538 18.6725 18.9601 18.7477C18.9299 18.8949 18.9114 19.0449 18.9601 19.189C19.1273 19.684 18.9137 20.1361 18.7239 20.5478C18.5495 20.9261 18.3503 21.3242 18.0105 21.6102C17.9055 21.6984 17.947 21.8304 17.9438 21.9466C17.9438 21.9466 17.9447 21.9457 17.9442 21.9457C17.5139 22.0218 17.435 22.1006 17.4025 22.4884L17.4016 22.4857ZM13.4235 8.17812C13.2626 7.61022 13.1017 7.04231 12.935 6.45369C12.8282 7.36162 13.6975 11.4041 14.1532 12.117C14.1532 11.4955 13.9869 10.9181 13.8868 10.3309C13.9598 10.3178 14.0509 10.3065 14.031 10.2084C14.0071 10.0922 13.9535 9.98318 13.8088 9.96876C13.7994 9.88094 13.7899 9.79312 13.7809 9.7053C13.8976 9.6346 13.8832 9.5711 13.7696 9.5139C13.7719 9.46571 13.7741 9.41752 13.7764 9.36933C13.8377 9.01895 13.6998 8.69739 13.6308 8.36593C13.6069 8.25243 13.5556 8.17227 13.4244 8.17767L13.4235 8.17812Z" fill="var(--fill-0, #482965)"/>
</svg>
