<svg preserveAspectRatio="none" width="100%" height="100%" overflow="visible" style="display: block;" viewBox="0 0 10 8" fill="none" xmlns="http://www.w3.org/2000/svg">
<path id="Vector" d="M1.71572 0.0837788C5.04667 0.343187 7.46635 1.91945 8.82334 5.01524C9.02073 5.46561 9.16855 5.93804 9.22895 6.43163C9.18658 6.51855 9.18748 6.59872 9.26545 6.66672C9.34657 7.08016 9.3984 7.49539 9.3628 7.91783C9.21227 7.95071 9.09059 7.85703 8.95494 7.82416C8.94322 7.77011 8.9315 7.71607 8.91933 7.66202C9.03245 7.41207 9.01037 7.35398 8.74447 7.20265C8.6958 7.11033 8.64352 7.02026 8.59935 6.92613C7.61733 4.84591 6.14272 3.26784 3.97406 2.39819C3.95108 2.35901 3.91683 2.3428 3.87221 2.34775C3.54547 2.24597 3.21873 2.14419 2.89244 2.04241C2.869 2.00322 2.83565 1.98566 2.79014 1.99377L2.79194 1.99602C2.81132 1.81362 2.74597 1.70778 2.54587 1.71949C2.36335 1.7303 2.1984 1.69833 2.04201 1.58394C1.95053 1.51728 1.80766 1.45018 1.71077 1.4745C1.32048 1.57133 0.983376 1.43667 0.64582 1.28354C0.537207 1.23445 0.325839 1.3502 0.32674 1.14483C0.327642 0.97685 0.542164 1.02954 0.646721 0.957933C0.664748 0.945323 0.665648 0.907043 0.678267 0.868762C0.527741 0.755271 0.394793 0.63097 0.332599 0.428758C0.281222 0.262124 0.144216 0.129717 0 0.0202789C0.185679 -0.0053917 0.371358 -0.00809387 0.557036 0.0202789C0.935604 0.176555 1.32769 0.0846818 1.71527 0.0833307L1.71572 0.0837788Z" fill="var(--fill-0, #F1F2F3)"/>
</svg>
