<svg preserveAspectRatio="none" width="100%" height="100%" overflow="visible" style="display: block;" viewBox="0 0 5 6" fill="none" xmlns="http://www.w3.org/2000/svg">
<path id="Vector" d="M4.52993 5.4021C4.14235 5.47055 3.75477 5.53901 3.36719 5.60746C3.28922 5.58044 3.22568 5.5962 3.18016 5.66826C2.99448 5.68087 2.88046 5.60071 2.79348 5.43002C2.63529 5.11927 2.56228 4.7842 2.47124 4.45408C2.37886 4.11992 2.28962 4.06947 1.96333 4.20278C1.39548 4.43472 0.815912 4.62837 0.21426 4.75177C-0.102115 4.51173 0.0114544 4.16945 0.0610288 3.88437C0.150713 3.37141 0.235442 2.85845 0.304395 2.34233C0.331436 2.13922 0.422471 1.98745 0.599136 1.8672C1.2409 1.4308 1.86644 0.970982 2.51271 0.541336C2.85793 0.311652 3.20044 0.0598982 3.63128 0C3.72367 0.353985 3.74666 0.718327 3.79172 1.07952C3.65697 1.0624 3.66103 0.950264 3.61776 0.855688C3.51862 0.639965 3.31806 0.504407 3.09588 0.488194C2.912 0.474683 2.84711 0.666086 2.79979 0.830468C2.78401 0.885412 2.73309 0.929097 2.70605 0.981789C2.44556 1.4862 2.35091 1.9861 2.75157 2.47069C2.76103 2.48195 2.76554 2.49681 2.7732 2.50987C2.96428 2.85079 2.98772 3.19217 2.75382 3.52048C2.65873 3.65379 2.61186 3.7844 2.68126 3.93617C2.73624 4.05641 2.70695 4.16315 2.67225 4.28159C2.63484 4.4086 3.04315 5.14629 3.16123 5.18997C3.20179 5.20484 3.25587 5.2215 3.29148 5.20709C3.70249 5.0391 4.19102 5.24717 4.57275 4.94228C4.61421 5.08414 4.65522 5.22646 4.69668 5.36877C4.6417 5.38048 4.58627 5.39174 4.53129 5.403L4.52993 5.4021Z" fill="var(--fill-0, #2C1644)"/>
</svg>
