<svg preserveAspectRatio="none" width="100%" height="100%" overflow="visible" style="display: block;" viewBox="0 0 6 6" fill="none" xmlns="http://www.w3.org/2000/svg">
<path id="Vector" d="M4.73348 5.1562C4.53068 5.2134 4.32292 5.22601 4.1138 5.23186C3.18902 5.25798 2.26423 5.25483 1.33989 5.22555C1.20829 5.2215 1.06949 5.24853 0.948705 5.16701C0.904539 5.06703 0.814854 5.05757 0.723367 5.05667C0.489917 5.05397 0.421864 4.91931 0.413751 4.70719C0.391668 4.12667 0.309195 3.55201 0.245199 2.97555C0.141994 2.04375 0.0820536 1.10745 0.000931886 0.173394C-0.00988434 0.0468421 0.0752943 0.0274721 0.160923 0L0.147402 0.00765814C0.180752 0.094578 0.251959 0.105839 0.331278 0.0999846L0.32632 0.0986322C0.39978 0.226985 0.520563 0.193658 0.633232 0.188254L0.657118 0.178798L0.680101 0.189606C0.718859 0.273374 0.790968 0.285983 0.87209 0.279228L0.868034 0.276072C0.928875 0.39722 1.03839 0.373802 1.14204 0.367497L1.13934 0.363896C1.17089 0.394521 1.19703 0.436855 1.23443 0.453969C1.444 0.548995 1.66663 0.560252 1.89377 0.55845C2.7451 0.550344 3.60048 0.617899 4.43739 0.385062C4.58251 0.344529 4.73258 0.33057 4.82407 0.190508L4.8146 0.186C5.18912 0.244097 5.24726 0.293637 5.16523 0.625554C5.10304 0.878207 5.09718 1.12771 5.09718 1.38126C5.09718 1.77038 5.03183 2.15634 4.9764 2.53599C4.84931 3.40699 4.811 4.2834 4.73348 5.15755V5.1562Z" fill="var(--fill-0, #33264F)"/>
</svg>
