<svg preserveAspectRatio="none" width="100%" height="100%" overflow="visible" style="display: block;" viewBox="0 0 14 9" fill="none" xmlns="http://www.w3.org/2000/svg">
<path id="Vector" d="M8.72915 3.74933C7.93821 2.87247 6.97061 2.23971 5.90611 1.75287C4.7952 1.24486 3.63876 0.879618 2.42734 0.681459C1.7973 0.578326 1.15959 0.505368 0.541713 0.332879C0.703055 0.291896 0.863947 0.250462 1.10416 0.189213C0.685029 0.0707679 0.31998 0.206326 0 0.0311356C0.0270406 0.0203269 0.0549826 -0.00129059 0.0811219 6.0495e-05C1.65804 0.0824768 3.2336 0.175702 4.76861 0.591386L4.7668 0.589135C4.78303 0.642728 4.82178 0.649484 4.86911 0.637775C5.19585 0.739557 5.52259 0.841337 5.84888 0.943119C5.86916 0.987255 5.90251 1.00527 5.95073 0.993559C8.11938 1.86321 9.594 3.44083 10.576 5.5215C10.6206 5.61563 10.6729 5.70615 10.7211 5.79802C10.7302 5.97006 10.7874 6.12318 10.896 6.25739C10.9077 6.31144 10.9194 6.36548 10.9316 6.41952C10.987 6.74153 11.0501 7.06219 11.0961 7.38555C11.1335 7.64676 11.2534 7.6337 11.4246 7.5067C11.4747 7.49814 11.5247 7.49004 11.5747 7.48148C11.7086 7.61884 11.823 7.67378 11.8726 7.41662C11.9623 6.95005 12.1385 6.50915 12.2895 6.06149C12.3355 5.92458 12.3706 5.77325 12.5058 5.68318C12.582 5.86468 12.7339 5.78902 12.8637 5.78857C12.838 5.98402 12.7568 6.16147 12.6708 6.33441C12.4905 6.6965 12.3787 7.08111 12.271 7.46752C12.239 7.58236 12.1858 7.73818 12.321 7.78817C12.5414 7.86924 12.7095 8.0746 12.9678 8.05839C13.1183 8.34572 13.3941 8.38175 13.6735 8.41147C13.6785 8.44165 13.6839 8.47227 13.6888 8.50245C13.4441 8.79969 13.1683 8.79428 12.8709 8.58847C12.8587 8.57991 12.8443 8.57496 12.8308 8.56865C11.9456 8.15883 11.0664 8.04398 10.2002 8.61954C10.1632 8.64431 10.1222 8.66323 10.0816 8.68214C9.7621 8.82986 9.71162 8.815 9.4615 8.5011C9.5994 8.41868 9.73325 8.32906 9.87567 8.25655C10.0037 8.1917 10.0956 8.11289 10.0879 7.95751C10.3016 7.98768 10.4165 7.92058 10.3412 7.68684C10.3092 7.58776 10.2551 7.49589 10.2141 7.39951C9.81708 6.46411 9.24067 5.64985 8.5322 4.92567C8.5615 4.89685 8.59124 4.86758 8.62054 4.83875C9.22084 5.34856 9.66205 5.98087 10.019 6.67533C10.1754 6.97978 10.3142 7.29323 10.4552 7.60533C10.5116 7.73008 10.5787 7.80033 10.7297 7.74809C10.8708 7.69945 10.9118 7.60893 10.8834 7.47337C10.8681 7.40086 10.8505 7.32836 10.8325 7.2563C10.599 6.31729 10.165 5.47556 9.59219 4.70094C9.58814 4.67797 9.57417 4.66356 9.55028 4.65906C9.52053 4.56268 9.4624 4.48972 9.37226 4.44288C9.3281 4.38749 9.28393 4.33164 9.23976 4.27625C9.24247 4.23527 9.22309 4.21635 9.18253 4.21815C9.15684 4.19834 9.1307 4.17852 9.10501 4.15871C9.04417 3.9628 8.89319 3.85021 8.72825 3.74978L8.72915 3.74933Z" fill="var(--fill-0, #90784C)"/>
</svg>
