<svg preserveAspectRatio="none" width="100%" height="100%" overflow="visible" style="display: block;" viewBox="0 0 19 6" fill="none" xmlns="http://www.w3.org/2000/svg">
<path id="Vector" d="M17.9042 0C18.1011 0.222029 18.0998 0.24725 17.865 0.322461C17.7018 0.374703 17.5211 0.367946 17.3729 0.469727C17.3431 0.471079 17.3116 0.466577 17.2836 0.474684C14.6269 1.24796 11.9436 1.92215 9.26789 2.62561C8.77936 2.75396 8.26829 2.81927 7.80996 3.05481C7.66123 3.05526 7.52017 3.07507 7.37325 3.12011C7.01767 3.23 6.65307 3.31287 6.28983 3.39798C4.56329 3.80286 2.8399 4.21539 1.25668 5.05441C1.18727 5.02964 1.09849 4.96479 1.05252 4.98731C0.790674 5.11431 0.492327 5.19133 0.373799 5.51919C0.310254 5.69438 0.239046 5.89479 0.00154004 5.99882C-0.0191911 5.73761 0.176404 5.5971 0.166489 5.39804L0.165587 5.39939C0.378757 5.18322 0.594179 4.96885 0.707749 4.67746L0.703694 4.68242C0.837095 4.63198 0.935341 4.54686 0.979057 4.4068L0.975002 4.41085C1.39548 4.11046 1.81596 3.80961 2.2369 3.50922L2.23419 3.51192C2.29368 3.51057 2.34596 3.49661 2.4032 3.47184C3.05397 3.18541 3.70294 2.89493 4.37265 2.65263C5.62508 2.19957 6.92708 1.95007 8.22683 1.68796C8.72618 1.69741 9.19894 1.52493 9.68928 1.46908C9.73254 1.46413 9.76769 1.38982 9.80645 1.34748C10.1958 1.19256 10.6172 1.19346 11.021 1.1223C11.5271 1.03313 12.0242 0.843978 12.5529 0.900274C12.5984 0.903877 12.6435 0.90793 12.6885 0.911533C12.6245 0.947111 12.561 0.983141 12.497 1.01872C12.4366 1.0525 12.4141 1.10429 12.4402 1.16734C12.4781 1.25831 12.5605 1.26237 12.625 1.21913C13.0099 0.959722 13.4583 1.07817 13.8734 1.02683C14.1338 0.99485 14.3925 0.978186 14.6503 0.90838C15.1659 0.768768 15.6396 0.504856 16.1709 0.413883C16.7577 0.313452 17.34 0.190503 17.9056 0H17.9042Z" fill="var(--fill-0, #D8C09F)"/>
</svg>
