<svg preserveAspectRatio="none" width="100%" height="100%" overflow="visible" style="display: block;" viewBox="0 0 9 13" fill="none" xmlns="http://www.w3.org/2000/svg">
<path id="Vector" d="M4.1692 8.90772C4.08177 8.74378 3.93395 8.64561 3.78973 8.53662C2.96995 7.91602 2.12899 7.31974 1.34887 6.6523C0.733248 6.12538 0.250574 5.47145 0.0612899 4.65134C-0.0135224 4.32618 -0.0180286 3.98976 0.0378552 3.67C0.181621 2.84584 0.451577 2.05455 0.744065 1.27227C0.797696 1.12906 0.885126 1.01061 0.99419 0.906129C1.23395 0.936303 1.38132 0.840827 1.47732 0.610242C1.59314 0.331467 1.76755 0.0891717 2.08438 0C2.07491 0.157176 1.98207 0.276072 1.90411 0.403975C1.43901 1.17004 0.946869 1.92215 0.718376 2.80576C0.530895 3.52994 0.636353 4.17396 1.23755 4.67071C1.50165 4.88868 1.78422 5.08414 2.07807 5.26519C2.82799 5.72726 3.58693 6.17762 4.30711 6.68338C5.37611 7.43368 6.1319 8.47447 6.82278 9.56164C7.42399 10.5074 7.84897 11.5351 8.19735 12.5966C8.07837 12.602 8.03285 12.6921 7.98778 12.7808C7.94181 12.8714 7.89179 12.956 7.77191 12.9538C7.31492 11.9112 6.52759 11.1068 5.81372 10.2502C5.66004 10.066 5.47932 9.90572 5.25804 9.80033C5.00791 9.49454 4.73706 9.21396 4.35173 9.0775C4.30981 9.00049 4.25078 8.94239 4.1692 8.90817V8.90772Z" fill="var(--fill-0, #2C1644)"/>
</svg>
