<svg preserveAspectRatio="none" width="100%" height="100%" overflow="visible" style="display: block;" viewBox="0 0 7 12" fill="none" xmlns="http://www.w3.org/2000/svg">
<path id="Vector" d="M5.67085 0.000901604C5.75423 0.0540443 5.87275 0.0639514 5.89889 0.180145C5.85563 0.370648 5.61271 0.130604 5.58883 0.330564C5.57125 0.477382 5.55638 0.630057 5.6677 0.757059C5.75468 0.856138 5.89168 0.952065 5.82543 1.10023C5.73079 1.3119 5.81372 1.57672 5.58387 1.75281C5.39368 1.89828 5.44867 2.08698 5.68032 2.14462C5.85788 2.18876 6.03365 2.15138 6.20716 2.08968C6.28557 2.06176 6.4014 2.03969 6.43565 2.15273C6.46764 2.25902 6.36895 2.3027 6.28918 2.34368C6.09719 2.36575 6.08637 2.53284 6.02689 2.66479C5.58117 3.65739 5.26299 4.69593 4.91642 5.7241C4.82538 5.99432 4.75282 6.26454 4.73615 6.54917C4.58157 6.63248 4.61447 6.82434 4.51126 6.93738C4.4671 6.94323 4.41121 6.93423 4.38056 6.9581C4.235 7.07114 4.14666 7.53051 4.23229 7.71561C4.2404 7.73362 4.28637 7.73407 4.31476 7.74263C4.31116 7.79847 4.30801 7.85432 4.3044 7.91016C4.01416 8.05788 4.0047 8.08535 4.14216 8.37043C4.16289 8.71496 3.938 9.00815 3.9398 9.34862C3.83254 9.37969 3.73429 9.41437 3.86409 9.53912C3.86048 9.6373 3.8749 9.73998 3.79108 9.81699C3.5734 9.80258 3.53239 9.95886 3.48146 10.121C3.43279 10.2773 3.36609 10.429 3.48417 10.5781C3.5067 10.6065 3.56484 10.6065 3.60675 10.6195C3.59954 10.7065 3.59233 10.7934 3.58512 10.8803C3.32373 10.9163 3.29083 11.1541 3.20069 11.3316C3.01502 11.6977 2.69819 11.8598 2.31962 11.9396C2.09654 11.7256 1.8401 11.9031 1.60034 11.8797C1.40835 11.8607 1.21096 11.9085 1.02303 11.8441C0.803547 11.7689 0.588124 11.7779 0.364138 11.8279C0.0784097 11.8918 0.00720259 11.8301 0.0315391 11.554C0.0378486 11.4815 0.0739028 11.4122 0.0401021 11.3383C-0.057244 11.1235 0.0337937 10.9654 0.193333 10.8276C0.369547 10.6754 0.492131 10.4777 0.719271 10.3642C0.971199 10.2385 0.934244 10.0489 0.662937 9.92373C0.583167 9.8868 0.487173 9.88365 0.431289 9.80213C0.4385 9.76836 0.446161 9.73503 0.453371 9.70125C0.645359 9.73278 0.739552 9.66342 0.702146 9.45941C0.997789 9.19595 1.30831 8.94464 1.4354 8.54562L1.43359 8.54742C1.57375 8.55553 1.62829 8.44609 1.69994 8.35692C1.8072 8.22316 1.89554 8.06779 2.0731 8.00879C2.14791 8.15381 2.25743 8.11508 2.40165 8.05878C2.2732 7.84666 2.23985 7.61923 2.26239 7.38279C2.36244 7.32154 2.37731 7.20895 2.4057 7.11392C2.53279 6.68833 2.64862 6.25958 2.76895 5.83219C2.7703 5.74257 2.80861 5.68852 2.88252 5.62502C3.03845 5.49081 2.98482 5.38093 2.79554 5.32869C2.74686 5.31022 2.71036 5.32013 2.69278 5.37327L2.6743 5.38858C2.00415 5.36066 1.34977 5.21925 0.688626 5.12557C0.56469 5.10801 0.543957 4.98101 0.438949 4.96299C0.313661 4.94228 0.187472 4.92426 0.0757045 4.85626C0.0968863 4.76303 0.144658 4.70854 0.242455 4.67026C0.575956 4.54055 0.912612 4.41895 1.22989 4.24872C1.84686 3.91725 2.46925 3.59479 3.08893 3.26828C3.72393 2.93366 4.31567 2.53104 4.87451 2.08383C5.09489 1.90728 5.28147 1.68841 5.48067 1.48574C5.52078 1.44476 5.56765 1.39162 5.53249 1.32767C5.48878 1.2484 5.40585 1.25291 5.33645 1.27317C5.26659 1.29344 5.20485 1.33893 5.13815 1.3709C4.53515 1.66184 3.93169 1.95232 3.32824 2.24325C3.18943 2.13787 3.02673 2.09643 2.85908 2.06761C2.9393 1.90188 3.0745 1.78794 3.22187 1.68616C4.03715 1.12365 4.85287 0.562052 5.6686 0L5.67085 0.000901604ZM1.06043 11.1082C1.04601 11.0393 0.994184 11.0069 0.933343 11.0109C0.869797 11.015 0.81797 11.0663 0.821125 11.128C0.825631 11.2095 0.87791 11.2645 0.970298 11.241C1.03475 11.2244 1.06224 11.1744 1.06043 11.1086V11.1082ZM2.11186 9.42293C2.05147 9.43734 2.00911 9.47022 2.00775 9.53597C2.0064 9.58731 2.04471 9.61343 2.08797 9.61974C2.15197 9.62919 2.202 9.59947 2.21101 9.53417C2.22002 9.46706 2.17225 9.43554 2.11186 9.42293Z" fill="var(--fill-0, #2C1644)"/>
</svg>
