<svg preserveAspectRatio="none" width="100%" height="100%" overflow="visible" style="display: block;" viewBox="0 0 17 32" fill="none" xmlns="http://www.w3.org/2000/svg">
<path id="Vector" d="M8.02599 26.806C7.98272 26.2989 7.82409 25.8148 7.71953 25.3203C7.69654 25.2113 7.68483 25.0775 7.56314 25.0095C7.21477 23.948 6.78978 22.9207 6.18858 21.9745C5.49769 20.8873 4.74146 19.8466 3.67291 19.0963C2.95273 18.5909 2.19379 18.1401 1.44386 17.6781C1.15002 17.497 0.866998 17.302 0.603352 17.0836C0.00260067 16.5868 -0.103308 15.9428 0.0841735 15.2186C0.312666 14.335 0.804805 13.5829 1.2699 12.8169C1.34742 12.689 1.44071 12.5701 1.45017 12.4129C1.46369 12.3926 1.47045 12.3705 1.47 12.3462C1.5705 12.3152 1.62999 12.2544 1.61918 12.1422C1.69669 12.0292 1.80981 11.9346 1.8035 11.7792C1.97791 11.6009 2.13024 11.4099 2.17351 11.1541C2.18523 11.1321 2.19063 11.1086 2.18928 11.0834C2.35558 11.0307 2.38983 10.8713 2.45969 10.7434C2.59624 10.4934 2.71657 10.2349 2.85854 9.98813C3.45748 8.94914 3.94782 7.85522 4.48322 6.7847C4.50215 6.74687 4.49765 6.69733 4.50395 6.6532C4.58372 6.50953 4.68468 6.37488 4.68332 6.19923C4.8361 6.10556 4.87486 5.93532 4.93886 5.7903C5.2647 5.05351 5.62479 4.33428 5.98893 3.61641C6.12909 3.33988 6.35849 3.10705 6.40626 2.78414L6.40896 2.78188C6.59509 2.64768 6.69875 2.45988 6.76049 2.24415C6.77356 2.22253 6.77987 2.19867 6.78032 2.17345C6.87902 2.14372 6.94482 2.08833 6.9349 1.97393C6.94752 1.94962 6.95518 1.92439 6.95744 1.89692C7.20621 1.70462 7.38197 1.45962 7.48337 1.16193L7.48743 1.15878C7.6312 1.09888 7.72404 0.977283 7.802 0.857036C7.95704 0.617444 8.17651 0.441352 8.36805 0.238239C8.61277 -0.0211701 8.89354 -0.0684578 9.20901 0.0950237C9.30005 0.141861 9.38748 0.195004 9.47671 0.244994C9.5006 0.258505 9.52584 0.267062 9.55333 0.270215C9.58623 0.299938 9.61868 0.329662 9.65158 0.359386C9.68357 0.424238 9.74081 0.449458 9.80751 0.459817C9.91838 0.718325 10.1816 0.814252 10.3722 0.987641C10.4601 1.13761 10.5872 1.24885 10.7251 1.35018C10.7476 1.40378 10.7566 1.47088 10.7949 1.50826C11.1329 1.83883 11.4169 2.20992 11.6566 2.61705C11.6841 2.66389 11.7454 2.69046 11.7909 2.72649C11.8067 2.8625 11.8518 2.98365 11.9663 3.06922C12.0311 3.2944 12.0631 3.53444 12.2547 3.70197C12.2542 3.72765 12.2596 3.75151 12.2709 3.77448C12.2659 3.84834 12.2804 3.91455 12.3489 3.95733C12.3547 4.05731 12.4003 4.14198 12.4521 4.2244C12.6346 4.73691 12.8104 5.25212 13.0015 5.76148C13.12 6.07718 13.2124 6.4064 13.4183 6.68337C13.426 6.73381 13.4337 6.7838 13.4413 6.83424C13.4886 7.13869 13.5896 7.42107 13.7834 7.66516C14.1187 8.78476 14.5937 9.84852 15.0732 10.9118C15.4667 11.7851 15.8934 12.6417 16.3261 13.4956C16.7177 14.2684 16.8858 15.0669 16.6668 15.9226C16.5573 16.0131 16.5253 16.1491 16.469 16.2693C16.0255 17.2137 15.3914 18.0221 14.6829 18.7779C14.4481 19.0287 14.198 19.2638 13.9839 19.5358C13.8677 19.6835 13.7482 19.8511 13.5378 19.8916C13.3769 19.8673 13.3088 19.7885 13.4418 19.6597C13.6959 19.4129 13.8167 19.0949 13.9362 18.7765C13.9871 18.6414 14.024 18.4932 13.8668 18.3667C13.5972 18.5765 13.3674 18.8053 13.1669 19.0661C12.5859 19.8209 12.0906 20.6356 11.5377 21.4111C11.2078 21.8741 10.8918 22.3776 10.7337 22.946C10.3997 23.3607 10.2699 23.8778 10.0536 24.3488C9.78633 24.9311 9.67231 25.5698 9.49654 26.1854C9.45688 26.325 9.47762 26.4822 9.47086 26.6313C9.36855 26.6795 9.32123 26.7605 9.29374 26.8709C9.16575 27.3892 9.09905 27.9175 9.02424 28.4444C8.96835 28.8394 8.88813 29.2357 8.88768 29.6316C8.88723 29.9531 8.92509 30.2729 8.84532 30.5899C8.6664 30.6796 8.60421 30.8462 8.57626 31.0246C8.55734 31.1461 8.50641 31.2146 8.38428 31.2268C8.30811 30.8687 8.28333 30.5071 8.2991 30.1418C8.42033 29.9892 8.45954 29.8536 8.22158 29.777C8.21753 29.6591 8.21392 29.5406 8.20986 29.4226C8.38833 29.1794 8.31848 28.8984 8.28107 28.6471C8.20626 28.1476 8.18418 27.6446 8.12469 27.1447C8.11027 27.0226 8.08142 26.9118 8.02599 26.8051V26.806Z" fill="var(--fill-0, #141218)"/>
</svg>
