<svg preserveAspectRatio="none" width="100%" height="100%" overflow="visible" style="display: block;" viewBox="0 0 16 10" fill="none" xmlns="http://www.w3.org/2000/svg">
<path id="Vector" d="M0 9.52832C0.00495744 9.22838 0.0153224 8.92888 0.0135197 8.62894C0.000900802 6.36452 0.919379 4.51263 2.52153 2.96293C3.80551 1.72084 5.38919 1.08808 7.10716 0.748054C8.11307 0.548543 9.1325 0.556649 10.1546 0.612043C11.4742 0.683201 12.7942 0.704367 14.094 0.391365C14.5131 0.290484 14.9327 0.192755 15.3428 0C15.4983 0.365244 15.6434 0.705718 15.7998 1.07321C15.3036 1.35424 14.7515 1.48214 14.213 1.62851C12.7767 2.01807 11.3043 2.17615 9.82204 2.28154C7.95398 2.41439 6.14001 2.78594 4.50766 3.76233C2.91272 4.7162 1.68688 6.01504 0.931097 7.73092C0.796345 7.82099 0.761192 7.97231 0.714772 8.10922C0.563795 8.55688 0.387581 8.99779 0.297896 9.46436C0.248773 9.72107 0.133851 9.66658 0 9.52877V9.52832Z" fill="var(--fill-0, #F1F2F3)"/>
</svg>
