<svg preserveAspectRatio="none" width="100%" height="100%" overflow="visible" style="display: block;" viewBox="0 0 6 19" fill="none" xmlns="http://www.w3.org/2000/svg">
<path id="Vector" d="M3.94857 3.96589C4.4745 2.66074 4.93735 1.32857 5.6012 0C5.68457 0.222029 5.66204 0.363892 5.63094 0.505757C5.49799 1.11825 5.36053 1.72939 5.23344 2.34278C5.20325 2.48825 5.2073 2.64092 5.19514 2.78999C5.11221 3.09219 5.02929 3.39438 4.94681 3.69702C4.69128 4.62837 4.4371 5.55972 4.12343 6.47396C4.05132 6.68383 3.94541 6.88514 3.94451 7.11482C3.68312 7.80703 3.40505 8.49338 3.16935 9.19414C3.08867 9.43509 2.96609 9.65351 2.88722 9.89131C2.82728 10.0724 2.75022 10.2525 2.76103 10.4507C2.65242 10.5551 2.56454 10.6736 2.51091 10.8168C2.21797 11.5995 1.94846 12.3908 1.8047 13.2145C1.74881 13.5343 1.75332 13.8712 1.82813 14.1959C2.01742 15.0164 2.49964 15.6699 3.11572 16.1968C3.89584 16.8643 4.7368 17.4605 5.55658 18.0811C5.70079 18.1901 5.84862 18.2888 5.93605 18.4522C5.8022 18.4513 5.6724 18.463 5.54757 18.3802C4.72959 17.8379 3.88187 17.3362 3.09589 16.7512C2.56319 16.3545 2.02868 15.9397 1.62668 15.3853C1.39999 15.0727 1.08046 14.8363 0.850617 14.5165C0.736145 14.3575 0.618068 14.2098 0.560832 14.0216C0.45267 13.6653 0.253471 13.3487 0.123225 12.9988C-0.0840856 12.4408 0.00244373 11.9157 0.14666 11.3757C0.332789 10.6799 0.639701 10.0332 0.935344 9.38104C1.441 8.2664 1.94306 7.1504 2.35723 5.99702C2.41041 5.8484 2.41401 5.66285 2.59158 5.58044C2.6042 5.90875 2.61006 6.22851 2.45593 6.54241C2.3694 6.7185 2.405 6.93513 2.45007 7.18868C2.73264 6.91711 2.79168 6.59826 2.90029 6.31768C3.05532 5.91731 3.37666 5.5899 3.41361 5.14088C3.54882 4.84635 3.76153 4.58379 3.78542 4.24286C3.89268 4.18116 3.95217 4.09154 3.94857 3.96499V3.96589Z" fill="var(--fill-0, #1D1B2D)"/>
</svg>
