<svg preserveAspectRatio="none" width="100%" height="100%" overflow="visible" style="display: block;" viewBox="0 0 12 4" fill="none" xmlns="http://www.w3.org/2000/svg">
<path id="Vector" d="M0.317015 2.70088C0.775353 2.46534 1.28642 2.40004 1.77495 2.27168C4.45062 1.56822 7.13394 0.894028 9.79068 0.120756C9.81862 0.11265 9.85017 0.117151 9.87991 0.1158C9.99754 0.225238 10.1197 0.172096 10.2486 0.136067C10.5433 0.0536505 10.8394 -0.0134521 11.1526 0.00231057C11.3482 0.0122185 11.4073 0.105893 11.4109 0.274779C11.2973 0.349539 11.1702 0.369353 11.0373 0.36575C10.9124 0.239199 10.8813 0.318012 10.8701 0.441862C9.88713 0.739101 8.90736 1.04715 7.92037 1.33133C6.38582 1.77313 4.84631 2.19963 3.3086 2.63062C3.12202 2.68287 2.93229 2.72205 2.74391 2.76708C2.57085 2.69007 2.39734 2.61126 2.30946 2.87562C2.25673 2.88193 2.20355 2.88823 2.15037 2.89454C2.07015 2.88733 1.99488 2.89273 1.94891 2.97335C1.89889 2.9774 1.84841 2.98191 1.79839 2.98596C1.45407 2.96074 1.11697 2.94993 0.805549 3.15259C0.698289 3.2224 0.556775 3.26924 0.417966 3.23951C0.262934 3.20619 0.032638 3.21069 0.00379467 3.04496C-0.0318087 2.83824 0.190827 2.82563 0.349014 2.795C0.3729 2.7905 0.415264 2.77204 0.414363 2.76258C0.409856 2.70403 0.355775 2.71169 0.316116 2.70133L0.317015 2.70088Z" fill="var(--fill-0, #1D1B2D)"/>
</svg>
