<svg preserveAspectRatio="none" width="100%" height="100%" overflow="visible" style="display: block;" viewBox="0 0 8 11" fill="none" xmlns="http://www.w3.org/2000/svg">
<path id="Vector" d="M2.33901 0C3.09795 0.250852 3.74422 0.681848 4.20301 1.32992C5.37702 2.98815 6.44602 4.71664 7.52855 6.43522C7.75163 6.78921 7.71062 6.88514 7.30816 7.05943C5.92008 7.66066 4.58293 8.35917 3.28588 9.1383C2.53145 9.59136 1.75674 10.0097 0.991037 10.4434C0.916675 10.4434 0.84051 10.4335 0.767951 10.4462C0.213169 10.5412 0.177567 10.5164 0.228493 9.97147C0.24607 9.78367 0.145118 9.73863 0 9.71476C0.104557 9.14641 0.220379 8.5803 0.310965 8.00969C0.443464 7.17562 0.618779 6.34921 0.735504 5.51198C0.799049 5.05577 0.751728 4.58919 0.884227 4.14288C0.963996 4.1019 1.06315 4.05822 1.03115 3.95193C0.996896 3.83844 0.881072 3.86096 0.802654 3.88888C0.629144 3.95058 0.45338 3.98796 0.275814 3.94382C0.0441661 3.88617 -0.0108171 3.69793 0.179368 3.55201C0.409213 3.37637 0.326288 3.1111 0.42093 2.89943C0.487179 2.75081 0.350174 2.65533 0.263193 2.55625C0.151876 2.42925 0.166749 2.27613 0.184325 2.12976C0.208211 1.92935 0.451126 2.16939 0.494391 1.97934C0.468702 1.86315 0.349724 1.85324 0.266348 1.8001C0.594441 1.50151 0.917576 1.19661 1.25243 0.90613C1.60846 0.597632 1.97621 0.302193 2.33856 0.00135103L2.33901 0ZM5.0354 5.23276C5.0291 5.16836 4.97141 5.11746 4.9304 5.05577C4.6974 4.70628 4.34857 4.46669 4.07952 4.14874C3.74241 3.75062 3.71177 3.77178 3.56936 4.25412C3.55268 4.31132 3.52248 4.36401 3.50265 4.4203C3.28453 5.03775 3.0673 5.65565 2.84962 6.27355C2.83025 6.32849 2.79645 6.38614 2.85594 6.43568C2.90776 6.47846 2.96905 6.4699 3.02404 6.44423C3.67391 6.13934 4.29675 5.78535 4.91327 5.41921C4.97907 5.38003 5.03721 5.33544 5.0354 5.23321V5.23276ZM1.38222 8.13399C1.38087 8.06374 1.33986 8.02726 1.27496 8.02861C1.21052 8.02996 1.16094 8.07364 1.16004 8.13579C1.15914 8.19524 1.1997 8.24974 1.26775 8.24658C1.33175 8.24343 1.3651 8.19344 1.38222 8.13399ZM0.991939 9.87869C0.972109 9.84177 0.956334 9.80033 0.899999 9.81384C0.855833 9.82465 0.822483 9.84492 0.821131 9.89491C0.818877 9.97642 0.880622 9.98723 0.935604 9.97687C0.973912 9.96967 1.00276 9.92869 0.991939 9.87869Z" fill="var(--fill-0, #482965)"/>
</svg>
