<svg preserveAspectRatio="none" width="100%" height="100%" overflow="visible" style="display: block;" viewBox="0 0 16 5" fill="none" xmlns="http://www.w3.org/2000/svg">
<path id="Vector" d="M10.3065 3.6691C10.2479 3.75962 10.1659 3.76413 10.0704 3.74026C9.07437 3.49346 8.07927 3.25026 7.05939 3.10435C6.41222 3.01157 5.78082 2.81116 5.14222 2.66074C4.91057 2.60625 4.67802 2.55761 4.44592 2.50627C4.25979 2.45763 4.06465 2.43871 3.89159 2.34504C4.09484 2.14958 4.34407 2.21713 4.5622 2.26983C4.8646 2.34279 5.11337 2.21173 5.46039 2.17795C5.10751 1.91719 4.78303 1.95863 4.4644 1.96808C4.331 1.83162 4.14622 1.80325 3.97767 1.75326C2.78788 1.40153 1.5963 1.05655 0.403806 0.714725C0.228493 0.664284 0.045969 0.640416 0 0.420189C0.00225338 0.237792 0.134301 0.127903 0.233901 0C0.307361 0.00810652 0.383525 0.00720656 0.454732 0.0261218C1.15013 0.208068 1.83966 0.410731 2.54812 0.538634C3.28723 0.781379 4.04482 0.941257 4.81367 1.0525C5.82499 1.32992 6.85569 1.51772 7.88458 1.71408C9.40156 2.00366 10.9172 2.3045 12.3584 2.88322C13.3896 3.2971 14.3581 3.81907 15.1896 4.56892C15.0494 4.65539 14.9111 4.63017 14.7624 4.58109C14.6398 4.54055 14.5158 4.44733 14.3757 4.52209C14.199 4.61621 14.0462 4.53785 13.9182 4.43697C13.6956 4.26133 13.4811 4.27304 13.2544 4.41175C13.1417 4.37347 13.0268 4.33879 12.9159 4.29555C11.7992 3.8587 10.6635 3.484 9.48178 3.26287C8.75754 3.00527 8.00221 2.90889 7.24192 2.83233C7.98193 3.05931 8.72239 3.28089 9.48809 3.40114C9.6981 3.47004 9.90857 3.5394 10.1186 3.6083C10.1664 3.66955 10.2308 3.68171 10.3029 3.67H10.3074L10.3065 3.6691Z" fill="var(--fill-0, #EEDDBB)"/>
</svg>
