<svg preserveAspectRatio="none" width="100%" height="100%" overflow="visible" style="display: block;" viewBox="0 0 14 11" fill="none" xmlns="http://www.w3.org/2000/svg">
<path id="Vector" d="M11.7458 0.876676C10.8614 0.470901 9.9131 0.171944 8.92157 0.000718268C8.90351 -0.00258633 8.88547 0.00567204 8.87617 0.0221891C8.75421 0.23911 8.61911 0.522102 8.52451 0.744532C7.45805 0.584871 6.39706 0.584871 5.35247 0.744532C5.25784 0.517158 5.11784 0.23911 4.99533 0.0221891C4.98603 0.00622313 4.96799 -0.00203524 4.94994 0.000718268C3.95895 0.171396 3.01062 0.470354 2.12573 0.876676C2.11807 0.879979 2.1115 0.88549 2.10714 0.892642C0.308367 3.57998 -0.184393 6.20126 0.0573385 8.79004C0.0584323 8.8027 0.0655419 8.81482 0.0753864 8.82252C1.26217 9.69406 2.41177 10.2232 3.54002 10.5739C3.55808 10.5794 3.57721 10.5728 3.5887 10.5579C3.85559 10.1934 4.0935 9.80915 4.29748 9.40501C4.30952 9.38135 4.29803 9.35327 4.27342 9.34391C3.89606 9.20076 3.53674 9.02623 3.19109 8.82803C3.16375 8.81206 3.16157 8.77296 3.18672 8.75424C3.25945 8.69973 3.33221 8.64302 3.40166 8.58576C3.41423 8.57531 3.43174 8.5731 3.44651 8.57971C5.71724 9.61644 8.17558 9.61644 10.4195 8.57971C10.4343 8.57255 10.4518 8.57476 10.4649 8.58522C10.5344 8.64248 10.6071 8.69973 10.6804 8.75424C10.7056 8.77296 10.7039 8.81206 10.6766 8.82803C10.3309 9.03008 9.97161 9.20076 9.5937 9.34336C9.5691 9.35272 9.55816 9.38135 9.57019 9.40501C9.77855 9.80858 10.0165 10.1929 10.2784 10.5574C10.2894 10.5728 10.309 10.5794 10.3271 10.5739C11.4608 10.2232 12.6104 9.69406 13.7972 8.82252C13.8076 8.81482 13.8142 8.80325 13.8153 8.79059C14.1046 5.79767 13.3307 3.19789 11.7638 0.89319C11.76 0.88549 11.7534 0.879979 11.7458 0.876676ZM4.63658 7.21374C3.95293 7.21374 3.38962 6.5861 3.38962 5.8153C3.38962 5.04449 3.942 4.41685 4.63658 4.41685C5.3366 4.41685 5.89445 5.05 5.88351 5.8153C5.88351 6.5861 5.33113 7.21374 4.63658 7.21374ZM9.24696 7.21374C8.56334 7.21374 8.00003 6.5861 8.00003 5.8153C8.00003 5.04449 8.55239 4.41685 9.24696 4.41685C9.94701 4.41685 10.5048 5.05 10.4939 5.8153C10.4939 6.5861 9.94701 7.21374 9.24696 7.21374Z" fill="var(--fill-0, #6366F1)"/>
</svg>
