<svg preserveAspectRatio="none" width="100%" height="100%" overflow="visible" style="display: block;" viewBox="0 0 3 3" fill="none" xmlns="http://www.w3.org/2000/svg">
<path id="Vector" d="M0.157737 0C0.262744 0.0180145 0.283474 0.145019 0.40741 0.162583C1.06855 0.256709 1.72293 0.39767 2.39309 0.425593C2.42464 0.573762 2.45619 0.72148 2.48773 0.869649C2.36785 1.29704 2.25203 1.72624 2.12449 2.15138C2.0961 2.24641 2.08122 2.359 1.98117 2.42025C1.94512 2.4198 1.90861 2.4189 1.87211 2.41845C2.00776 1.97754 2.14702 1.53799 2.27772 1.09573C2.3994 0.683651 2.34397 0.601235 1.91763 0.536383C1.51968 0.475584 1.12128 0.412983 0.721984 0.360741C0.555234 0.338673 0.380821 0.293186 0.191086 0.376953C0.599399 0.952966 0.98022 1.50196 1.37636 2.04014C1.4976 2.20498 1.6008 2.39323 1.78693 2.50356C1.72203 2.58778 1.67967 2.68011 1.68508 2.78954C1.15238 1.97844 0.618328 1.16869 0 0.418839C0.109514 0.300844 0.196945 0.174741 0.157286 0.000901604L0.157737 0Z" fill="var(--fill-0, #887994)"/>
</svg>
