<svg preserveAspectRatio="none" width="100%" height="100%" overflow="visible" style="display: block;" viewBox="0 0 6 3" fill="none" xmlns="http://www.w3.org/2000/svg">
<path id="Vector" d="M0.000449741 0.000450802C1.18212 0.222029 2.31783 0.59628 3.4346 1.03313C3.54547 1.07637 3.65994 1.11059 3.77306 1.14933C4.33551 1.488 4.94076 1.75371 5.46851 2.15048C5.44011 2.1811 5.41172 2.21173 5.38333 2.24235C4.5685 1.80055 3.75368 1.35829 2.87757 1.04529C2.20245 0.803898 1.53681 0.531879 0.825638 0.406678L0.821132 0.407126C0.774713 0.341374 0.709365 0.332367 0.636806 0.345427C0.426791 0.276522 0.216324 0.207167 0.00630875 0.138262C0.00405537 0.0923246 0.00225338 0.0463873 0 0L0.000449741 0.000450802Z" fill="var(--fill-0, #90784C)"/>
</svg>
