<svg preserveAspectRatio="none" width="100%" height="100%" overflow="visible" style="display: block;" viewBox="0 0 1 7" fill="none" xmlns="http://www.w3.org/2000/svg">
<path id="Vector" d="M0 5.39039C0.0585879 5.38048 0.127091 5.37507 0.145569 5.30932C0.165399 5.23906 0.176665 5.1634 0.173059 5.09044C0.111768 3.82357 0.301503 2.56301 0.260041 1.29659C0.25283 1.07051 0.278067 0.851636 0.34657 0.636813C0.469154 0.624203 0.51963 0.556196 0.538559 0.434598C0.56605 0.256254 0.628694 0.0896221 0.807612 0C0.918479 0.0553946 0.869354 0.21257 0.978418 0.268865C0.790035 0.979537 0.702154 1.70057 0.71297 2.43736C0.72649 3.33628 0.716576 4.23521 0.714773 5.13413C0.714773 5.32193 0.700802 5.51288 0.981123 5.48451C0.93245 5.76914 0.863495 6.03125 0.511067 6.088C0.39344 6.10691 0.288883 6.11051 0.255984 5.99162C0.196945 5.77815 0.0175764 5.61872 0 5.38993V5.39039Z" fill="var(--fill-0, #0B152C)"/>
</svg>
