<svg preserveAspectRatio="none" width="100%" height="100%" overflow="visible" style="display: block;" viewBox="0 0 4 5" fill="none" xmlns="http://www.w3.org/2000/svg">
<path id="Vector" d="M1.61703 3.85841C1.34302 4.03405 1.15373 4.3493 0.782825 4.36642C0.563796 4.27544 0.541713 4.04081 0.429044 3.87372C0.271307 3.63998 0.141512 3.38733 0 3.14278C0.123035 3.00137 0.30646 2.87256 0.100501 2.66225C0.287983 2.42716 0.261843 2.12632 0.338458 1.85835C0.481323 1.35755 0.637707 0.857644 0.699901 0.336575C0.802655 0.0253743 0.883776 -0.0412793 1.15103 0.021321C2.00776 0.221732 2.84872 0.478439 3.68203 0.759465C3.99029 0.863499 4.01372 0.93871 3.8321 1.20487C3.71537 1.37601 3.55854 1.51923 3.42379 1.67821C2.89605 2.30151 2.34036 2.90229 1.86535 3.56837C1.79009 3.67421 1.61748 3.69358 1.61793 3.85886L1.61703 3.85841Z" fill="var(--fill-0, #1D1B2D)"/>
</svg>
