<svg preserveAspectRatio="none" width="100%" height="100%" overflow="visible" style="display: block;" viewBox="0 0 3 8" fill="none" xmlns="http://www.w3.org/2000/svg">
<path id="Vector" d="M0.599897 4.20548C0.616572 3.92085 0.68913 3.65064 0.780167 3.38042C1.12629 2.35179 1.44446 1.31326 1.89063 0.321108C1.95012 0.189152 1.96094 0.0220677 2.15293 0C2.02043 0.446759 2.06775 0.913333 2.0042 1.36955C1.88703 2.20722 1.71217 3.03319 1.57967 3.86726C1.48908 4.43787 1.37326 5.00397 1.2687 5.57233C1.06905 6.06368 1.04561 6.58655 0.995589 7.10446C0.940606 7.24543 0.813066 7.30758 0.686877 7.34C0.5021 7.38684 0.371404 7.49763 0.244763 7.62508C0.191133 7.67913 0.121279 7.73092 0.0514244 7.67327C-0.0085156 7.62418 -0.00626463 7.53456 0.00950904 7.46295C0.0942362 7.0878 0.182119 6.71355 0.274958 6.3402C0.431793 5.70834 0.586376 5.07558 0.757182 4.44733C0.8027 4.27934 0.736903 4.2316 0.600799 4.20503L0.599897 4.20548Z" fill="var(--fill-0, #0B152C)"/>
</svg>
