<svg preserveAspectRatio="none" width="100%" height="100%" overflow="visible" style="display: block;" viewBox="0 0 44 8" fill="none" xmlns="http://www.w3.org/2000/svg">
<path id="Vector" d="M18.9701 7.31418C18.6167 6.9674 18.3053 6.60126 18.1611 6.10451C18.0922 5.86717 17.829 5.75323 17.6063 5.68207C17.3116 5.58795 17.0209 5.465 16.7072 5.43618L16.7059 5.43753C16.581 5.31008 16.408 5.29972 16.2511 5.25063C16.207 5.25063 16.1628 5.25153 16.1186 5.25198C15.9789 5.0948 15.7757 5.07048 15.5936 5.01554C14.3759 4.64579 13.1582 4.27694 11.9346 3.92701C11.2734 3.73786 10.6258 3.49827 9.94799 3.36946C9.90337 3.36721 9.85875 3.36496 9.81414 3.36271C9.40447 3.15419 8.97768 3.00917 8.51304 2.99882L8.51484 3.00287C8.27688 2.80561 7.99431 2.74436 7.69506 2.73445L7.66892 2.72274C7.66892 2.72274 7.64188 2.73175 7.64143 2.73175C7.23041 2.54125 6.80047 2.42055 6.35024 2.37191L6.35294 2.37596C6.07307 2.20212 5.7567 2.14853 5.43942 2.09764L5.41734 2.08728C5.41734 2.08728 5.39886 2.10304 5.39841 2.10304C4.89816 1.86165 4.3587 1.75897 3.82105 1.64953C3.74173 1.59098 3.65249 1.56441 3.55379 1.57117C3.38389 1.46083 3.19325 1.45317 2.99991 1.45768L2.97377 1.47254C2.55194 1.18115 2.05214 1.13386 1.57172 1.02488L1.54693 1.01272C1.54693 1.01272 1.52079 1.02172 1.52034 1.02172C1.46446 0.95417 1.3892 0.937507 1.30672 0.937507C1.2612 0.869953 1.19541 0.854192 1.11969 0.86365C0.824049 0.763669 0.528405 0.66504 0.233663 0.562808C0.116036 0.522275 0.00426856 0.45427 0.000212478 0.320513C-0.00474496 0.152528 0.0768275 0.0408373 0.267914 0.0354329C0.467113 0.0300286 0.648285 0.0998333 0.835316 0.149373C1.04939 0.206119 1.24498 0.335374 1.47843 0.320062C2.06296 0.500207 2.64433 0.691611 3.23291 0.858245C4.5552 1.23295 5.87973 1.59819 7.20517 1.96118C8.27012 2.25257 9.33777 2.53494 10.4045 2.82092C10.6889 2.91325 10.9697 3.01953 11.2586 3.09519C12.8386 3.50863 14.3953 4.00132 15.9496 4.49987C16.7041 4.74172 17.4481 5.01599 18.1972 5.27585C18.528 5.48887 18.7231 5.79466 18.8105 6.17387C18.921 6.65125 19.3261 6.85211 19.7128 6.9521C20.3451 7.11558 21.0067 7.19078 21.6651 7.12863C22.0523 7.09215 22.4434 7.10116 22.8261 7.04532C23.2145 6.98902 23.6202 6.93723 23.9158 6.62378L23.9185 6.62738C24.0807 6.60531 24.1592 6.49858 24.1984 6.35131C24.2858 6.27881 24.2745 6.17612 24.2826 6.07929C24.3926 5.95049 24.4269 5.79196 24.4598 5.63253L24.4562 5.63343C24.608 5.54381 24.7302 5.42537 24.8149 5.26954L24.8131 5.27269C24.8825 5.26639 24.9519 5.26053 24.9983 5.19793C25.0583 5.17001 25.1187 5.14209 25.1786 5.11417C25.2475 5.0993 25.3156 5.08219 25.3584 5.01824C25.5103 5.01418 25.6491 4.95969 25.792 4.916C27.4324 4.41655 29.0756 3.92431 30.7152 3.42261C31.338 3.2321 31.977 3.09204 32.5819 2.84254L32.7324 2.82993C32.8112 2.83398 32.8852 2.82498 32.9338 2.75112C32.9866 2.74481 33.0397 2.73851 33.0925 2.7322C33.2371 2.69617 33.3823 2.65969 33.5269 2.62366C33.7153 2.57863 33.9055 2.53945 34.0916 2.4872C35.6293 2.05621 37.1688 1.62971 38.7034 1.18791C39.6899 0.90373 40.6701 0.595682 41.6531 0.298443C41.7225 0.303397 41.7824 0.287184 41.8198 0.222332C41.9528 0.225934 42.0799 0.20612 42.1934 0.13136C42.3439 0.0611038 42.5134 0.0696596 42.6671 0.0232723C42.8361 -0.0276187 42.9641 0.00030446 43.0425 0.153428C43.1146 0.293941 43.0488 0.409684 42.9321 0.500207C42.8969 0.527229 42.8622 0.5556 42.8275 0.583072C42.4043 0.644321 41.9965 0.778531 41.6017 0.924898C41.316 1.03073 40.9838 0.987947 40.7364 1.20187C40.7364 1.20187 40.7373 1.19962 40.7373 1.20007C40.5557 1.19602 40.3871 1.24826 40.2217 1.31671C38.9215 1.67655 37.6195 2.02919 36.3216 2.39803C35.4644 2.64168 34.614 2.90739 33.7604 3.16455C33.6756 3.19022 33.5833 3.19968 33.5188 3.27173C33.3043 3.25327 33.1024 3.33118 32.9072 3.38928C30.8404 4.00177 28.7777 4.62823 26.714 5.25243C26.6726 5.26504 26.6365 5.29476 26.5982 5.31638C26.5054 5.34835 26.3873 5.32179 26.3287 5.43303L26.331 5.42897C26.2251 5.41636 26.121 5.4078 26.0579 5.52175C26.0579 5.52175 26.0606 5.51814 26.0606 5.51859C25.9276 5.50463 25.796 5.49382 25.6996 5.61542C25.6996 5.61542 25.7 5.61137 25.7005 5.61137C25.5211 5.60236 25.3683 5.65775 25.2484 5.79556C25.2484 5.79556 25.2412 5.78836 25.2412 5.78791C25.0641 5.80232 24.9708 5.92527 24.9321 6.07254C24.7541 6.74808 24.321 7.18313 23.6851 7.43803C23.6603 7.44794 23.6436 7.47857 23.6233 7.49974L23.6328 7.50424C23.544 7.51009 23.4507 7.50109 23.3669 7.5245C22.6115 7.73707 21.8386 7.76815 21.0612 7.76094C20.6881 7.75734 20.3235 7.64565 19.948 7.67853L19.9507 7.68213C19.8859 7.57224 19.7795 7.5871 19.6767 7.59071C19.6767 7.59071 19.6808 7.59386 19.6803 7.59386C19.6407 7.5119 19.5654 7.50649 19.4884 7.50424L19.4654 7.49343L19.4415 7.50289C19.355 7.41822 19.2527 7.38985 19.135 7.41327L19.14 7.41462C19.1107 7.32049 19.0399 7.30788 18.9561 7.32229L18.9696 7.31463L18.9701 7.31418Z" fill="var(--fill-0, #90784C)"/>
</svg>
