<svg preserveAspectRatio="none" width="100%" height="100%" overflow="visible" style="display: block;" viewBox="0 0 4 11" fill="none" xmlns="http://www.w3.org/2000/svg">
<path id="Vector" d="M1.89333 9.10389C1.92803 8.76927 1.83654 8.44861 1.75542 8.13381C1.56613 7.39747 1.39443 6.65662 1.21776 5.91802C0.905894 4.61648 0.59673 3.31268 0.360125 1.99402C0.260526 1.43782 0.138843 0.885227 0.0261741 0.331282C0.005443 0.228599 -0.0161896 0.125917 0.0176111 0.0245853C0.059524 -0.0105429 0.102338 -0.00603845 0.135688 0.0254869C0.844151 0.693374 1.50304 1.40179 2.06413 2.20299C2.41476 2.70334 2.6108 3.25954 2.79287 3.82789C2.8118 3.88689 2.83073 3.93958 2.87941 3.97877C2.88346 4.09676 2.88707 4.21521 2.89112 4.3332C2.89022 4.46066 2.84606 4.59711 2.96864 4.69799C2.95287 5.06324 2.97765 5.42488 3.05382 5.78292C2.98531 5.99774 2.96008 6.21662 2.96729 6.4427C3.00875 7.70867 2.81901 8.96968 2.88031 10.2365C2.88391 10.3091 2.87265 10.3852 2.85282 10.4554C2.83434 10.5212 2.76583 10.5266 2.70725 10.5365C2.56348 10.1123 2.26468 9.77403 2.06729 9.37906C2.07134 9.248 2.01185 9.15748 1.89287 9.10479L1.89333 9.10389Z" fill="var(--fill-0, #33264F)"/>
</svg>
