<svg preserveAspectRatio="none" width="100%" height="100%" overflow="visible" style="display: block;" viewBox="0 0 274 205" fill="none" xmlns="http://www.w3.org/2000/svg">
<g id="Sparklings">
<path id="Vector" d="M70.7424 199.391C70.8768 199.64 71.0112 199.895 71.1523 200.144C71.9585 201.528 71.8712 202.596 70.8567 203.617C69.8018 204.672 68.4446 204.847 67.1949 204.081C66.2476 203.496 65.8175 202.347 66.0997 201.172C66.4021 199.915 67.598 199.096 69.1366 199.096C69.1904 199.096 69.2509 199.116 69.3046 199.129C69.7816 199.216 70.2587 199.304 70.7357 199.398L70.7424 199.391Z" fill="var(--fill-0, #BF9770)"/>
<path id="Vector_2" d="M128.853 177.965C130.479 177.817 131.357 177.004 131.487 175.526C131.89 176.319 132.038 177.065 132.495 177.407C133.006 177.79 133.792 177.81 134.585 178.025C133.463 178.516 132.69 179.181 133.671 180.646C132.905 180.31 132.394 179.88 131.957 179.947C131.44 180.028 130.983 180.525 130.459 180.874C130.419 180.82 130.298 180.733 130.311 180.673C130.482 179.566 129.993 178.666 128.847 177.972L128.853 177.965Z" fill="var(--fill-0, #D0D1D8)"/>
<path id="Vector_3" d="M143.735 197.577C143.561 197.591 143.386 197.591 143.218 197.624C142.62 197.732 142.042 197.879 142.036 196.919C142.036 196.764 141.579 196.616 140.934 196.227C142.136 196.401 142.855 196.247 142.849 195.037C142.842 196.314 143.614 196.327 144.333 196.233C144.112 196.717 143.91 197.154 143.709 197.597L143.729 197.584L143.735 197.577Z" fill="var(--fill-0, #877284)"/>
<g id="Group">
<path id="Vector_4" d="M104.256 90.2843C104.753 91.3638 105.528 91.8879 106.581 91.8565C105.855 92.6404 105.649 93.5026 105.962 94.4433C105.096 93.8654 104.363 93.7579 103.994 94.8867C103.382 94.6919 103.624 93.5967 102.771 93.8722C102.751 93.8789 102.616 93.6572 102.63 93.6437C103.537 92.8307 102.684 92.6359 102.173 92.3134C102.039 92.226 101.931 92.0917 101.541 91.7154C103.141 92.1992 104.054 91.8364 104.256 90.2776V90.2843Z" fill="var(--fill-0, #C7A587)"/>
<path id="Vector_5" d="M99.9357 97.4601C96.4218 97.2451 92.9146 96.9763 89.4006 96.8285C86.9483 96.721 84.4892 96.7815 82.0368 96.768C82.1309 96.5127 82.2249 96.2574 82.319 96.0021C84.7109 96.123 87.1095 96.2171 89.5014 96.3716C93.0019 96.5933 96.5024 96.8487 99.9962 97.0905C99.976 97.2182 99.9559 97.3391 99.9357 97.4668V97.4601Z" fill="var(--fill-0, #877284)"/>
<path id="Vector_6" d="M117.035 124.08C117.707 122.924 117.27 122.36 116.242 121.99C117.29 121.869 118.459 122.178 118.54 120.499C119.017 121.533 119.568 122.212 120.683 121.453C120.683 121.641 120.697 121.789 120.683 121.795C119.756 121.963 120.952 123.092 120.112 123.159C119.158 123.233 119.44 123.939 119.232 124.671C118.863 123.22 118.076 123.354 117.035 124.08Z" fill="var(--fill-0, #877284)"/>
<path id="Vector_7" d="M109.853 117.878C108.831 119.887 107.797 121.889 106.789 123.905C106.392 124.691 106.036 125.497 106.661 126.344L106.688 126.324C105.398 126.485 105.17 127.043 105.936 128.172C105.983 128.245 105.936 128.38 105.936 128.481C105.438 128.46 104.941 128.44 104.437 128.413C105.196 128.084 105.364 127.439 105.385 126.693C105.398 126.169 106.023 124.248 106.271 123.791C106.99 122.454 107.656 121.09 108.421 119.787C108.818 119.108 109.389 118.523 109.879 117.892L109.859 117.872L109.853 117.878Z" fill="var(--fill-0, #877284)"/>
<path id="Vector_8" d="M82.3124 96.0021C82.2183 96.2574 82.1242 96.5127 82.0302 96.768C81.6741 97.6213 80.8745 97.3862 80.2228 97.5138C79.5062 96.4702 79.5196 95.5071 80.2631 94.6247C80.7066 94.7054 81.15 94.786 81.5935 94.8733C81.8353 95.2429 82.0772 95.6124 82.3191 95.9819V96.0088L82.3124 96.0021Z" fill="var(--fill-0, #C7A587)"/>
<path id="Vector_9" d="M91.0603 85.7357C91.0871 85.0907 91.114 84.439 91.1409 83.8007C92.0009 84.7279 92.7736 84.0695 93.5664 83.1893C93.5059 84.2777 93.4522 85.1377 93.4051 85.9104C92.6795 86.0448 91.8934 86.1859 91.114 86.327C91.0939 86.1254 91.0737 85.9306 91.0536 85.729L91.0603 85.7357Z" fill="var(--fill-0, #B08A96)"/>
<path id="Vector_10" d="M105.573 98.0984C108.24 99.2003 110.914 100.302 113.582 101.404C113.514 101.559 113.454 101.706 113.387 101.861C110.692 100.692 107.998 99.5295 105.304 98.3605C105.391 98.2731 105.485 98.1858 105.573 98.0917V98.0984Z" fill="var(--fill-0, #877284)"/>
<path id="Vector_11" d="M116.202 104.461C115.752 103.319 115.402 102.748 114.744 102.298C115.483 102.298 116.061 102.459 116.464 102.264C117.277 101.861 117.546 102.379 117.794 102.896C118.063 103.454 117.841 103.91 117.297 104.199C117.143 104.28 116.988 104.361 116.833 104.441C116.625 104.448 116.41 104.455 116.202 104.468V104.461Z" fill="var(--fill-0, #C7A587)"/>
<path id="Vector_12" d="M125.702 143.773C124.809 143.847 123.996 143.8 123.915 142.617C124.056 142.362 124.197 142.113 124.345 141.858C125.702 141.287 126.173 141.576 126.052 142.919C125.937 143.202 125.823 143.484 125.709 143.766L125.702 143.773Z" fill="var(--fill-0, #C7A587)"/>
<path id="Vector_13" d="M115.49 106.577C114.193 109.157 112.896 111.744 111.6 114.324L111.627 114.351C111.627 114.122 111.553 113.86 111.64 113.672C112.742 111.428 113.864 109.198 114.999 106.974C115.087 106.806 115.335 106.718 115.51 106.591L115.483 106.571L115.49 106.577Z" fill="var(--fill-0, #877284)"/>
<path id="Vector_14" d="M104.437 128.413C104.935 128.434 105.432 128.454 105.936 128.481C105.929 128.77 106.023 129.146 105.882 129.321C105.58 129.69 105.183 130.039 104.753 130.221C104.558 130.301 104.054 130.053 103.927 129.818C103.604 129.233 103.766 128.702 104.437 128.413Z" fill="var(--fill-0, #C7A587)"/>
<path id="Vector_15" d="M91.06 85.736C91.0801 85.9376 91.1003 86.1324 91.1204 86.334C89.9312 87.4964 88.742 88.6587 87.546 89.8211C87.6603 88.7796 88.4464 88.2959 89.051 87.6778C89.7028 87.0126 90.3881 86.381 91.06 85.736Z" fill="var(--fill-0, #745758)"/>
<path id="Vector_16" d="M107.004 127.063C107.333 127.13 107.75 127.096 107.965 127.291C109.1 128.286 110.175 129.341 111.277 130.369C111.19 130.469 111.096 130.57 111.008 130.671C109.678 129.461 108.348 128.259 107.017 127.049L106.997 127.063H107.004Z" fill="var(--fill-0, #877284)"/>
<path id="Vector_17" d="M99.9358 97.46C99.956 97.3323 99.9761 97.2114 99.9963 97.0838C100.507 96.3626 101.082 96.2417 101.723 96.7209C101.71 96.9023 101.689 97.0905 101.676 97.2719C101.009 97.9034 100.429 97.9662 99.9358 97.46Z" fill="var(--fill-0, #C7A587)"/>
<path id="Vector_18" d="M115.221 134.01C116.471 135.092 117.72 136.174 118.97 137.256C118.883 137.269 118.802 137.269 118.715 137.256C117.109 136.678 116.215 135.267 115.067 134.151C115.12 134.104 115.167 134.051 115.214 134.004L115.221 134.01Z" fill="var(--fill-0, #745758)"/>
<path id="Vector_19" d="M124.345 141.865C124.204 142.12 124.063 142.369 123.915 142.624C122.988 141.663 122.067 140.709 121.14 139.748L121.12 139.768C121.617 139.99 122.161 140.145 122.612 140.447C123.23 140.864 123.774 141.388 124.345 141.871V141.865Z" fill="var(--fill-0, #877284)"/>
<path id="Vector_20" d="M101.676 97.2786C101.689 97.0972 101.71 96.9091 101.723 96.7277C103.006 97.1845 104.29 97.6414 105.573 98.105C105.485 98.1923 105.391 98.2797 105.304 98.3738C104.095 98.0109 102.885 97.6481 101.676 97.2853V97.2786Z" fill="var(--fill-0, #876762)"/>
<path id="Vector_21" d="M82.319 95.9684C82.0771 95.5989 81.8353 95.2294 81.5934 94.8598C82.3996 94.1476 83.2059 93.4354 84.0054 92.7233C84.0525 92.7703 84.0995 92.8173 84.1465 92.8576C83.7367 93.3279 83.2462 93.7512 82.9371 94.282C82.6348 94.7859 82.5206 95.3973 82.319 95.9617V95.9684Z" fill="var(--fill-0, #745758)"/>
<path id="Vector_22" d="M118.721 137.262C118.809 137.276 118.889 137.269 118.977 137.262C119.729 138.062 120.925 138.492 121.127 139.769L121.147 139.748C120.34 138.922 119.534 138.096 118.728 137.262H118.721Z" fill="var(--fill-0, #877284)"/>
<path id="Vector_23" d="M125.702 143.773C125.816 143.491 125.931 143.209 126.045 142.926C126.341 143.397 126.643 143.874 126.939 144.344C127.234 144.814 127.53 145.278 127.819 145.748L127.832 145.735C127.12 145.083 126.408 144.431 125.696 143.773H125.702Z" fill="var(--fill-0, #877284)"/>
<path id="Vector_24" d="M150.448 56.2805C150.085 56.5022 149.87 56.7105 149.621 56.7575C149.514 56.7777 149.339 56.482 149.198 56.3275C149.406 56.1528 149.601 55.9244 149.843 55.837C149.951 55.7967 150.159 56.0588 150.448 56.2805Z" fill="var(--fill-0, #876762)"/>
<path id="Vector_25" d="M139.704 39.3357C139.388 39.5104 139.187 39.7052 138.985 39.7119C138.864 39.7119 138.609 39.3222 138.649 39.2618C138.777 39.0669 138.999 38.899 139.221 38.8116C139.288 38.7847 139.469 39.0736 139.704 39.3357Z" fill="var(--fill-0, #876762)"/>
<path id="Vector_26" d="M118.735 55.3463C118.453 55.5344 118.258 55.7494 118.097 55.7293C117.956 55.7091 117.747 55.4202 117.754 55.2589C117.761 55.1179 118.036 54.8894 118.191 54.8961C118.345 54.8961 118.5 55.138 118.735 55.3463Z" fill="var(--fill-0, #877284)"/>
<path id="Vector_27" d="M110.901 115.749C110.551 116.461 110.202 117.166 109.853 117.878L109.873 117.899C109.819 116.992 110.048 116.219 110.928 115.775L110.901 115.755V115.749Z" fill="var(--fill-0, #877284)"/>
<path id="Vector_28" d="M88.8698 73.4132C88.554 73.6618 88.3726 73.9171 88.2315 73.8903C88.0031 73.8567 87.8082 73.6417 87.5999 73.5073C87.7746 73.3729 87.9291 73.1579 88.124 73.1243C88.2987 73.0975 88.507 73.2587 88.8765 73.4132H88.8698Z" fill="var(--fill-0, #B08A96)"/>
<path id="Vector_29" d="M136.654 123.394C136.903 123.724 137.138 123.898 137.118 124.046C137.098 124.201 136.856 124.355 136.681 124.443C136.634 124.463 136.372 124.241 136.372 124.12C136.372 123.939 136.506 123.757 136.654 123.388V123.394Z" fill="var(--fill-0, #745758)"/>
<path id="Vector_30" d="M112.789 131.881C113.232 132.203 113.682 132.519 114.126 132.841C113.346 132.983 112.984 132.499 112.601 132.062C112.661 132.002 112.721 131.941 112.789 131.881Z" fill="var(--fill-0, #745758)"/>
<path id="Vector_31" d="M107.474 57.6443C107.226 57.3017 107.051 57.1471 107.011 56.9657C106.984 56.8515 107.172 56.6902 107.259 56.5492C107.427 56.6634 107.689 56.744 107.743 56.8918C107.797 57.0329 107.622 57.2479 107.474 57.6443Z" fill="var(--fill-0, #B08A96)"/>
<path id="Vector_32" d="M110.928 115.769C110.854 115.144 110.861 114.559 111.627 114.351L111.6 114.324C111.364 114.794 111.129 115.271 110.901 115.749L110.928 115.769Z" fill="var(--fill-0, #877284)"/>
<path id="Vector_33" d="M112.601 132.055C112.453 131.981 112.265 131.948 112.171 131.834C112.056 131.699 112.029 131.504 111.962 131.336C112.15 131.377 112.365 131.383 112.527 131.477C112.654 131.551 112.708 131.746 112.789 131.881C112.721 131.934 112.661 131.995 112.601 132.062V132.055Z" fill="var(--fill-0, #745758)"/>
<path id="Vector_34" d="M115.073 134.158C114.999 134.078 114.925 133.997 114.858 133.923C114.979 133.95 115.1 133.984 115.228 134.01C115.181 134.057 115.127 134.111 115.08 134.158H115.073Z" fill="var(--fill-0, #745758)"/>
<path id="Vector_35" d="M84.4959 92.5084C84.3817 92.6294 84.2607 92.7436 84.1465 92.8645C84.0995 92.8175 84.0525 92.7772 84.0054 92.7301C84.1264 92.6159 84.2473 92.495 84.3682 92.3808C84.4086 92.4211 84.4556 92.4614 84.4959 92.5084Z" fill="var(--fill-0, #745758)"/>
<path id="Vector_36" d="M84.8319 92.1387C84.7176 92.2597 84.6101 92.3873 84.4959 92.5083C84.4556 92.468 84.4086 92.4276 84.3683 92.3806C84.4959 92.2731 84.6236 92.1656 84.7579 92.0581L84.8319 92.132V92.1387Z" fill="var(--fill-0, #745758)"/>
<path id="Vector_37" d="M84.7578 92.0649L85.1408 91.7424L85.1677 91.7693C85.0534 91.8903 84.9459 92.0179 84.8384 92.1389L84.7645 92.0649H84.7578Z" fill="var(--fill-0, #745758)"/>
<path id="Vector_38" d="M85.1409 91.7423C85.2484 91.6079 85.3492 91.4803 85.4567 91.3526L85.5507 91.4467C85.4231 91.5542 85.2954 91.6617 85.1678 91.7692L85.1409 91.7423Z" fill="var(--fill-0, #745758)"/>
<path id="Vector_39" d="M85.9204 91.1106C85.7995 91.2248 85.6718 91.339 85.5509 91.4465L85.4568 91.3524C85.571 91.2315 85.6853 91.1106 85.7995 90.9829L85.9204 91.1038V91.1106Z" fill="var(--fill-0, #745758)"/>
<path id="Vector_40" d="M85.7926 90.9832C85.9068 90.9496 86.0277 90.916 86.142 90.8824C86.0681 90.9564 85.9874 91.0303 85.9135 91.1042L85.7926 90.9832Z" fill="var(--fill-0, #745758)"/>
<g id="Group_2">
<path id="Vector_41" d="M266.851 113.982C267.154 115.211 267.483 116.441 267.758 117.677C267.94 118.497 268.376 118.812 269.23 118.732C270.493 118.617 271.769 118.611 273.039 118.564C272.636 118.927 272.24 119.289 271.837 119.652L271.776 119.686C271.662 119.78 271.541 119.874 271.427 119.968H271.413C271.218 120.102 271.024 120.23 270.829 120.351L270.715 120.425C270.607 120.512 270.493 120.593 270.385 120.68C269.996 120.922 269.572 121.117 269.236 121.419C269.122 121.52 269.236 121.876 269.25 122.111C269.337 122.259 269.431 122.407 269.519 122.561V122.602C269.72 123.663 269.922 124.718 270.17 126.035C269.27 125.262 268.517 124.591 267.731 123.959C266.697 123.133 266.683 123.146 265.696 123.959C264.997 124.537 264.311 125.128 263.404 125.565C263.566 125.081 263.734 124.597 263.895 124.113C263.781 123.898 263.666 123.683 263.552 123.475C263.687 123.287 263.828 123.099 263.942 122.904C264.634 121.701 264.647 121.675 263.532 120.794C262.632 120.082 261.678 119.444 260.448 118.564C261.765 118.564 262.82 118.604 263.875 118.55C264.406 118.523 264.93 118.329 265.454 118.214C265.554 118.167 265.588 118.093 265.561 117.986L265.521 117.959C265.588 117.811 265.655 117.67 265.722 117.529C265.864 116.474 266.005 115.426 266.146 114.371C266.246 114.244 266.347 114.123 266.448 113.995C266.576 113.995 266.71 113.988 266.838 113.982H266.851Z" fill="var(--fill-0, #C7A587)"/>
<path id="Vector_42" d="M243.201 139.473C243.497 139.6 244.155 139.546 243.544 140.144C243.073 140.601 242.623 141.078 242.159 141.542C242.059 141.992 241.951 142.442 241.85 142.892C241.179 142.006 240.419 142.194 239.6 142.677C239.002 143.033 239.116 142.59 239.17 142.247C240.009 140.816 238.746 140.353 237.853 139.573C239.821 139.909 240.722 139.022 240.796 137.161C241.756 137.92 241.252 139.97 243.201 139.479V139.473Z" fill="var(--fill-0, #BF9770)"/>
<path id="Vector_43" d="M263.572 123.482C263.686 123.697 263.801 123.912 263.915 124.12C262.181 125.182 260.414 126.203 258.721 127.332C256.538 128.79 254.421 130.355 252.251 131.833C251.969 132.028 251.525 131.981 251.055 131.833C251.633 131.343 252.217 130.852 252.795 130.362C254.092 129.515 255.395 128.682 256.679 127.829C257.384 127.359 258.07 126.855 258.768 126.364C260.374 125.41 261.973 124.449 263.579 123.495L263.572 123.482Z" fill="var(--fill-0, #9C7B6D)"/>
<path id="Vector_44" d="M247.615 134.38C248.374 133.533 249.201 132.788 250.544 132.861L247.877 134.776C247.79 134.649 247.702 134.514 247.615 134.387V134.38Z" fill="var(--fill-0, #876762)"/>
<path id="Vector_45" d="M247.165 157.163C247.387 157.311 247.595 157.573 247.83 157.593C248.999 157.708 249.342 158.406 249.248 159.454C249.12 159.703 248.992 159.958 248.871 160.207C247.87 161.087 246.95 161.208 246.365 160.536C245.673 159.737 245.794 158.897 246.721 158.084C246.869 157.775 247.024 157.472 247.172 157.163H247.165Z" fill="var(--fill-0, #BF9770)"/>
<path id="Vector_46" d="M265.81 163.68C264.399 163.358 263.001 162.988 261.584 162.733C259.83 162.411 258.056 162.189 256.296 161.92C255.933 161.839 255.577 161.766 255.214 161.685C254.992 161.624 254.771 161.557 254.549 161.497C254.408 161.396 254.267 161.295 254.126 161.194C254.126 161.087 254.139 160.979 254.18 160.872C254.455 160.798 254.764 160.617 255.006 160.677C258.607 161.544 262.202 162.444 265.803 163.338C265.81 163.452 265.81 163.566 265.803 163.687L265.81 163.68Z" fill="var(--fill-0, #9C7B6D)"/>
<path id="Vector_47" d="M247.165 157.164C247.017 157.473 246.862 157.775 246.715 158.084C246.278 156.451 245.902 154.805 245.384 153.199C244.679 151.029 243.852 148.899 243.107 146.736C242.959 146.306 242.939 145.829 242.858 145.379C243.073 145.627 243.389 145.842 243.496 146.138C244.719 149.578 245.908 153.031 247.091 156.478C247.165 156.693 247.145 156.935 247.171 157.164H247.165Z" fill="var(--fill-0, #9C7B6D)"/>
<path id="Vector_48" d="M241.85 142.893C241.951 142.443 242.058 141.992 242.159 141.542C242.394 142.826 242.63 144.109 242.865 145.399C242.529 144.566 242.186 143.726 241.85 142.893Z" fill="var(--fill-0, #9C7B6D)"/>
<path id="Vector_49" d="M254.179 160.865C254.139 160.966 254.119 161.074 254.126 161.188C253.333 160.946 252.533 160.697 251.74 160.455C251.848 160.361 251.956 160.267 252.07 160.173C252.842 160.2 253.642 160.146 254.186 160.872L254.179 160.865Z" fill="var(--fill-0, #C7A587)"/>
<path id="Vector_50" d="M252.07 160.166C251.962 160.261 251.855 160.355 251.741 160.449C250.78 160.368 249.826 160.281 248.865 160.2C248.993 159.951 249.12 159.696 249.241 159.448C250.182 159.689 251.122 159.925 252.063 160.166H252.07Z" fill="var(--fill-0, #9C7B6D)"/>
<path id="Vector_51" d="M256.585 110.098C255.026 110.696 255.402 111.912 255.577 113.215C254.589 112.302 253.696 111.731 252.54 112.846C253.165 111.448 252.58 110.622 251.344 109.99C252.701 110.031 253.83 109.869 254.072 108.116C254.551 109.348 255.389 110.011 256.585 110.105V110.098Z" fill="var(--fill-0, #C7A587)"/>
<path id="Vector_52" d="M264.358 95.9954C264.022 95.478 263.68 94.9607 263.371 94.4904C264.19 94.1343 264.99 93.7916 265.769 93.4557C266.287 93.758 266.891 94.1208 267.57 94.5173C266.891 95.1085 266.387 95.9484 266.844 97.0502C266.475 96.9293 266.112 96.8017 265.5 96.6001C265.568 98.1454 265.628 99.5295 265.695 100.914C265.615 100.927 265.534 100.934 265.453 100.927C265.359 100.605 265.212 100.282 265.185 99.9528C265.084 98.5956 265.165 97.2048 264.358 95.9954Z" fill="var(--fill-0, #BF9770)"/>
<path id="Vector_53" d="M265.454 100.927C265.534 100.927 265.615 100.927 265.695 100.914C265.83 101.908 265.796 102.849 266.858 103.601C267.55 104.085 266.576 104.71 266.119 105.16C265.756 105.059 265.393 104.958 265.03 104.864C264.103 103.977 264.103 103.957 265.292 102.976C265.339 102.667 265.393 102.365 265.44 102.056C265.44 101.68 265.454 101.303 265.46 100.934L265.454 100.927Z" fill="var(--fill-0, #C7A587)"/>
<g id="Vector_54">
</g>
<path id="Vector_55" d="M269.68 165.83C269.223 165.851 268.766 165.871 268.309 165.898C268.074 165.877 267.832 165.857 267.597 165.844C267.597 165.696 267.61 165.542 267.61 165.394C267.469 165.199 267.328 164.997 267.187 164.802C267.153 164.695 267.147 164.587 267.174 164.48C267.113 164.346 267.053 164.211 266.992 164.084C266.596 163.949 266.206 163.815 265.81 163.687C265.81 163.573 265.81 163.459 265.81 163.338C266.488 163.338 267.221 163.58 267.731 162.881C268.37 162.007 269.115 162.209 269.854 162.699C270.661 163.237 270.896 164.037 270.459 164.977C270.305 165.313 269.948 165.555 269.68 165.837V165.83Z" fill="var(--fill-0, #C7A587)"/>
<path id="Vector_56" d="M224.536 179.88C224.986 179.88 225.443 179.866 225.893 179.866C226.142 179.812 226.39 179.759 226.646 179.705C227.015 178.697 227.378 177.682 227.916 176.224C228.299 177.226 228.567 177.817 228.749 178.435C229.286 180.222 228.923 179.947 230.885 179.866C231.383 179.846 231.88 179.765 232.505 179.953C232.014 180.336 231.504 180.706 231.053 181.129C230.979 181.203 231.154 181.532 231.208 181.747C231.221 181.855 231.228 181.969 231.208 182.077C229.683 182.224 229.609 182.305 229.891 183.709C230.012 184.314 230.187 184.905 230.422 185.853C229.616 185.174 229.024 184.784 228.561 184.28C227.895 183.555 227.331 183.622 226.659 184.26C226.202 184.704 225.658 185.06 225.154 185.456C225.067 185.288 224.98 185.113 224.892 184.946C225.02 184.26 225.141 183.582 225.268 182.896C225.45 182.668 225.631 182.439 225.813 182.211C225.618 182.07 225.423 181.929 225.221 181.794C224.516 181.297 223.81 180.8 223.105 180.31C223.219 180.182 223.34 180.054 223.454 179.927C223.676 179.913 223.898 179.9 224.12 179.886C224.254 179.886 224.388 179.886 224.523 179.886L224.536 179.88Z" fill="var(--fill-0, #C7A587)"/>
<path id="Vector_57" d="M251.626 187.344C252.815 186.061 253.057 185.98 254.193 186.451C254.542 186.746 254.885 187.035 255.234 187.331L255.248 187.344C255.335 187.465 255.416 187.586 255.503 187.707C255.658 188.486 255.577 189.192 254.952 189.783C253.877 190.791 252.204 190.489 251.633 189.138C251.478 188.775 251.452 188.352 251.371 187.962C251.458 187.761 251.539 187.552 251.626 187.344Z" fill="var(--fill-0, #BF9770)"/>
<path id="Vector_58" d="M231.214 182.083C231.228 181.976 231.221 181.862 231.214 181.754C236.274 183.165 241.326 184.576 246.385 185.987C246.271 186.101 246.157 186.215 246.043 186.33C241.246 185.013 236.448 183.703 231.658 182.379C231.497 182.332 231.369 182.184 231.221 182.083H231.214Z" fill="var(--fill-0, #9C7B6D)"/>
<path id="Vector_59" d="M246.036 186.33C246.151 186.215 246.265 186.101 246.379 185.987C248.126 186.437 249.879 186.894 251.626 187.344C251.539 187.552 251.458 187.754 251.371 187.962C249.591 187.418 247.817 186.874 246.036 186.33Z" fill="var(--fill-0, #876762)"/>
<path id="Vector_60" d="M256.303 183.85C256.887 182.917 257.451 181.976 258.07 181.062C258.204 180.867 258.513 180.793 258.741 180.666C258.056 181.734 257.378 182.802 256.692 183.871C256.558 183.871 256.43 183.864 256.296 183.857L256.303 183.85Z" fill="var(--fill-0, #876762)"/>
<path id="Vector_61" d="M256.303 183.851C256.437 183.851 256.565 183.857 256.699 183.864C256.269 184.596 255.792 185.309 255.429 186.074C255.254 186.437 255.295 186.908 255.241 187.324C254.892 187.029 254.542 186.74 254.2 186.444C254.905 185.577 255.604 184.711 256.309 183.844L256.303 183.851Z" fill="var(--fill-0, #9C7B6D)"/>
<path id="Vector_62" d="M260.152 178.542C260.139 178.744 260.126 178.939 260.119 179.14C260.011 179.295 259.904 179.45 259.796 179.604C259.709 179.712 259.622 179.826 259.534 179.933C259.386 180.175 259.239 180.417 259.098 180.659C258.977 180.659 258.862 180.659 258.741 180.666C258.775 179.665 259.178 178.905 260.166 178.536L260.152 178.542Z" fill="var(--fill-0, #876762)"/>
<path id="Vector_63" d="M9.26527 152.124C9.0637 152.003 8.8487 151.903 8.67401 151.748C7.92822 151.11 7.25634 151.116 6.5643 151.856C6.17461 152.272 5.7043 152.601 5.15335 153.065C5.69758 150.767 5.55648 148.966 2.9563 148.368C3.04365 148.321 3.12427 148.234 3.21162 148.227C6.5979 148.012 6.0268 148.073 7.0615 144.935C7.73338 145.305 7.63931 146.024 7.86103 146.548C8.43885 147.912 8.41198 147.932 9.91027 147.797C10.3739 147.757 10.8307 147.676 11.4422 147.797C10.9853 148.167 10.5486 148.57 10.0581 148.899C9.2048 149.477 9.09058 150.149 9.69527 150.969C9.55418 151.352 9.41308 151.735 9.26527 152.118V152.124Z" fill="var(--fill-0, #C7A587)"/>
<path id="Vector_64" d="M26.6469 158.252C26.5193 158.171 26.3849 158.097 26.2572 158.017C26.5999 157.909 26.9493 157.809 27.2919 157.701C28.5372 157.723 29.3479 157.161 29.7242 156.015C29.8518 155.632 29.9929 155.255 30.1407 154.852C30.2818 154.926 30.4095 154.953 30.4296 155.014C30.732 155.84 30.7924 156.928 31.3703 157.419C31.9078 157.876 32.9828 157.701 34.004 157.829C33.2381 158.534 32.2571 159.031 32.0085 159.777C31.7734 160.476 32.3109 161.43 32.5125 162.277C32.1429 162.015 31.7667 161.753 31.3971 161.49C30.5103 160.872 29.7242 161.027 29.0388 161.954C28.8306 161.914 28.6223 161.873 28.414 161.84C28.078 161.477 27.7287 161.114 28.0579 160.563C28.2908 159.609 27.8183 158.837 26.6402 158.245L26.6469 158.252Z" fill="var(--fill-0, #BF9770)"/>
<path id="Vector_65" d="M13.1755 191.268C13.3099 190.785 13.3435 190.24 13.5988 189.837C14.1094 189.024 14.1699 188.44 13.3032 187.795C13.1016 187.64 12.0535 187.284 12.8261 186.538C13.1621 186.538 13.4913 186.538 13.8272 186.545C13.9616 186.404 14.096 186.263 14.2304 186.115C14.7813 186.431 15.1038 186.222 15.2852 185.665C15.4734 185.08 15.6615 184.496 16.0109 183.844C16.5685 185.86 17.5763 187.17 19.8943 187.015C19.2628 187.392 18.6446 187.781 18.0063 188.131C17.5159 188.406 17.5428 188.735 17.8182 189.132C17.9123 189.515 18.0063 189.898 18.1004 190.274C18.1676 190.617 18.2348 190.953 18.3423 191.483C17.6032 191.033 16.8843 190.731 16.3401 190.227C15.648 189.595 15.1374 189.723 14.5596 190.308C14.2371 190.63 13.8877 190.926 13.5451 191.235C13.4241 191.235 13.3099 191.248 13.189 191.248L13.1755 191.268Z" fill="var(--fill-0, #BF9770)"/>
<path id="Vector_66" d="M3.74243 171.515C4.08509 172.099 4.42775 172.677 4.77041 173.262C4.87791 173.611 4.97869 173.96 5.08619 174.317C5.3751 174.444 5.66401 174.646 5.96636 174.679C6.52402 174.74 7.0884 174.693 8.03575 174.693C7.4109 175.203 7.06824 175.479 6.72558 175.754C5.65729 176.608 5.61698 176.776 6.3023 177.918C6.51058 178.267 6.77261 178.583 7.01449 178.919C6.81965 178.946 6.63152 178.973 6.43667 179C5.19593 177.925 3.944 177.94 2.68086 179.047C2.56664 179.147 2.38523 179.174 2.23742 179.241L2.26429 179.275C2.23742 178.717 2.21726 178.153 2.19039 177.595C2.15679 177.495 2.08289 177.421 1.9821 177.374C2.62039 176.997 2.37851 176.675 1.91492 176.366C1.78726 176.272 1.6596 176.178 1.53866 176.084C1.3035 175.963 1.07506 175.848 0.839906 175.727C0.604747 175.607 0.369589 175.492 0.134431 175.371L0.208338 175.304C0.30912 175.19 0.416621 175.076 0.517403 174.962C1.07506 174.941 1.63944 174.921 2.19711 174.901C2.34492 174.874 2.49273 174.847 2.64055 174.82C3.01008 173.725 3.37962 172.623 3.74915 171.528L3.74243 171.515Z" fill="var(--fill-0, #BF9770)"/>
<path id="Vector_67" d="M27.4667 163.795C27.5339 163.835 27.5944 163.828 27.6481 163.768L27.8027 163.775L27.9505 163.754C25.9012 167.967 23.852 172.18 21.7893 176.392C21.702 176.567 21.4534 176.661 21.2854 176.796C21.5206 176.104 21.702 175.378 22.011 174.72C22.609 173.416 23.2809 172.139 23.9192 170.856C25.1017 168.505 26.2842 166.153 27.4734 163.795H27.4667Z" fill="var(--fill-0, #876762)"/>
<path id="Vector_68" d="M6.43692 178.999C6.63176 178.972 6.81989 178.946 7.01473 178.919C9.42007 181.324 11.8254 183.723 14.224 186.128C14.0896 186.269 13.9553 186.41 13.8142 186.551C13.5992 186.35 13.3842 186.148 13.1692 185.947C12.2688 184.992 11.3752 184.018 10.4548 183.078C9.12444 181.707 7.77396 180.356 6.4302 178.993L6.43692 178.999Z" fill="var(--fill-0, #745758)"/>
<path id="Vector_69" d="M20.9562 176.789C21.0704 176.762 21.1846 176.755 21.3055 176.775C21.2719 178.321 20.2641 179.449 19.5855 180.713C19.525 180.645 19.4646 180.585 19.4041 180.511C19.9215 179.268 20.4388 178.025 20.9562 176.782V176.789Z" fill="var(--fill-0, #876762)"/>
<path id="Vector_70" d="M19.5785 180.72C19.4173 181.082 19.256 181.439 19.0007 182.023C18.6648 181.197 18.9806 180.841 19.3971 180.525C19.4509 180.592 19.5113 180.659 19.5785 180.72Z" fill="var(--fill-0, #876762)"/>
<path id="Vector_71" d="M264.768 173.235C264.936 173.974 264.332 174.088 263.881 174.31C263.579 174.458 263.25 174.545 262.934 174.652C262.793 174.652 262.652 174.666 262.511 174.673C262.833 174.108 262.719 173.618 262.336 173.114C261.96 172.617 262.114 172.301 262.753 172.187C263.189 172.113 263.606 171.951 264.029 171.824C264.271 172.294 264.52 172.758 264.762 173.228L264.768 173.235Z" fill="var(--fill-0, #C7A587)"/>
<path id="Vector_72" d="M262.511 174.672C262.652 174.672 262.793 174.659 262.934 174.652C262.007 175.956 261.073 177.253 260.146 178.556C260.361 176.91 261.53 175.848 262.511 174.672Z" fill="var(--fill-0, #876762)"/>
<path id="Vector_73" d="M264.768 173.235C264.526 172.764 264.278 172.301 264.036 171.83C264.58 171.004 265.118 170.178 265.662 169.344C265.79 169.344 265.924 169.351 266.052 169.358C265.763 169.868 265.514 170.406 265.185 170.89C264.694 171.622 264.587 172.395 264.762 173.235H264.768Z" fill="var(--fill-0, #876762)"/>
<path id="Vector_74" d="M266.052 169.358C265.924 169.358 265.79 169.351 265.662 169.344C266.018 168.525 266.22 167.591 267.214 167.248L266.052 169.358Z" fill="var(--fill-0, #9C7B6D)"/>
<path id="Vector_75" d="M267.59 165.837C267.825 165.857 268.067 165.878 268.302 165.891C267.933 166.348 267.563 166.812 267.2 167.268C267.335 166.791 267.462 166.314 267.597 165.831L267.59 165.837Z" fill="var(--fill-0, #9C7B6D)"/>
<path id="Vector_76" d="M240.715 55.7631C241.192 54.0901 241.669 52.4171 242.146 50.7441C242.798 50.7374 242.831 51.2413 242.939 51.6848C243.268 53.089 243.57 54.5 243.953 55.8975C244.041 56.2133 244.397 56.4484 244.632 56.7239C246.412 56.7037 248.2 56.6769 249.98 56.6567C250.323 56.7172 250.665 56.7844 251.008 56.8448C249.342 57.8997 247.682 58.9478 246.023 60.0094C245.626 60.258 245.169 60.5066 245.64 61.0777C245.996 62.2803 246.352 63.4763 246.715 64.679C246.816 65.0149 246.916 65.3508 247.01 65.6868C246.984 65.7741 247.004 65.848 247.064 65.9085C246.849 65.9824 246.641 66.0496 246.426 66.1235C245.19 65.0687 243.947 64.0205 242.71 62.9589C242.28 62.5894 241.951 62.6297 241.514 63.0261C240.486 63.9668 239.405 64.8536 238.323 65.7338C238.128 65.8951 237.819 65.9085 237.564 65.9958L237.577 66.0093C237.98 64.6118 238.37 63.2143 238.78 61.8167C239.237 60.2714 239.25 60.2647 237.906 59.4316C236.865 58.7866 235.803 58.1617 234.755 57.5301L234.735 57.5234L234.057 57.1405C233.929 57.033 233.808 56.9322 233.68 56.8247C234.251 56.7306 234.822 56.5761 235.4 56.5559C237.06 56.4954 238.726 56.482 240.386 56.4484C240.493 56.22 240.601 55.9915 240.708 55.7631H240.715Z" fill="var(--fill-0, #C7A587)"/>
<path id="Vector_77" d="M262.82 76.9811C262.88 77.0886 262.934 77.1893 262.995 77.2968C262.766 77.3842 262.531 77.4715 262.302 77.5522C261.214 76.4435 261.059 76.0539 259.185 78.2509C259.185 77.8478 259.185 77.579 259.185 77.3103C259.543 76.2711 259.147 75.3327 257.996 74.4951C258.359 74.4346 258.641 74.3406 258.916 74.354C259.89 74.3876 260.475 74.0113 260.542 72.9766C260.576 72.466 260.851 72.4123 261.234 72.7012C261.342 73.0573 261.442 73.4066 261.55 73.7627C261.725 73.9979 261.886 74.4077 262.081 74.4279C262.578 74.4682 263.082 74.3338 263.774 74.2465C263.539 74.5757 263.418 74.8646 263.203 75.0326C262.235 75.7717 262.222 75.7582 262.827 76.9878L262.82 76.9811Z" fill="var(--fill-0, #C7A587)"/>
<g id="Group_3">
<path id="Vector_78" d="M159.948 2.50307C165.585 5.00247 171.216 7.49515 176.853 9.99454C176.732 10.223 176.611 10.4514 176.49 10.6799C171.357 8.32828 166.23 5.95654 161.084 3.64527C160.499 3.38324 159.767 3.43699 159.108 3.34292C159.162 4.00137 159.223 4.66653 159.276 5.32497C159.377 5.68107 159.485 6.04389 159.585 6.39998V6.38654C159.686 6.77623 159.8 7.15921 159.908 7.5489C159.888 7.63624 159.908 7.71687 159.968 7.78406C160.647 10.1961 161.325 12.6014 162.004 15.0135C162.018 15.3226 162.031 15.6249 162.044 15.934C161.803 16.3841 161.561 16.8343 161.319 17.2912C161.305 16.6059 161.42 15.8937 161.252 15.2419C160.385 11.8691 159.518 8.48953 158.483 5.16372C158.215 4.30371 157.348 3.63855 156.75 2.87933C157.872 3.2623 158.947 3.19511 159.948 2.51651V2.50307Z" fill="var(--fill-0, #B08A96)"/>
<path id="Vector_79" d="M161.312 17.2779C161.554 16.8278 161.796 16.3776 162.038 15.9207C162.394 16.2903 162.75 16.6598 163.106 17.0293C163.462 17.2175 163.825 17.4056 164.181 17.5937C163.18 18.4806 163.879 19.5153 164.107 20.8187C162.851 19.8445 161.789 19.475 160.701 20.933C160.539 19.7034 161.339 18.3731 159.753 17.9767C160.009 17.1503 160.754 17.419 161.319 17.2779H161.312Z" fill="var(--fill-0, #C7A587)"/>
<path id="Vector_80" d="M205.011 21.2085C205.26 22.1021 204.789 22.0685 204.178 21.8535C203.768 21.4839 203.365 21.3092 202.969 21.8736C202.834 21.9811 202.7 22.0886 202.559 22.1961L202.586 22.1424C202.129 22.0819 201.806 21.9072 201.907 21.3697C202.035 20.6777 201.88 20.1133 201.215 19.7706C201.322 19.5691 201.437 19.3608 201.544 19.1592C202.306 18.989 202.933 18.4963 203.425 17.6811C204.111 18.3127 204.816 18.9577 205.616 19.69C205.596 20.1335 204.38 20.3417 205.004 21.2152L205.011 21.2085Z" fill="var(--fill-0, #C7A587)"/>
<path id="Vector_81" d="M159.948 2.50325C158.947 3.18185 157.872 3.24904 156.75 2.86607C156.239 1.43496 156.34 0.931053 157.24 0.366673C158.08 -0.150675 158.806 -0.164113 159.383 0.60855C159.753 1.09902 159.766 1.85825 159.948 2.50325Z" fill="var(--fill-0, #C7A587)"/>
<path id="Vector_82" d="M188.873 15.5711C187.28 14.9396 185.701 14.2744 184.096 13.6966C183.249 13.3942 182.349 13.2464 181.475 13.0314C181.388 13.0113 181.301 13.0113 181.206 13.0314C180.414 11.9967 179.406 11.9161 178.27 12.3394C178.64 11.9833 179.003 11.6339 179.372 11.2778C182.765 12.5006 186.165 13.7235 189.558 14.953C189.33 15.1613 189.101 15.3696 188.873 15.5711Z" fill="var(--fill-0, #B08A96)"/>
<path id="Vector_83" d="M201.551 19.1521C201.444 19.3536 201.329 19.5619 201.222 19.7635C198.649 18.9169 196.075 18.0704 193.502 17.2171C192.917 17.0222 192.333 16.8274 191.748 16.6258C191.849 16.4041 191.943 16.1824 192.044 15.9606C195.215 17.0222 198.387 18.0838 201.551 19.1454V19.1521Z" fill="var(--fill-0, #B08A96)"/>
<path id="Vector_84" d="M192.044 15.9677C191.943 16.1895 191.849 16.4112 191.748 16.6329C191.365 17.5668 190.411 17.0831 189.732 17.4728C189.444 16.8277 189.155 16.2029 188.872 15.578C189.101 15.3698 189.329 15.1615 189.558 14.9599C190.772 14.3552 191.6 14.6934 192.044 15.9745V15.9677Z" fill="var(--fill-0, #C7A587)"/>
<path id="Vector_85" d="M118.164 4.2699C118.923 3.84662 119.541 3.49724 120.119 3.16802C120.549 3.55099 121.087 4.02131 121.624 4.49163C121.443 4.98882 121.187 5.66742 120.898 6.46696C120.348 6.09742 119.622 5.62039 118.789 6.50727C119.225 5.45242 119.346 4.57897 118.171 4.2699H118.164Z" fill="var(--fill-0, #B08A96)"/>
<path id="Vector_86" d="M179.372 11.2847C179.002 11.6408 178.64 11.9902 178.27 12.3463C177.934 12.3463 177.598 12.3395 177.262 12.3328C177.02 11.8692 176.772 11.4056 176.53 10.942C176.496 10.8614 176.483 10.7741 176.483 10.6867C176.604 10.4583 176.725 10.2298 176.846 10.0014C178.546 9.55124 178.66 9.61171 179.365 11.2847H179.372Z" fill="var(--fill-0, #C7A587)"/>
<path id="Vector_87" d="M216.514 34.2561C216.856 34.3838 217.192 34.6055 217.542 34.6256C218.328 34.6794 219.121 34.6458 220.209 34.6458C219.457 35.2102 218.966 35.5797 218.469 35.9492V35.9694C217.587 36.3457 217.336 37.0758 217.716 38.1597C217.831 38.6569 217.945 39.1541 218.059 39.6446C217.871 39.6043 217.683 39.564 217.495 39.5304C217.354 39.4162 217.213 39.3087 217.071 39.1944C216.917 39.0265 216.783 38.8383 216.601 38.704C215.231 37.7029 215.244 37.723 213.786 38.7241C213.289 39.0668 212.698 39.2818 212.147 39.5505C212.435 38.8585 212.731 38.1665 213.02 37.4744C213.369 36.8899 213.363 36.3725 212.758 35.9492C212.207 35.5596 211.649 35.1766 210.803 34.5853C211.878 34.5853 212.617 34.5517 213.349 34.592C214.055 34.6324 214.411 34.3367 214.599 33.6649C214.801 32.9392 215.096 32.2337 215.358 31.5216C215.432 31.5619 215.486 31.5417 215.519 31.4678C215.687 31.8306 215.849 32.1867 216.017 32.5495C216.178 33.1206 216.346 33.685 216.507 34.2561H216.514Z" fill="var(--fill-0, #C7A587)"/>
<g id="Group_4">
<path id="Vector_88" d="M103.241 10.9556C103.658 12.5748 103.456 13.1795 102.341 13.6834C101.481 14.0686 100.827 13.8469 100.379 13.0183C100.245 12.7697 100.097 12.5278 99.9559 12.2859C99.8484 12.1986 99.7409 12.1112 99.6334 12.0239C99.6266 11.9029 99.6199 11.7753 99.6132 11.6543C99.7946 11.52 100.01 11.4259 100.144 11.2579C101.199 9.94775 101.83 9.88057 103.248 10.9556H103.241Z" fill="var(--fill-0, #C7A587)"/>
<path id="Vector_89" d="M99.6334 12.0236C99.7409 12.111 99.8484 12.1983 99.9559 12.2856C97.2482 12.3192 94.5473 12.3596 91.8396 12.3931C91.0871 12.3797 90.3346 12.3528 89.5754 12.3461C85.9808 12.3461 82.3795 12.3461 78.785 12.3461C78.6775 12.111 78.5767 11.8825 78.4692 11.6474C80.4647 11.6675 82.4601 11.6877 84.4556 11.7078C84.9461 11.8153 85.4366 12.0236 85.9338 12.0236C90.4958 12.0438 95.0646 12.0236 99.6267 12.0236H99.6334Z" fill="var(--fill-0, #877284)"/>
<path id="Vector_90" d="M78.4826 11.6473C78.5901 11.8825 78.6909 12.1109 78.7984 12.3461C78.617 12.4737 78.4288 12.6014 78.2474 12.7223C77.9787 13.6294 77.1052 13.542 76.4468 13.8108C76.2049 13.5689 75.963 13.3203 75.7279 13.0784C75.654 12.8634 75.6472 12.588 75.4994 12.4536C74.6125 11.6339 75.3449 11.3248 75.9361 10.962C76.776 9.9945 76.7894 9.98107 77.7301 10.747C78.0257 10.9889 78.234 11.3383 78.4826 11.6406V11.6473Z" fill="var(--fill-0, #C7A587)"/>
<path id="Vector_91" d="M99.6332 12.0239C95.0711 12.0239 90.5023 12.044 85.9403 12.0239C85.4498 12.0239 84.9593 11.8156 84.4621 11.7081C89.5147 11.6879 94.5605 11.6745 99.613 11.6543C99.6198 11.7753 99.6265 11.9029 99.6332 12.0239Z" fill="var(--fill-0, #B08A96)"/>
<path id="Vector_92" d="M61.5979 29.2779C61.5173 28.7202 61.8667 28.4985 62.3169 28.5791C64.3056 28.9352 65.0044 27.7997 65.2664 26.1133C65.2866 25.9991 65.3538 25.8983 65.3941 25.7908C65.7636 26.3485 66.1399 26.9061 66.4892 27.4705C66.7244 27.8535 66.8722 28.3372 67.4836 28.1693C67.9741 28.4313 68.4646 28.7 68.955 28.9621C68.7736 29.1032 68.6057 29.2711 68.4041 29.3719C67.6852 29.728 67.5239 30.2051 67.9405 30.924C68.2496 31.4615 68.4646 32.0527 68.8879 32.9732C68.0682 32.5701 67.5575 32.3551 67.0872 32.0729C65.8039 31.3137 65.8039 31.2935 64.7558 32.3215C64.5945 32.4827 64.4736 32.691 64.3392 32.8724C64.0369 32.9329 63.5195 33.4637 63.6337 32.5768C63.6808 32.1871 63.8219 31.8108 63.9159 31.4279C64.2317 30.7694 64.2317 30.1782 63.4591 29.849C62.9417 29.6272 62.3908 29.4794 61.86 29.298L61.7323 29.2644H61.5979V29.2779Z" fill="var(--fill-0, #C7A587)"/>
<path id="Vector_93" d="M68.9552 28.9551C68.4647 28.693 67.9743 28.4243 67.4838 28.1623C69.7413 24.2519 72.019 20.3483 74.2295 16.4111C74.8275 15.3562 75.2239 14.1871 75.7143 13.0718C75.9562 13.3137 76.1981 13.5623 76.4332 13.8042C76.1511 14.3349 75.8621 14.8725 75.58 15.4032C75.4859 15.5645 75.3851 15.7257 75.291 15.887L75.2709 15.9206C75.0223 16.3775 74.7737 16.8276 74.5251 17.2845C74.4042 17.4928 74.2899 17.7011 74.169 17.9094C73.9473 18.299 73.7256 18.682 73.5038 19.0717C72.4356 20.9194 71.3605 22.7738 70.2923 24.6214C69.748 25.5083 69.224 26.4086 68.6461 27.2821C68.2296 27.9069 68.2968 28.3168 69.0493 28.5452C69.0493 28.5452 68.9821 28.8073 68.9485 28.9484L68.9552 28.9551Z" fill="var(--fill-0, #B08A96)"/>
<path id="Vector_94" d="M53.791 27.5441C53.67 27.7054 53.9254 28.4041 53.5021 28.001C52.7832 27.3224 52.2927 27.6516 51.5671 28.1354C52.2725 26.9394 50.9758 26.6572 50.781 25.898C51.641 26.0324 52.3935 25.945 52.6219 24.6214C53.1594 25.468 53.193 26.4758 54.4965 25.9316C54.006 26.6169 53.0989 26.7916 53.791 27.5374V27.5441Z" fill="var(--fill-0, #B08A96)"/>
<path id="Vector_95" d="M5.07952 74.8515C5.67749 74.7306 6.26875 74.6029 6.86672 74.482C7.08172 74.482 7.29672 74.482 7.51173 74.482C7.76032 74.5693 8.00892 74.65 8.25079 74.7575C8.47923 74.8583 8.69424 74.9859 8.90924 75.1001C8.70096 75.2479 8.49267 75.389 8.28439 75.5368L8.23736 75.5839C8.23064 75.8123 8.22392 76.034 8.2172 76.2625C8.09626 76.4439 7.98204 76.6186 7.8611 76.8C7.20266 75.94 6.69203 76.7462 6.12093 76.9478L6.14109 76.9747C6.15005 76.0967 5.79619 75.3935 5.07952 74.865V74.8515Z" fill="var(--fill-0, #C7A587)"/>
<path id="Vector_96" d="M7.50509 74.475C7.29009 74.475 7.07509 74.475 6.86009 74.475C6.94071 74.0786 7.02134 73.6822 7.10196 73.2925C7.21618 73.306 7.33712 73.3261 7.45134 73.3396C7.4715 73.7158 7.48494 74.0921 7.50509 74.475Z" fill="var(--fill-0, #877284)"/>
<g id="Group_5">
<path id="Vector_97" d="M0 101.028C0.174689 101.001 0.349378 100.967 0.524067 100.961C2.10075 100.902 3.11977 99.9662 3.58113 98.1521C3.8566 98.918 4.07832 99.348 4.16566 99.8116C4.35379 100.746 4.87114 101.088 5.79161 100.914C6.24849 100.826 6.71881 100.793 7.39741 100.705C7.04131 101.048 6.84647 101.283 6.60459 101.458C5.59229 102.183 5.40192 103.111 6.03349 104.239C5.59677 104.3 4.99879 104.212 4.76364 104.468C4.5016 104.75 4.56207 105.341 4.48145 105.798C4.36723 105.744 4.20597 105.717 4.19254 105.657C3.78269 103.393 3.46691 103.413 1.8947 104.763C1.72673 104.904 1.47142 104.952 1.25642 105.046C1.28329 104.992 1.31689 104.945 1.33032 104.891C1.85439 103.225 1.41095 101.939 0 101.034L0 101.028Z" fill="var(--fill-0, #C7A587)"/>
<path id="Vector_98" d="M8.61378 112.846C8.56003 113.363 8.49956 113.887 8.43909 114.425C7.50518 114.472 6.5847 114.519 5.55 114.573C6.14126 113.545 5.28797 112.873 4.52202 111.966C5.93297 111.986 6.77954 111.462 6.88705 109.997C7.37752 111.24 8.36518 111.697 9.34613 112.167C9.09753 112.396 8.85566 112.624 8.60706 112.853L8.61378 112.846Z" fill="var(--fill-0, #BF9770)"/>
<path id="Vector_99" d="M26.9022 109.749C27.2583 109.406 27.6816 109.104 27.9436 108.701C28.3871 108.015 28.9716 107.693 29.7577 107.652C30.2079 108.002 30.658 108.358 31.1082 108.707L31.2291 108.674C31.3165 108.835 31.4038 108.996 31.4912 109.164C31.4441 110.132 31.3702 111.079 30.1877 111.368C29.0388 111.65 28.2661 111.153 27.7555 110.159C27.4733 110.024 27.1911 109.883 26.9089 109.749H26.9022Z" fill="var(--fill-0, #C7A587)"/>
<path id="Vector_100" d="M8.61379 112.846C8.86239 112.618 9.10427 112.389 9.35286 112.161C12.4099 111.717 15.467 111.267 18.524 110.824C18.7659 110.938 19.0011 111.059 19.243 111.173C17.7043 111.428 16.1657 111.684 14.6204 111.926C12.6182 112.241 10.616 112.537 8.61379 112.839V112.846Z" fill="var(--fill-0, #9C7B6D)"/>
<path id="Vector_101" d="M19.2428 111.18C19.0009 111.066 18.7591 110.945 18.5239 110.831C21.0972 110.448 23.6705 110.065 26.2438 109.682C26.4655 109.709 26.6873 109.729 26.909 109.756C27.1912 109.89 27.4734 110.031 27.7556 110.165C24.9202 110.501 22.0849 110.844 19.2495 111.18H19.2428Z" fill="var(--fill-0, #B08A96)"/>
<path id="Vector_102" d="M35.845 69.4828C35.8181 69.3686 35.7711 69.2611 35.6972 69.167C35.6166 69.0058 35.5292 68.8445 35.4486 68.6833C34.9581 67.4605 34.4677 66.2444 33.9839 65.0215C34.0981 64.8804 34.2124 64.7394 34.3199 64.5915C35.4486 67.0708 36.5774 69.55 37.7061 72.0293C39.5874 76.3495 41.4955 80.6562 43.3365 84.9898C43.6657 85.7692 44.2368 86.1186 44.9154 86.4411C44.3376 86.4411 43.7598 86.4277 43.182 86.4277C41.724 82.9406 40.2929 79.4468 38.8013 75.9799C37.8607 73.7896 36.8327 71.6463 35.845 69.4761V69.4828Z" fill="var(--fill-0, #877284)"/>
<path id="Vector_103" d="M43.1754 86.4342C43.7532 86.4342 44.331 86.4477 44.9088 86.4477C45.7621 86.918 45.9838 87.6907 45.6546 88.5171C45.2313 89.5988 44.2504 89.7668 43.2023 89.6727C43.0276 89.6593 42.8529 89.6525 42.6782 89.6391C42.6782 89.4644 42.7454 89.2696 42.6849 89.1285C42.2549 88.049 42.4161 87.1531 43.1687 86.4409L43.1754 86.4342Z" fill="var(--fill-0, #C7A587)"/>
<path id="Vector_104" d="M42.6847 89.6395C42.8594 89.6529 43.0341 89.6596 43.2088 89.6731C41.4619 92.2128 39.715 94.7525 37.9681 97.2922C38.1025 96.9966 38.2369 96.7009 38.3578 96.3986C38.4586 96.15 38.5392 95.8947 38.6333 95.6394C39.2111 94.7122 39.7822 93.7783 40.36 92.8511C40.4541 92.7234 40.5481 92.589 40.6422 92.4614L40.6758 92.4009C40.8102 92.1926 40.9513 91.9776 41.0856 91.7693C41.6164 91.0571 42.1539 90.3517 42.6847 89.6395Z" fill="var(--fill-0, #9C7B6D)"/>
<path id="Vector_105" d="M33.8092 102.721C34.7768 101.303 35.7308 99.865 36.7319 98.4743C37.0074 98.0846 37.4441 97.8091 37.8069 97.4866C37.303 98.3735 36.8058 99.2671 36.2952 100.147C36.0063 100.638 35.6972 101.115 35.3949 101.599C35.2941 101.733 35.2 101.861 35.0993 101.995C34.9783 102.21 34.8641 102.425 34.7432 102.64C34.6222 102.781 34.4946 102.922 34.3736 103.056C34.3064 103.09 34.293 103.144 34.3199 103.211C33.9235 103.292 33.7152 103.171 33.8092 102.727V102.721Z" fill="var(--fill-0, #9C7B6D)"/>
<path id="Vector_106" d="M31.1552 58.2626C30.7319 58.3903 30.2481 58.4306 29.9055 58.6657C28.8573 59.4048 27.863 60.2178 26.499 61.2726C26.7006 60.4529 26.7947 59.9961 26.929 59.5459C27.1239 58.8673 27.3658 58.2021 27.5606 57.5303C28.0914 55.7027 27.9301 55.4743 25.8943 55.0443C25.1553 54.4194 24.4095 53.7946 23.489 53.0152C24.5976 52.7801 25.6189 52.9279 26.6267 52.8943C27.1575 52.8741 27.6883 52.8674 28.2123 52.8943C28.9111 52.9346 29.2605 52.6591 29.4284 51.9469C29.7778 50.4688 30.228 49.0108 30.7117 47.2639C31.7733 48.9369 31.7867 50.7443 32.546 52.256C32.5191 52.3769 32.546 52.4844 32.6064 52.5919C33.0297 52.7061 33.4463 52.901 33.8696 52.9211C35.1999 52.9682 36.5369 52.948 37.8673 52.9547C36.9065 53.7005 35.9726 54.4866 34.9715 55.1787C34.1988 55.7095 33.8494 56.2268 34.2593 57.2077C34.6825 58.2223 34.9177 59.3175 35.3343 60.6948C34.1719 60.0296 33.2044 59.472 32.2436 58.921C31.8808 58.706 31.518 58.491 31.1552 58.276V58.2626Z" fill="var(--fill-0, #C7A587)"/>
<path id="Vector_107" d="M31.1555 58.2624C31.5183 58.4774 31.8811 58.6924 32.2439 58.9074C31.5855 59.3172 32.1566 59.7136 32.3044 60.063C32.9494 61.5815 33.6414 63.0865 34.32 64.5982C34.2058 64.7393 34.0916 64.8804 33.9841 65.0215C33.0434 62.7707 32.1028 60.5132 31.1689 58.2624H31.1555Z" fill="var(--fill-0, #9C7B6D)"/>
<g id="Vector_108">
</g>
<g id="Vector_109">
</g>
</g>
</g>
</g>
</g>
</g>
</g>
</svg>
