<svg preserveAspectRatio="none" width="100%" height="100%" overflow="visible" style="display: block;" viewBox="0 0 13 9" fill="none" xmlns="http://www.w3.org/2000/svg">
<path id="Vector" d="M12.3447 2.06657C12.2288 2.67546 11.8656 3.22265 11.8926 3.86757C11.5447 4.2846 11.1089 4.60526 10.6875 4.93808C10.13 5.37898 9.55498 5.79872 8.97361 6.2081C8.25568 6.7134 7.53369 7.21511 6.74726 7.61278C6.71527 7.57765 6.69183 7.58846 6.6738 7.62719C6.64406 7.63304 6.61477 7.6389 6.58502 7.6452C6.55348 7.67132 6.52193 7.69699 6.49083 7.72312C6.46514 7.73392 6.4381 7.73843 6.41061 7.73753C6.16634 7.74519 5.9338 7.73257 5.76524 7.5101C5.66519 7.37769 5.52007 7.34752 5.36053 7.39931C4.89589 7.55063 4.37671 7.49793 3.94586 7.77941C3.89944 7.80959 3.83004 7.8213 3.77325 7.81679C3.49699 7.79608 3.24416 7.89921 2.98187 7.9537C2.64161 8.02441 2.28918 8.07035 1.96739 7.93434C1.60956 7.78302 1.32473 7.7722 1.03765 8.0771C0.86549 8.2595 0.673503 8.21176 0.554524 8.01C0.509908 7.93434 0.476556 7.84607 0.462585 7.76005C0.4058 7.40967 0.367944 7.06379 0.129086 6.7643C0.0263319 6.63549 0.00514844 6.43643 0.000641678 6.25043C-0.00611847 5.97841 0.0416537 5.7172 0.091228 5.45284C0.145309 5.16326 0.257078 4.87638 0.137198 4.57329C-0.00431444 4.2157 0.441403 4.07699 0.448163 3.78065C0.454022 3.52439 0.608153 3.4699 0.811408 3.40955C1.19629 3.29471 1.59694 3.22085 1.96875 3.08664C2.51542 2.88893 3.0729 2.74797 3.63129 2.60115C3.78046 2.56197 3.91837 2.47054 4.03555 2.32327C4.09999 2.25122 4.19238 2.24176 4.27711 2.21609C5.13024 1.95938 5.98112 1.69322 6.8383 1.44957C8.1358 1.08072 9.43825 0.72809 10.7385 0.368251C10.9557 0.52948 11.1107 0.415991 11.254 0.251609L11.2531 0.25386C11.5114 0.294392 11.7588 0.248457 12.0008 0.159285C12.113 0.117852 12.2248 0.0750659 12.3397 0.0426398C12.7823 -0.0821105 12.9468 0.0656093 12.844 0.502461C12.8201 0.604693 12.7872 0.702872 12.7971 0.809157C12.7034 1.13612 12.6097 1.46263 12.5164 1.78959C12.3384 1.80806 12.3375 1.93506 12.3451 2.06792L12.3447 2.06657Z" fill="var(--fill-0, #33264F)"/>
</svg>
