<svg preserveAspectRatio="none" width="100%" height="100%" overflow="visible" style="display: block;" viewBox="0 0 3 5" fill="none" xmlns="http://www.w3.org/2000/svg">
<path id="Vector" d="M2.09221 4.45471C1.71049 4.75961 1.22196 4.55154 0.810938 4.71953C0.775335 4.73394 0.721253 4.71728 0.680692 4.70241C0.562615 4.65873 0.154304 3.92149 0.19171 3.79403C0.226412 3.67559 0.255704 3.56885 0.200721 3.44861C0.131317 3.29683 0.178189 3.16623 0.273282 3.03292C0.507183 2.70461 0.483747 2.36323 0.292661 2.02231C0.28545 2.00925 0.280491 1.99439 0.271026 1.98313C-0.129625 1.49854 -0.0349804 0.998637 0.22551 0.494231C0.252551 0.441539 0.303475 0.397852 0.319249 0.342908C0.36657 0.178976 0.431468 -0.012427 0.615344 0.000633469C0.837527 0.0168465 1.03808 0.152404 1.13723 0.368128C1.18049 0.462704 1.17644 0.575296 1.31119 0.591959C1.31569 0.652308 1.32065 0.712206 1.32516 0.772555C1.19807 0.904511 1.2197 0.995484 1.39997 1.04277C1.40763 1.10177 1.41529 1.16077 1.42295 1.21976C1.27468 1.3265 1.35085 1.49854 1.30308 1.63635C1.15706 2.05924 1.43287 2.31369 1.69606 2.56905C1.72401 2.71902 1.80242 2.85953 1.7862 3.01851C1.63522 3.16218 1.67669 3.24865 1.86732 3.29053C1.99396 3.54498 1.96872 3.83051 2.03542 4.09758C1.98224 4.10613 1.91735 4.11784 1.91239 4.17684C1.90428 4.27052 1.98765 4.26782 2.05165 4.27953C2.11339 4.32681 2.12511 4.38581 2.09131 4.45471H2.09221Z" fill="var(--fill-0, #482965)"/>
</svg>
