<svg preserveAspectRatio="none" width="100%" height="100%" overflow="visible" style="display: block;" viewBox="0 0 12 4" fill="none" xmlns="http://www.w3.org/2000/svg">
<path id="Vector" d="M0.991488 0.0374729C2.57832 0.454058 4.16515 0.871542 5.75288 1.28588C6.80701 1.56105 7.8625 1.82991 8.91663 2.10463C9.04552 2.13841 9.18027 2.16543 9.28528 2.25911C9.22534 2.31585 9.18884 2.40548 9.29024 2.41764C9.56064 2.45006 9.81888 2.57662 10.0997 2.52572L10.0929 2.52077C10.1862 2.66984 10.3345 2.60904 10.4642 2.61715C10.4926 2.61535 10.5188 2.6212 10.5436 2.63471C10.6197 2.73109 10.7261 2.70857 10.827 2.70632C10.8532 2.70136 10.8784 2.70497 10.9019 2.71713C11.019 2.88691 11.2457 2.85359 11.4684 3.00446C11.1943 3.0594 11.0244 3.17244 10.7829 3.1139C10.252 2.98464 9.69359 2.9932 9.16946 2.8135C9.08473 2.78468 8.99099 2.79864 8.92609 2.88016C7.85979 2.59373 6.79169 2.3118 5.72674 2.02042C4.4013 1.65787 3.07632 1.29218 1.75448 0.91748C1.1659 0.750846 0.584527 0.559441 0 0.379296C0.0318478 0.140904 0.160441 0.0188561 0.385779 0.0131515C0.532699 0.00954863 0.68007 0.00504413 0.826991 0.00099087C0.826991 0.00099087 0.820681 -0.000358348 0.820681 9.20143e-05C0.858989 0.0978206 0.915323 0.111332 0.991488 0.0374729Z" fill="var(--fill-0, #1D1B2D)"/>
</svg>
