<svg preserveAspectRatio="none" width="100%" height="100%" overflow="visible" style="display: block;" viewBox="0 0 6 2" fill="none" xmlns="http://www.w3.org/2000/svg">
<path id="Vector" d="M0 0.0036375C0.320431 -0.0265368 0.564246 0.135143 0.782824 0.335554C0.938758 0.478769 1.00816 0.379238 1.08568 0.261243C1.15779 0.410313 1.2299 0.559831 1.302 0.708901C1.55213 1.0228 1.6026 1.03812 1.92213 0.889947C1.96269 0.871032 2.00326 0.852116 2.04066 0.827346C2.90686 0.251783 3.78613 0.366625 4.67126 0.776455C4.68478 0.78276 4.6992 0.788167 4.71137 0.796274C5.00881 1.00209 5.28508 1.00749 5.52935 0.710253C5.67356 0.869681 5.64021 0.991728 5.46265 1.10297C5.38288 1.15296 5.24722 1.12279 5.21703 1.28582C5.37206 1.3849 5.55549 1.31419 5.71863 1.35067C5.42299 1.66457 5.01738 1.71592 4.6289 1.77221C4.24627 1.82806 3.85554 1.8186 3.46795 1.85553C2.80952 1.91768 2.14747 1.84246 1.51562 1.67898C1.12894 1.579 0.723785 1.37814 0.61337 0.900755C0.525488 0.521551 0.330796 0.215757 0 0.0027359V0.0036375Z" fill="var(--fill-0, #171619)"/>
</svg>
