<svg preserveAspectRatio="none" width="100%" height="100%" overflow="visible" style="display: block;" viewBox="0 0 6 8" fill="none" xmlns="http://www.w3.org/2000/svg">
<path id="Vector" d="M5.69745 0C5.76776 0.0450362 5.81508 0.116193 5.77542 0.188251C5.63976 0.434149 5.58343 0.707969 5.40586 0.946661C5.07011 1.39747 4.77762 1.88432 4.5338 2.39503C4.5009 2.46348 4.48062 2.55761 4.40716 2.56841C4.0669 2.61885 4.07276 2.95663 3.91007 3.15163C3.75143 3.34169 3.83526 3.50877 4.00336 3.65604C4.1318 3.76818 4.21923 3.7871 4.38733 3.67586C4.64647 3.50472 4.91958 3.32953 5.12194 3.11651C5.33511 2.89223 5.54422 2.87556 5.79795 2.88187C5.33375 3.35835 4.80376 3.75512 4.2634 4.13883C3.93621 4.12847 3.70997 4.25547 3.64101 4.5964H3.63966C3.17501 4.55271 2.97492 4.85445 2.82439 5.2206C2.79329 5.24942 2.7622 5.27824 2.7311 5.30707C2.40361 5.36742 2.22319 5.51679 2.18984 5.75518L2.18939 5.75608C2.06004 5.76058 1.93025 5.76373 1.92664 5.94388C1.88608 6.02539 1.82028 6.07899 1.73871 6.11592C1.43676 6.12538 1.27316 6.29336 1.21007 6.57664H1.20871C1.02078 6.55322 0.863046 6.58745 0.770207 6.77885C0.667002 6.99052 0.488533 7.05538 0.262294 7.02385C0.175764 7.01169 0.0874312 7.01664 0 7.01394C0.0234352 6.959 0.0432644 6.9027 0.0698543 6.84911C0.443014 6.10106 1.11497 5.59935 1.62559 4.96479C1.91357 4.60675 2.35163 4.39283 2.56931 3.96949C2.77977 3.92941 2.8992 3.76142 3.01548 3.61371C3.22955 3.34169 3.47922 3.1066 3.71448 2.85575C4.42249 2.10004 5.05704 1.29164 5.5005 0.347229C5.55684 0.226982 5.58838 0.0909736 5.69835 0.000450802L5.69745 0Z" fill="var(--fill-0, #2C1644)"/>
</svg>
