<svg preserveAspectRatio="none" width="100%" height="100%" overflow="visible" style="display: block;" viewBox="0 0 6 7" fill="none" xmlns="http://www.w3.org/2000/svg">
<path id="Vector" d="M1.8007 5.45534C1.79259 5.61251 1.71507 5.73906 1.62223 5.85886C1.46945 6.05612 1.28017 6.13718 1.03095 6.05747C0.774962 5.97595 0.51988 5.88273 0.257135 5.83544C0.0408109 5.79626 0.00250325 5.68457 0.000249865 5.49587C-0.00515825 5.07523 0.078217 4.6663 0.153931 4.25782C0.24046 3.79035 0.3671 3.33008 0.452278 2.86215C0.604156 2.02808 0.778568 1.19896 0.988132 0.377502C1.09404 -0.0363809 1.20896 -0.0872726 1.5641 0.11494C1.75834 0.225729 2.00621 0.248696 2.15674 0.420284C2.45553 0.761208 2.82554 0.955315 3.24016 1.13321C3.49119 1.24084 3.72734 1.40433 4.00451 1.46918C4.13836 1.5007 4.26049 1.55069 4.35243 1.65923C4.45203 1.77723 4.57596 1.85469 4.7301 1.88351C5.03115 1.93936 5.18843 2.12941 5.24747 2.42395C5.28803 2.62796 5.35158 2.82702 5.40476 3.02878C4.94282 3.06076 4.58408 2.76442 4.20145 2.59554C3.70301 2.37531 3.28027 1.99565 2.72549 1.85874C2.39379 1.77678 2.35548 1.75201 2.17251 2.02493C2.08282 2.15868 2.01793 2.30235 1.96385 2.46133C1.78403 2.9842 1.74572 3.54265 1.55058 4.05651C1.3649 4.54695 1.23871 5.04821 1.15443 5.56297C1.14091 5.64494 1.06655 5.73951 1.18778 5.79311C1.29324 5.83995 1.4005 5.81382 1.47216 5.7242C1.56365 5.60936 1.61773 5.45578 1.80115 5.45578L1.8007 5.45534Z" fill="var(--fill-0, #0B152C)"/>
</svg>
