<svg preserveAspectRatio="none" width="100%" height="100%" overflow="visible" style="display: block;" viewBox="0 0 19 7" fill="none" xmlns="http://www.w3.org/2000/svg">
<path id="Vector" d="M0.597146 0.204013C0.657086 0.136008 0.717477 0.0680047 0.777417 0C1.55213 0.266164 2.33631 0.4981 3.13671 0.674642C3.8979 0.953416 4.69695 1.08807 5.47842 1.28849C5.57622 1.31371 5.68708 1.31821 5.75423 1.20742C5.98633 1.25876 6.21933 1.3074 6.45053 1.36189C7.08959 1.51232 7.72053 1.71273 8.3677 1.8055C9.38759 1.95142 10.3822 2.19461 11.3787 2.44141C11.4742 2.46483 11.5562 2.46033 11.6148 2.37026C12.326 2.49546 12.9916 2.76748 13.6668 3.00887C14.5429 3.32232 15.3577 3.76413 16.1725 4.20593C16.4177 4.38878 16.6574 4.57928 16.9094 4.75267C17.064 4.85941 17.1279 5.08234 17.3533 5.0954C17.5953 5.39263 17.8369 5.69032 18.0784 5.98801C18.1028 6.15285 18.2159 6.2776 18.2776 6.42576C18.233 6.49917 18.1731 6.5244 18.0978 6.47396C17.9139 6.35101 17.7246 6.37622 17.5331 6.44828C17.5052 6.43792 17.4601 6.43477 17.4515 6.41541C17.2843 6.03981 16.9567 5.83714 16.6187 5.65294C15.9742 5.30121 15.2824 5.06117 14.5929 4.81662C13.4806 4.4221 12.3165 4.20908 11.1939 3.8497C11.0384 3.80016 10.8721 3.78079 10.7072 3.82312C10.6833 3.81096 10.6585 3.80736 10.6324 3.81231C10.5684 3.6673 10.4543 3.72134 10.3489 3.74071C10.3241 3.72675 10.298 3.72089 10.2696 3.72314C10.1839 3.54435 10.0302 3.62631 9.8982 3.62677L9.90496 3.63172C9.6634 3.45112 9.3664 3.43987 9.09014 3.3651C8.98513 3.27143 8.85038 3.24396 8.72149 3.21063C7.66735 2.93591 6.61187 2.66659 5.55774 2.39187C3.97001 1.97754 2.38363 1.5596 0.796345 1.14347C0.73956 1.13086 0.682324 1.11825 0.625539 1.10609L0.631848 1.10744C0.455634 0.975033 0.227591 0.965126 0 0.85839C0.156835 0.689054 0.297446 0.536831 0.438057 0.384608C1.11227 0.617896 1.7973 0.800743 2.51342 0.84668C2.52289 0.853436 2.5328 0.860191 2.54226 0.866496C2.53145 0.861092 2.52108 0.855238 2.51027 0.849833C2.01092 0.640415 1.47461 0.558897 0.958138 0.408476C0.813921 0.366592 0.668804 0.360288 0.597597 0.204013H0.597146Z" fill="var(--fill-0, #D8C09F)"/>
</svg>
