<svg preserveAspectRatio="none" width="100%" height="100%" overflow="visible" style="display: block;" viewBox="0 0 20 20" fill="none" xmlns="http://www.w3.org/2000/svg">
<g id="SVG">
<path id="Vector" d="M9.61091 2.71486C9.64679 2.6497 9.6995 2.59536 9.76354 2.55751C9.82759 2.51966 9.90061 2.4997 9.975 2.4997C10.0494 2.4997 10.1224 2.51966 10.1865 2.55751C10.2505 2.59536 10.3032 2.6497 10.3391 2.71486L12.7929 7.37319C12.8515 7.48105 12.9331 7.57462 13.0321 7.64718C13.1311 7.71974 13.2449 7.76949 13.3653 7.79285C13.4858 7.81622 13.61 7.81261 13.7289 7.78231C13.8478 7.75201 13.9585 7.69575 14.0531 7.61758L17.6084 4.57188C17.6766 4.51637 17.7607 4.48394 17.8486 4.47927C17.9364 4.47461 18.0235 4.49793 18.0972 4.5459C18.171 4.59386 18.2276 4.66399 18.259 4.74618C18.2903 4.82838 18.2948 4.9184 18.2717 5.00329L15.9159 13.5203C15.8679 13.6946 15.7643 13.8484 15.6209 13.9585C15.4775 14.0686 15.3021 14.129 15.1213 14.1304H4.82956C4.64863 14.1292 4.47305 14.0689 4.32948 13.9588C4.1859 13.8487 4.08218 13.6947 4.03406 13.5203L1.67913 5.00413C1.65606 4.91923 1.66052 4.82921 1.69188 4.74701C1.72323 4.66482 1.77986 4.59469 1.85361 4.54673C1.92735 4.49876 2.01442 4.47544 2.10227 4.48011C2.19011 4.48477 2.27422 4.5172 2.34246 4.57271L5.89689 7.61841C5.99148 7.69658 6.10221 7.75284 6.22113 7.78314C6.34004 7.81345 6.46419 7.81705 6.58466 7.79368C6.70514 7.77032 6.81894 7.72057 6.91791 7.64801C7.01687 7.57546 7.09855 7.48188 7.15706 7.37402L9.61091 2.71486Z" fill="var(--fill-0, #C7D2FE)" stroke="var(--stroke-0, #C7D2FE)" stroke-width="1.6625" stroke-linecap="round" stroke-linejoin="round"/>
<g id="Vector_2">
<path d="M4.15625 17.4562H15.7938Z" fill="var(--fill-0, #C7D2FE)"/>
<path d="M4.15625 17.4562H15.7938" stroke="var(--stroke-0, #C7D2FE)" stroke-width="1.6625" stroke-linecap="round" stroke-linejoin="round"/>
</g>
</g>
</svg>
