<svg preserveAspectRatio="none" width="100%" height="100%" overflow="visible" style="display: block;" viewBox="0 0 11 4" fill="none" xmlns="http://www.w3.org/2000/svg">
<path id="Vector" d="M9.57687 2.68439C9.91938 2.9564 10.2619 3.22842 10.6044 3.50044C10.6909 3.60853 10.777 3.71617 10.8635 3.82425C10.8343 3.85308 10.8045 3.88235 10.7752 3.91117C10.6423 3.81119 10.5093 3.71076 10.3759 3.61078C9.54442 2.86048 8.57547 2.33896 7.54477 1.92508C6.10351 1.34636 4.58833 1.04552 3.07091 0.755934C2.04201 0.559577 1.01132 0.371775 0 0.0943522C0.0315473 0.0637276 0.0630943 0.0335548 0.0946416 0.00293013C0.338908 -0.0159851 0.569654 0.0610262 0.803105 0.109215C2.2651 0.412759 3.75323 0.573538 5.20937 0.908608C6.29279 1.15766 7.35143 1.48507 8.35509 1.96471C8.73185 2.14485 9.07887 2.3867 9.43941 2.60017C9.48493 2.62809 9.53045 2.65601 9.57597 2.68394L9.57687 2.68439Z" fill="var(--fill-0, #90784C)"/>
</svg>
