<svg preserveAspectRatio="none" width="100%" height="100%" overflow="visible" style="display: block;" viewBox="0 0 16 6" fill="none" xmlns="http://www.w3.org/2000/svg">
<path id="Vector" d="M0.393891 0C0.85268 0.103133 1.31192 0.206266 1.77071 0.309399C3.39269 0.673742 5.04577 0.839476 6.68623 1.08447C6.80431 1.10204 6.92509 1.10339 7.04407 1.1124C7.66195 1.28488 8.29965 1.35784 8.9297 1.46097C10.1407 1.65913 11.2971 2.02483 12.4085 2.53239C13.4725 3.01878 14.4401 3.65154 15.2315 4.52884C15.204 4.70403 15.1765 4.87877 15.149 5.05397C14.9746 5.04045 14.8678 5.10621 14.8647 5.29446C14.5221 5.02244 14.1796 4.75042 13.8371 4.4784C13.8619 4.4122 13.9029 4.33384 13.8105 4.29601C13.7344 4.26493 13.7222 4.34419 13.7001 4.39463C13.3396 4.18116 12.9921 3.93932 12.6158 3.75917C11.6117 3.27954 10.553 2.95212 9.47006 2.70307C8.01392 2.36801 6.52579 2.20723 5.0638 1.90368C4.83035 1.85504 4.5996 1.77848 4.35534 1.7974C3.61848 1.54745 2.84827 1.44116 2.09249 1.27452L0 0.670139C0.123485 0.416135 0.316375 0.310299 0.620131 0.447209C0.576415 0.275171 0.466901 0.308048 0.399299 0.270668C0.246971 0.18645 0.283926 0.0923247 0.394792 0.000450802L0.393891 0Z" fill="var(--fill-0, #EEDDBB)"/>
</svg>
