<svg preserveAspectRatio="none" width="100%" height="100%" overflow="visible" style="display: block;" viewBox="0 0 9 8" fill="none" xmlns="http://www.w3.org/2000/svg">
<path id="Vector" d="M7.41227 1.87756C7.32664 1.90503 7.24101 1.92485 7.25228 2.05095C7.33385 2.985 7.39334 3.9213 7.49655 4.8531C7.56054 5.43002 7.64257 6.00468 7.6651 6.58474C7.67321 6.79687 7.74127 6.93152 7.97472 6.93423C8.0662 6.93513 8.15589 6.94459 8.20005 7.04457C6.98864 7.03286 5.7975 6.84415 4.61267 6.61852C3.15158 6.3402 1.71888 5.94794 0.304658 5.48947C0.192439 5.45299 0.0775163 5.42326 0 5.32418C0.513771 5.27239 0.953631 5.53675 1.42233 5.66871C2.02309 5.8376 2.62068 6.01189 3.23495 6.13078C3.68653 6.21815 4.12233 6.37307 4.58248 6.43748C5.15528 6.51764 5.72178 6.6442 6.29189 6.74688C6.36445 6.75994 6.44151 6.75453 6.51588 6.75273C6.82504 6.74597 6.84172 6.72886 6.85433 6.42262C6.85659 6.36272 6.8683 6.29922 6.85253 6.24382C6.67496 5.62457 6.70381 4.97785 6.59159 4.34915C6.45368 3.57497 6.28107 2.80801 6.21032 2.02032C6.17381 1.6132 6.00661 1.21733 5.8953 0.816958C5.88403 0.775975 5.84752 0.741747 5.82319 0.703916C5.74702 0.586372 6.05844 0.443158 5.80065 0.339575C5.6623 0.28418 5.52213 0.231485 5.37927 0.190502C5.27066 0.159427 5.18818 0.108988 5.14988 0C5.46355 0.0288232 5.75423 0.15177 6.04898 0.245896C6.27161 0.317053 6.5348 0.430995 6.60376 0.668336C6.74797 1.16509 7.05939 1.53123 7.41272 1.87801L7.41227 1.87756Z" fill="var(--fill-0, #0B152C)"/>
</svg>
